<svg width="32" height="32" viewBox="0 0 32 32" fill="none" xmlns="http://www.w3.org/2000/svg">
<path d="M30.75 18C30.75 18.1989 30.671 18.3897 30.5303 18.5303C30.3897 18.671 30.1989 18.75 30 18.75C29.8011 18.75 29.6103 18.671 29.4697 18.5303C29.329 18.3897 29.25 18.1989 29.25 18C29.2464 14.7522 27.9546 11.6385 25.658 9.34196C23.3615 7.04543 20.2478 5.75364 17 5.75C14.0173 5.75331 11.1578 6.93964 9.0487 9.0487C6.93964 11.1578 5.75331 14.0173 5.75 17C5.75331 19.7175 6.83428 22.3227 8.75581 24.2442C10.6773 26.1657 13.2825 27.2467 16 27.25C18.4523 27.247 20.8034 26.2715 22.5374 24.5374C24.2715 22.8034 25.247 20.4523 25.25 18C25.2474 15.8128 24.3773 13.7159 22.8307 12.1693C21.2841 10.6227 19.1872 9.75265 17 9.75C15.0779 9.75232 13.2352 10.5169 11.876 11.876C10.5169 13.2352 9.75232 15.0779 9.75 17C9.75198 18.657 10.4111 20.2456 11.5828 21.4172C12.7544 22.5889 14.343 23.248 16 23.25C17.3924 23.25 18.7277 22.6969 19.7123 21.7123C20.6969 20.7277 21.25 19.3924 21.25 18C21.25 16.8728 20.8022 15.7918 20.0052 14.9948C19.2082 14.1978 18.1272 13.75 17 13.75C16.138 13.75 15.3114 14.0924 14.7019 14.7019C14.0924 15.3114 13.75 16.138 13.75 17C13.75 17.5967 13.9871 18.169 14.409 18.591C14.831 19.0129 15.4033 19.25 16 19.25C16.3315 19.25 16.6495 19.1183 16.8839 18.8839C17.1183 18.6495 17.25 18.3315 17.25 18C17.25 17.9337 17.2237 17.8701 17.1768 17.8232C17.1299 17.7763 17.0663 17.75 17 17.75C16.8011 17.75 16.6103 17.671 16.4697 17.5303C16.329 17.3897 16.25 17.1989 16.25 17C16.25 16.8011 16.329 16.6103 16.4697 16.4697C16.6103 16.329 16.8011 16.25 17 16.25C17.4641 16.25 17.9092 16.4344 18.2374 16.7626C18.5656 17.0908 18.75 17.5359 18.75 18C18.75 18.7293 18.4603 19.4288 17.9445 19.9445C17.4288 20.4603 16.7293 20.75 16 20.75C15.0054 20.75 14.0516 20.3549 13.3483 19.6517C12.6451 18.9484 12.25 17.9946 12.25 17C12.25 15.7402 12.7504 14.532 13.6412 13.6412C14.532 12.7504 15.7402 12.25 17 12.25C18.5244 12.252 19.9858 12.8584 21.0637 13.9363C22.1416 15.0142 22.748 16.4756 22.75 18C22.748 19.7896 22.0362 21.5053 20.7708 22.7708C19.5053 24.0362 17.7896 24.748 16 24.75C13.9453 24.7477 11.9754 23.9304 10.5225 22.4775C9.06957 21.0246 8.25232 19.0547 8.25 17C8.25265 14.6802 9.17537 12.4561 10.8157 10.8157C12.4561 9.17537 14.6802 8.25265 17 8.25C19.5849 8.25298 22.0632 9.28116 23.891 11.109C25.7188 12.9368 26.747 15.4151 26.75 18C26.7467 20.8501 25.613 23.5824 23.5977 25.5977C21.5824 27.613 18.8501 28.7467 16 28.75C12.8848 28.7464 9.89828 27.5072 7.69551 25.3045C5.49275 23.1017 4.25364 20.1152 4.25 17C4.25397 13.6197 5.59854 10.379 7.98877 7.98877C10.379 5.59854 13.6197 4.25397 17 4.25C20.6454 4.2543 24.1403 5.70434 26.718 8.28203C29.2957 10.8597 30.7457 14.3546 30.75 18Z" fill="#B56E46"/>
</svg>
