<svg width="32" height="32" viewBox="0 0 32 32" fill="none" xmlns="http://www.w3.org/2000/svg">
<path d="M22.5562 12C23.4206 11.4464 24.0825 10.6277 24.4426 9.6665C24.8027 8.70529 24.8418 7.65328 24.5539 6.668C24.2661 5.68272 23.6668 4.81719 22.8459 4.20102C22.0249 3.58484 21.0265 3.25118 20 3.25H11C9.97354 3.25118 8.97507 3.58484 8.15412 4.20102C7.33317 4.81719 6.73391 5.68272 6.44607 6.668C6.15822 7.65328 6.19729 8.70529 6.55742 9.6665C6.91755 10.6277 7.57936 11.4464 8.44375 12C7.75747 12.4394 7.19576 13.0479 6.81263 13.767C6.42949 14.4862 6.23781 15.2919 6.25601 16.1065C6.27422 16.9212 6.50169 17.7175 6.91657 18.4188C7.33145 19.1202 7.91978 19.703 8.625 20.1112C7.86416 20.6092 7.2457 21.2962 6.83019 22.105C6.41468 22.9138 6.21636 23.8167 6.25466 24.7252C6.29296 25.6337 6.56656 26.5167 7.04867 27.2876C7.53079 28.0586 8.20487 28.6911 9.00492 29.1233C9.80496 29.5554 10.7035 29.7724 11.6126 29.7529C12.5217 29.7334 13.4102 29.4781 14.1909 29.012C14.9717 28.5459 15.618 27.8851 16.0666 27.0941C16.5152 26.3032 16.7507 25.4093 16.75 24.5V19.46C17.2306 19.9174 17.8017 20.269 18.4265 20.4922C19.0513 20.7154 19.7159 20.8052 20.3776 20.7559C21.0392 20.7066 21.6832 20.5192 22.268 20.2059C22.8528 19.8925 23.3654 19.4601 23.7729 18.9365C24.1804 18.413 24.4737 17.8098 24.6339 17.166C24.7941 16.5222 24.8177 15.8519 24.7031 15.1984C24.5884 14.5449 24.3382 13.9227 23.9684 13.3718C23.5987 12.8209 23.1176 12.3536 22.5562 12ZM23.25 8C23.25 8.86195 22.9076 9.6886 22.2981 10.2981C21.6886 10.9076 20.862 11.25 20 11.25H16.75V4.75H20C20.862 4.75 21.6886 5.09241 22.2981 5.7019C22.9076 6.3114 23.25 7.13805 23.25 8ZM7.75 8C7.75 7.13805 8.09241 6.3114 8.7019 5.7019C9.3114 5.09241 10.138 4.75 11 4.75H15.25V11.25H11C10.138 11.25 9.3114 10.9076 8.7019 10.2981C8.09241 9.6886 7.75 8.86195 7.75 8ZM11 19.25C10.138 19.25 9.3114 18.9076 8.7019 18.2981C8.09241 17.6886 7.75 16.862 7.75 16C7.75 15.138 8.09241 14.3114 8.7019 13.7019C9.3114 13.0924 10.138 12.75 11 12.75H15.25V19.25H11ZM15.25 24.5C15.25 25.2417 15.0301 25.9667 14.618 26.5834C14.206 27.2001 13.6203 27.6807 12.9351 27.9645C12.2498 28.2484 11.4958 28.3226 10.7684 28.1779C10.041 28.0332 9.3728 27.6761 8.84835 27.1517C8.3239 26.6272 7.96675 25.959 7.82205 25.2316C7.67736 24.5042 7.75162 23.7502 8.03545 23.0649C8.31928 22.3797 8.79993 21.794 9.41661 21.382C10.0333 20.9699 10.7583 20.75 11.5 20.75H15.25V24.5ZM20 19.25C19.3572 19.25 18.7289 19.0594 18.1944 18.7023C17.6599 18.3452 17.2434 17.8376 16.9974 17.2437C16.7514 16.6499 16.687 15.9964 16.8124 15.366C16.9378 14.7355 17.2474 14.1564 17.7019 13.7019C18.1564 13.2474 18.7355 12.9378 19.366 12.8124C19.9964 12.687 20.6499 12.7514 21.2437 12.9974C21.8376 13.2434 22.3452 13.6599 22.7023 14.1944C23.0594 14.7289 23.25 15.3572 23.25 16C23.25 16.862 22.9076 17.6886 22.2981 18.2981C21.6886 18.9076 20.862 19.25 20 19.25Z" fill="#B56E46"/>
</svg>
