<svg width="148" height="108" viewBox="0 0 148 108" fill="none" xmlns="http://www.w3.org/2000/svg">
<path d="M81.86 55.3085H81.8239V55.2724L79.1558 52.6043L79.1198 52.5322L79.0477 52.4962L78.0742 51.5227L76.2354 53.3976L76.1993 53.4336L75.8388 53.7581L75.6585 53.9384L75.2979 54.335L75.2258 54.371L71.6203 57.9766H69.6373L70.4666 57.1473L71.404 56.2459L71.44 56.1738L72.4135 55.2364L74.2523 53.3976L74.2884 53.3254L75.2258 52.388L77.1007 50.5492L74.2884 47.7369L68.5917 53.4336L68.0509 53.9384L67.7985 54.2268L66.6808 55.3445L66.4284 55.5609L65.3828 56.6425L62.7508 59.2745H64.5896L65.0222 58.8058L74.2884 49.5397L75.2979 50.5492L74.3244 51.4866L73.387 52.4241L73.351 52.4962L71.8727 53.9384L71.8006 54.0105L71.7645 54.0826L71.4761 54.335L66.5726 59.2745H72.1611L72.3414 59.0943L76.1272 55.2724L76.1993 55.2364L77.1367 54.2989L78.0742 53.3254L80.9946 56.2459L81.1389 56.4262L81.211 56.4622L82.7253 57.9766H77.2449L78.9756 56.2459L78.0742 55.3445L74.1442 59.2745H74.5047H85.826L81.86 55.3085Z" fill="white"/>
<path d="M136.88 54.3711C136.88 54.335 136.88 54.2989 136.88 54.2629C136.88 54.2268 136.88 54.1908 136.88 54.1547L137.024 54.0826C136.988 53.9745 136.916 53.8663 136.88 53.7581C136.483 28.9522 108.613 8.8335 74.3965 8.8335C40.1803 8.79745 12.3097 28.9162 11.9491 53.7221C11.9131 53.8302 11.841 53.9384 11.8049 54.0466L11.9491 54.1187C11.9491 54.1547 11.9491 54.1908 11.9491 54.2629C11.9491 54.2989 11.9491 54.335 11.9491 54.3711L11.8049 54.4432C11.841 54.5513 11.9131 54.6595 11.9491 54.7677C12.3457 79.5736 40.2163 99.6923 74.4326 99.6923C108.649 99.6923 136.519 79.5736 136.916 54.7677C136.952 54.6595 137.024 54.5513 137.06 54.4432L136.88 54.3711ZM119.465 53.8663C119.393 45.5376 117.05 37.7136 113.012 31.0434C123.504 36.632 131.688 44.492 136.123 53.8663H119.465ZM49.5185 80.5831C50.2396 81.6287 50.9607 82.6743 51.754 83.6838C50.2036 83.2512 48.6532 82.8185 47.1749 82.3137C47.9321 81.7008 48.7253 81.1239 49.5185 80.5831ZM46.3457 82.0253C43.8579 81.16 41.4422 80.1865 39.0986 79.1048C41.334 76.617 43.2089 74.0211 44.7232 71.2809C45.877 74.3456 47.3552 77.23 49.1219 79.9702C48.1845 80.6192 47.2471 81.3042 46.3457 82.0253ZM95.8854 83.9723C89.2152 85.6308 82.1123 86.5682 74.7931 86.5682V72.9394C83.4103 73.0115 91.6669 75.5354 98.7337 80.1504C97.8323 81.4845 96.8589 82.7464 95.8854 83.9723ZM99.2746 80.5831C100.068 81.1239 100.861 81.7008 101.618 82.3137C100.104 82.8185 98.5895 83.2872 97.0391 83.6838C97.8324 82.6743 98.5895 81.6287 99.2746 80.5831ZM74.036 98.5746C65.9596 95.8344 59.0371 91.0391 53.7009 84.8736C60.1548 86.424 66.9692 87.2533 74.036 87.2893V98.5746ZM74.7571 87.2893C81.8239 87.2533 88.6383 86.424 95.0922 84.8736C89.7921 91.003 82.8334 95.7983 74.7571 98.5746V87.2893ZM74.036 86.5682C66.6807 86.5322 59.5779 85.6308 52.9438 83.9723C51.9342 82.7464 50.9968 81.4845 50.1315 80.1865C57.1983 75.5354 65.4188 73.0476 74.072 72.9755V86.5682H74.036ZM52.5111 84.6213C57.5228 90.6785 64.0848 95.5099 71.7285 98.5385C60.6235 97.8895 50.6362 93.1303 43.2089 85.775C44.2545 84.7294 45.3361 83.7559 46.4899 82.8546C48.4729 83.5036 50.456 84.0804 52.5111 84.6213ZM96.282 84.6213C98.3371 84.0804 100.356 83.5036 102.303 82.8546C103.421 83.7559 104.539 84.7655 105.584 85.775C98.1568 93.1303 88.1335 97.8895 77.0646 98.5385C84.7083 95.5099 91.2703 90.6785 96.282 84.6213ZM106.089 85.2342C105.115 84.2968 104.142 83.3954 103.096 82.5301C105.548 81.6647 107.928 80.6913 110.199 79.6457C110.307 79.7538 110.416 79.862 110.524 79.9702C109.19 81.845 107.711 83.6117 106.089 85.2342ZM102.447 82.0253C101.546 81.3042 100.609 80.6192 99.6712 79.9702C101.438 77.23 102.88 74.3456 104.07 71.2809C105.584 74.0211 107.459 76.617 109.694 79.1048C107.387 80.1865 104.971 81.16 102.447 82.0253ZM99.0943 79.5736C91.8111 74.8143 83.3382 72.2544 74.4326 72.2544C65.527 72.2544 57.018 74.8143 49.7709 79.5736C47.9321 76.7252 46.4178 73.6605 45.228 70.4516C47.8961 65.3318 49.3022 59.8875 49.3022 54.2268C49.3022 48.6022 47.8961 43.1219 45.228 38.0021C46.4178 34.7932 47.9321 31.7285 49.7709 28.8801C57.0541 33.6394 65.527 36.1993 74.4326 36.1993C83.3382 36.1993 91.8472 33.6394 99.0943 28.8801C100.933 31.7285 102.447 34.7932 103.637 38.0021C100.969 43.1219 99.563 48.5662 99.563 54.2268C99.563 59.8514 100.969 65.3318 103.637 70.4516C102.447 73.6605 100.897 76.7252 99.0943 79.5736ZM48.545 54.5874C48.4729 59.7433 47.2471 64.791 44.8674 69.5142C43.2449 64.791 42.3796 59.7793 42.3436 54.5874H48.545ZM42.3075 53.8663C42.3436 48.6744 43.2449 43.6627 44.8674 38.9395C47.2471 43.6627 48.4729 48.6744 48.545 53.8663H42.3075ZM99.2746 27.9066C98.5535 26.861 97.8324 25.8154 97.0391 24.8059C98.5895 25.2386 100.14 25.6712 101.618 26.176C100.861 26.7889 100.104 27.3658 99.2746 27.9066ZM102.447 26.4644C104.935 27.3298 107.351 28.3032 109.694 29.3849C107.459 31.8727 105.584 34.4687 104.07 37.2088C102.916 34.1442 101.438 31.2598 99.6712 28.5196C100.645 27.8706 101.546 27.1855 102.447 26.4644ZM52.9438 24.5175C59.614 22.8589 66.7168 21.9215 74.036 21.9215V35.5503C65.4188 35.4782 57.1622 32.9543 50.0954 28.3393C50.9968 27.0053 51.9342 25.7433 52.9438 24.5175ZM49.5185 27.9066C48.7253 27.3658 47.9321 26.7889 47.1749 26.176C48.6893 25.6712 50.2036 25.2025 51.754 24.8059C50.9607 25.8154 50.2396 26.861 49.5185 27.9066ZM74.7571 9.8791C82.8334 12.6193 89.756 17.4146 95.0922 23.58C88.6383 22.0297 81.8239 21.2004 74.7571 21.1643V9.8791ZM74.036 21.1643C66.9692 21.2004 60.1548 22.0297 53.7009 23.58C59.001 17.4507 65.9596 12.6553 74.036 9.8791V21.1643ZM74.7571 21.8854C82.1123 21.9215 89.2152 22.8229 95.8493 24.4814C96.8589 25.7073 97.7963 26.9692 98.6616 28.2672C91.5948 32.9183 83.3743 35.4061 74.721 35.4782V21.8854H74.7571ZM96.282 23.8685C91.2703 17.8112 84.7083 12.9798 77.0646 9.95121C88.1696 10.6002 98.1568 15.3595 105.584 22.7147C104.539 23.7603 103.457 24.7338 102.303 25.6352C100.356 24.9862 98.3371 24.4093 96.282 23.8685ZM52.5111 23.8685C50.456 24.4093 48.4369 24.9862 46.4899 25.6352C45.3722 24.7338 44.2545 23.7242 43.2089 22.7147C50.6362 15.3595 60.6595 10.6002 71.7285 9.95121C64.1208 12.9798 57.5588 17.8112 52.5111 23.8685ZM42.7041 23.2195C43.6776 24.1569 44.6511 25.0583 45.6967 25.9236C43.245 26.7889 40.8653 27.7624 38.5938 28.808C38.4857 28.6998 38.3775 28.5917 38.3054 28.4835C39.6394 26.6447 41.1177 24.878 42.7041 23.2195ZM46.3457 26.4644C47.2471 27.1855 48.1845 27.8706 49.1219 28.5196C47.3552 31.2598 45.913 34.1442 44.7232 37.2088C43.2089 34.4687 41.334 31.8727 39.0986 29.3849C41.4422 28.3032 43.8579 27.3298 46.3457 26.4644ZM103.962 38.9755C105.584 43.6988 106.45 48.7104 106.522 53.9023H100.284C100.32 48.7104 101.582 43.6988 103.962 38.9755ZM100.284 54.5874H106.522C106.486 59.7793 105.584 64.791 103.962 69.5142C101.582 64.791 100.32 59.7793 100.284 54.5874ZM118.744 53.8663H107.207C107.171 48.3499 106.197 43.0498 104.394 38.0742C105.981 35.1537 107.964 32.3414 110.38 29.6733C110.848 29.8897 111.317 30.142 111.786 30.3584C116.148 37.1728 118.672 45.2491 118.744 53.8663ZM110.884 29.1325L110.92 29.0965C110.956 29.1325 110.956 29.1686 110.992 29.2046C110.956 29.1686 110.92 29.1686 110.884 29.1325ZM110.199 28.808C107.928 27.7264 105.548 26.7889 103.096 25.9236C104.106 25.0583 105.115 24.1569 106.089 23.2195C107.675 24.842 109.19 26.6087 110.524 28.4835C110.416 28.5917 110.307 28.6998 110.199 28.808ZM82.7253 9.91516C96.2099 11.2492 108.324 15.72 117.591 22.282C115.175 24.0487 112.975 25.9597 111.029 27.9427C104.358 18.7486 94.335 12.1145 82.7253 9.91516ZM37.8006 27.9787C35.8537 25.9597 33.6543 24.0848 31.2386 22.3181C40.5048 15.7561 52.6193 11.2492 66.1039 9.95121C54.4941 12.1145 44.4348 18.7486 37.8006 27.9787ZM37.9088 29.1325C37.8727 29.1325 37.8367 29.1686 37.8006 29.1686C37.8367 29.1325 37.8367 29.0965 37.8727 29.0604C37.9088 29.1325 37.9088 29.1325 37.9088 29.1325ZM38.4136 29.7094C40.8293 32.3414 42.8123 35.1537 44.3987 38.1102C42.596 43.0858 41.6225 48.3859 41.5864 53.9023H30.0488C30.1209 45.2491 32.6808 37.2088 37.0074 30.4305C37.4761 30.1421 37.9449 29.9257 38.4136 29.7094ZM29.3277 53.8663H12.6702C17.105 44.492 25.2895 36.5959 35.7815 31.0434C31.7434 37.7136 29.3998 45.5376 29.3277 53.8663ZM29.3277 54.5874C29.3998 62.9161 31.7434 70.7401 35.7815 77.4102C25.2895 71.8217 17.105 63.9617 12.6702 54.5874H29.3277ZM30.0488 54.5874H41.5864C41.6225 60.1038 42.596 65.4039 44.3987 70.3795C42.8123 73.3 40.8293 76.1123 38.4136 78.7803C37.9449 78.564 37.4761 78.3116 37.0074 78.0953C32.6808 71.2809 30.1209 63.2406 30.0488 54.5874ZM37.9088 79.3212L37.8727 79.3572C37.8367 79.3212 37.8367 79.2851 37.8006 79.2491C37.8367 79.2851 37.8727 79.3212 37.9088 79.3212ZM38.5938 79.6457C40.8653 80.7273 43.245 81.6647 45.6967 82.5301C44.6872 83.3954 43.6776 84.2968 42.7041 85.2342C41.1177 83.6117 39.6034 81.845 38.2693 79.9702C38.4136 79.862 38.5217 79.7538 38.5938 79.6457ZM66.1039 98.5385C52.6193 97.2045 40.5048 92.7337 31.2386 86.1716C33.6543 84.4049 35.8537 82.494 37.8006 80.511C44.4348 89.7411 54.4941 96.3752 66.1039 98.5385ZM111.029 80.511C112.975 82.494 115.175 84.4049 117.591 86.1716C108.324 92.7337 96.2099 97.2405 82.7253 98.5385C94.299 96.3752 104.358 89.7411 111.029 80.511ZM110.884 79.3212C110.92 79.3212 110.956 79.2851 110.992 79.2851C110.956 79.3212 110.956 79.3572 110.92 79.3933C110.92 79.3572 110.92 79.3572 110.884 79.3212ZM110.38 78.7803C107.964 76.1483 105.981 73.336 104.394 70.3795C106.197 65.4039 107.171 60.1038 107.207 54.5874H118.744C118.672 63.2406 116.112 71.2809 111.786 78.0592C111.317 78.3116 110.848 78.564 110.38 78.7803ZM119.465 54.5874H136.123C131.688 63.9617 123.504 71.8578 113.012 77.4102C117.086 70.7401 119.429 62.9522 119.465 54.5874ZM136.087 52.1356C131.291 42.9416 122.891 35.2619 112.29 29.8536C112.002 29.4209 111.714 28.9883 111.425 28.5917C113.444 26.5365 115.68 24.5896 118.167 22.7508C128.659 30.3584 135.366 40.7062 136.087 52.1356ZM30.6257 22.7508C33.1135 24.5896 35.3849 26.5365 37.368 28.5917C37.0795 29.0243 36.7911 29.4209 36.5026 29.8536C25.9025 35.2619 17.5016 42.9416 12.7063 52.1356C13.4634 40.7062 20.1697 30.3584 30.6257 22.7508ZM12.7063 56.3541C17.5016 65.5481 25.9025 73.2279 36.5026 78.6361C36.7911 79.0688 37.0795 79.5014 37.368 79.8981C35.3489 81.9532 33.1135 83.9002 30.6257 85.739C20.1697 78.1314 13.4634 67.7835 12.7063 56.3541ZM118.203 85.739C115.716 83.9002 113.444 81.9532 111.461 79.8981C111.75 79.4654 112.038 79.0688 112.326 78.6361C122.927 73.2279 131.328 65.5481 136.123 56.3541C135.366 67.7835 128.659 78.1314 118.203 85.739Z" fill="white"/>
<path d="M28.5345 91.3636C27.6692 90.7867 26.6236 91.0391 26.0106 91.9765C25.3977 92.914 25.578 93.9596 26.4433 94.5364C27.3447 95.1133 28.3903 94.8609 29.0032 93.9235C29.6161 92.9861 29.4359 91.9405 28.5345 91.3636ZM28.4263 93.563C27.9936 94.2119 27.3447 94.3922 26.8038 94.0317C26.2269 93.6711 26.1548 93.0221 26.5875 92.3371C27.0202 91.6881 27.6692 91.5078 28.21 91.8684C28.7508 92.2289 28.859 92.8779 28.4263 93.563Z" fill="white"/>
<path d="M30.4454 96.916L31.0223 97.2405L31.7434 95.9065L32.9692 96.5555L33.2216 96.0507L32.0318 95.4017L32.5005 94.5364L33.9427 95.2935L34.2312 94.7888L32.2481 93.7071L30.4454 96.916Z" fill="white"/>
<path d="M39.0626 97.7453L40.0721 98.178L38.8823 101.026L39.4952 101.279L40.649 98.4304L41.6586 98.827L41.8749 98.2862L39.315 97.2045L39.0626 97.7453Z" fill="white"/>
<path d="M45.877 101.315L44.3266 100.81L44.8314 99.3678L44.2184 99.1515L43.0286 102.649L43.6416 102.865L44.1463 101.387L45.6967 101.892L45.1919 103.37L45.8049 103.586L46.9947 100.089L46.3817 99.8726L45.877 101.315Z" fill="white"/>
<path d="M48.7253 104.451L50.9247 105.028L51.0689 104.451L49.4825 104.055L49.7349 103.081L51.1771 103.478L51.3213 102.937L49.8791 102.541L50.1315 101.639L51.7179 102.036L51.8982 101.495L49.6628 100.882L48.7253 104.451Z" fill="white"/>
<path d="M59.0731 102.973L57.8112 102.757L57.1982 106.399L58.4962 106.615C59.5418 106.795 60.4072 106.182 60.5874 105.101C60.7677 104.019 60.1548 103.154 59.0731 102.973ZM59.9384 104.992C59.8303 105.75 59.2894 106.146 58.5683 106.038L57.9554 105.93L58.352 103.478L58.9289 103.586C59.6861 103.658 60.0466 104.235 59.9384 104.992Z" fill="white"/>
<path d="M63.4755 103.604L63.0629 107.258L63.7078 107.331L64.1204 103.676L63.4755 103.604Z" fill="white"/>
<path d="M68.4835 104.596C68.9162 104.632 69.2767 104.848 69.3849 105.281L70.0699 105.317C69.9978 104.56 69.3849 104.019 68.5556 103.983C67.4379 103.911 66.6808 104.668 66.6087 105.786C66.5365 106.903 67.2216 107.733 68.2311 107.769C68.7359 107.805 69.1686 107.624 69.3849 107.372V107.805L69.9257 107.841L70.0699 105.786L68.3393 105.677L68.3032 106.254L69.421 106.326C69.3849 106.903 68.9883 107.228 68.3393 107.192C67.6543 107.156 67.2216 106.687 67.2577 105.858C67.2937 105.028 67.7624 104.524 68.4835 104.596Z" fill="white"/>
<path d="M72.8672 104.235L72.8191 107.912L73.4681 107.921L73.5162 104.243L72.8672 104.235Z" fill="white"/>
<path d="M78.7952 104.127L75.983 104.235L76.019 104.812L77.1007 104.776L77.1728 107.877L77.8218 107.841L77.7496 104.776L78.7952 104.74V104.127Z" fill="white"/>
<path d="M81.932 103.911L80.9225 107.696L81.6075 107.624L81.8239 106.759L83.194 106.651L83.5545 107.48L84.2396 107.408L82.6171 103.839L81.932 103.911ZM81.9681 106.218L82.2926 104.992C82.3286 104.884 82.3286 104.776 82.3647 104.704C82.3647 104.776 82.4368 104.884 82.4729 104.992L82.9776 106.146L81.9681 106.218Z" fill="white"/>
<path d="M87.4485 106.435L87.0158 103.37L86.3668 103.478L86.8716 107.12L89.0349 106.831L88.9628 106.218L87.4485 106.435Z" fill="white"/>
<path d="M97.2555 101.387L96.7868 104.524L94.9479 101.964L94.335 102.108L95.2003 105.713L95.8133 105.569L95.4888 104.271C95.3806 103.839 95.3085 103.478 95.2003 103.262L96.6786 105.317L97.2555 105.173L97.616 102.649C97.6521 102.901 97.6881 103.118 97.8684 103.839L98.1208 104.956L98.7337 104.812L97.8684 101.243L97.2555 101.387Z" fill="white"/>
<path d="M102.087 103.226L101.798 102.288L103.205 101.856L103.024 101.315L101.618 101.747L101.33 100.846L102.916 100.341L102.736 99.8005L100.536 100.486L101.654 103.983L103.854 103.298L103.673 102.757L102.087 103.226Z" fill="white"/>
<path d="M106.486 98.4304L105.296 98.8991L106.63 102.324L107.856 101.856C108.865 101.459 109.262 100.486 108.865 99.476C108.469 98.4664 107.495 98.0338 106.486 98.4304ZM107.567 101.315L106.99 101.531L106.089 99.1875L106.63 98.9712C107.351 98.6828 107.928 98.9712 108.216 99.6923C108.505 100.449 108.252 101.062 107.567 101.315Z" fill="white"/>
<path d="M111.159 96.4405L110.569 96.7108L112.101 100.054L112.691 99.7838L111.159 96.4405Z" fill="white"/>
<path d="M116.257 93.8874L115.68 94.1758L116.761 96.1949C117.014 96.6636 116.905 97.0602 116.437 97.3126C115.968 97.565 115.571 97.4208 115.319 96.952L114.237 94.933L113.661 95.2214L114.778 97.2765C115.175 98.0337 115.932 98.25 116.725 97.8174C117.518 97.3847 117.771 96.6636 117.338 95.8704L116.257 93.8874Z" fill="white"/>
<path d="M121.16 90.8227L121.773 93.9234L119.177 92.1207L118.636 92.4452L120.655 95.5459L121.196 95.2214L120.475 94.1037C120.223 93.7071 120.042 93.4187 119.862 93.2745L121.917 94.7527L122.422 94.4282L121.917 91.9404C122.025 92.1928 122.134 92.3731 122.566 92.986L123.179 93.9234L123.72 93.5989L121.701 90.4982L121.16 90.8227Z" fill="white"/>
<path d="M30.4815 15.1792L29.7243 11.3213L29.1474 11.6819L29.5801 13.9173C29.6161 14.0976 29.6522 14.3499 29.7604 14.6744C29.544 14.4581 29.3637 14.3139 29.1835 14.1697L27.3807 12.7635L26.8038 13.1241L29.9046 15.5398L30.4815 15.1792Z" fill="white"/>
<path d="M32.725 9.71219L32.1498 10.0129L33.8537 13.272L34.4288 12.9713L32.725 9.71219Z" fill="white"/>
<path d="M36.9714 9.95122L37.5483 9.84305C37.8367 9.77094 38.017 9.84305 38.1251 10.0954C38.2694 10.3839 38.0891 10.6723 37.6925 10.8526C37.3319 11.0329 37.0074 10.9608 36.8632 10.6723L36.2863 10.9247C36.5748 11.5376 37.2238 11.6819 37.9449 11.3574C38.702 11.0329 38.9905 10.3839 38.702 9.77094C38.4857 9.26617 38.053 9.08589 37.4401 9.23011L36.8632 9.33828C36.5387 9.41039 36.3584 9.33828 36.2503 9.08589C36.1061 8.79745 36.2863 8.50901 36.6469 8.36479C36.9714 8.22057 37.2598 8.29268 37.404 8.58112L37.9809 8.32874C37.6925 7.7158 37.0796 7.53552 36.3945 7.86002C35.6734 8.18452 35.385 8.79745 35.6373 9.41039C35.9258 9.91516 36.3584 10.0954 36.9714 9.95122Z" fill="white"/>
<path d="M40.8188 6.06735L40.2141 6.30286L41.5487 9.72967L42.1534 9.49415L40.8188 6.06735Z" fill="white"/>
<path d="M46.3457 8.1124C47.3552 7.78791 47.8239 6.81442 47.4634 5.73277C47.1028 4.65112 46.1654 4.14635 45.1559 4.47084C44.1463 4.79534 43.7137 5.76882 44.0382 6.85048C44.3987 7.89607 45.3361 8.4369 46.3457 8.1124ZM45.3722 5.04772C46.0212 4.83139 46.5981 5.19194 46.8144 5.91305C47.0668 6.6702 46.8144 7.28314 46.1654 7.46341C45.5164 7.67974 44.9395 7.31919 44.7232 6.59809C44.4708 5.87699 44.7232 5.26405 45.3722 5.04772Z" fill="white"/>
<path d="M51.1771 6.63415L50.5281 4.07424L52.8717 6.20149L53.4846 6.05727L52.5833 2.45176L51.9703 2.63203L52.6193 5.15589L50.2757 3.02864L49.6628 3.20891L50.5642 6.77837L51.1771 6.63415Z" fill="white"/>
<path d="M56.7295 4.5069L58.0996 4.25451L58.5323 5.04772L59.2174 4.93956L57.2343 1.55038L56.5853 1.65855L55.9363 5.51644L56.5853 5.40827L56.7295 4.5069ZM57.018 2.66809C57.018 2.55992 57.0541 2.45176 57.0541 2.37965C57.0901 2.45176 57.1262 2.55992 57.1622 2.63203L57.8112 3.71369L56.8377 3.89396L57.018 2.66809Z" fill="white"/>
<path d="M62.282 4.47084L62.1017 3.10075L62.895 2.99258L63.6882 4.29057L64.3732 4.21846L63.5079 2.81231C63.9045 2.59598 64.1208 2.19937 64.0487 1.73066C63.9766 1.00956 63.4358 0.649004 62.6065 0.757169L61.2004 0.937445L61.633 4.61506L62.282 4.47084ZM62.6786 1.298C63.0752 1.26194 63.3637 1.44222 63.3997 1.80277C63.4358 2.16332 63.2195 2.4157 62.8228 2.45176L62.0657 2.55992L61.9215 1.40616L62.6786 1.298Z" fill="white"/>
<path d="M67.8345 3.93002L68.4835 3.89396L68.3753 2.45176L69.457 0.144233L68.7719 0.180289L68.123 1.55038C68.0509 1.65855 68.0508 1.73066 68.0148 1.83882C67.9787 1.76671 67.9427 1.65855 67.8706 1.58644L67.0413 0.288454L66.3202 0.324509L67.7263 2.48781L67.8345 3.93002Z" fill="white"/>
<path d="M77.1368 3.82185C78.0021 3.85791 78.6871 3.35313 78.8674 2.55992L78.1824 2.52387C78.0381 2.92047 77.6415 3.17286 77.1728 3.17286C76.4878 3.1368 76.0912 2.63203 76.0912 1.83882C76.1272 1.04561 76.5599 0.576894 77.2449 0.576894C77.7497 0.576894 78.1102 0.865335 78.2184 1.298L78.9035 1.33405C78.7953 0.540839 78.1463 1.31432e-05 77.281 1.31432e-05C76.1993 -0.0360419 75.4422 0.721115 75.4422 1.87488C75.3701 3.02864 76.0551 3.7858 77.1368 3.82185Z" fill="white"/>
<path d="M82.1845 2.63203L82.9777 2.70414L83.4825 4.14635L84.2036 4.21846L83.6267 2.63203C84.0593 2.48781 84.3478 2.16332 84.3838 1.65855C84.4559 0.937445 83.9872 0.468729 83.158 0.396619L81.7518 0.288454L81.4273 3.96607L82.0763 4.03818L82.1845 2.63203ZM82.3287 0.90139L83.0859 0.9735C83.4825 1.00956 83.6988 1.22589 83.6988 1.58644C83.6627 1.94699 83.4103 2.16332 83.0137 2.12726L82.2566 2.05515L82.3287 0.90139Z" fill="white"/>
<path d="M87.5206 3.74974L88.8907 3.96607L89.071 4.86745L89.756 4.97561L88.9628 1.08167L88.3138 1.00956L86.475 4.47084L87.124 4.57901L87.5206 3.74974ZM88.3859 2.12726C88.422 2.0191 88.4941 1.91093 88.4941 1.87488C88.4941 1.94699 88.4941 2.05515 88.5302 2.16332L88.7825 3.38919L87.8091 3.24497L88.3859 2.12726Z" fill="white"/>
<path d="M93.1452 4.03818L94.4793 4.32662L94.5874 3.74974L93.2534 3.4613L93.4697 2.48781L95.0562 2.81231L95.1643 2.23543L92.9289 1.76671L92.2078 5.37222L92.8207 5.51644L93.1452 4.03818Z" fill="white"/>
<path d="M97.6882 6.63415L98.3372 6.81442L99.1304 3.82185L100.14 4.07424L100.32 3.53341L97.58 2.81231L97.4358 3.38919L98.4814 3.64158L97.6882 6.63415Z" fill="white"/>
<path d="M102.772 8.18451C103.529 8.4369 104.178 8.18451 104.394 7.53552C104.575 6.9947 104.358 6.59809 103.818 6.2736L103.313 5.98516C103.024 5.80488 102.952 5.6246 103.024 5.37222C103.132 5.08378 103.421 4.97561 103.818 5.11983C104.178 5.228 104.322 5.48038 104.25 5.80488L104.863 6.02121C105.043 5.37222 104.719 4.83139 104.034 4.61506C103.313 4.36268 102.664 4.61506 102.447 5.228C102.267 5.76882 102.483 6.20149 103.024 6.52598L103.529 6.85048C103.781 6.9947 103.854 7.17497 103.781 7.42736C103.673 7.7158 103.385 7.82396 102.952 7.67974C102.556 7.53552 102.375 7.28314 102.483 6.9947L101.871 6.77837C101.654 7.3913 102.015 7.96818 102.772 8.18451Z" fill="white"/>
<path d="M107.603 8.4369C107.784 8.00424 107.892 7.67975 107.964 7.46342L107.928 9.98727L108.469 10.2036L110.235 8.36479C110.091 8.58112 110.019 8.79745 109.731 9.4825L109.298 10.5281L109.875 10.7805L111.281 7.35525L110.704 7.10286L108.505 9.37433V6.20149L107.928 5.9491L106.522 9.37433L107.099 9.62672L107.603 8.4369Z" fill="white"/>
<path d="M113.408 11.5376L114.634 12.1506L114.526 13.052L115.139 13.3764L115.608 9.4825L115.031 9.19406L112.182 11.8982L112.795 12.1866L113.408 11.5376ZM114.742 10.2397C114.814 10.1675 114.886 10.0954 114.959 10.0233C114.923 10.0954 114.923 10.2036 114.886 10.3118L114.742 11.5737L113.841 11.141L114.742 10.2397Z" fill="white"/>
<path d="M119.213 12.6554L119.321 15.7921L119.862 16.1166L121.773 12.9798L121.232 12.6193L119.898 14.8547L119.754 11.754L119.213 11.3934L117.302 14.5663L117.843 14.8908L119.213 12.6554Z" fill="white"/>
<path d="M5.78372 50.1166L0.699951 60.9331L5.17078 54.4432L5.85583 57.3636L8.70418 50.5492L6.50482 53.9384L5.78372 50.1166Z" fill="white"/>
<path d="M142.216 50.1166L141.495 53.9384L139.296 50.5492L142.144 57.3636L142.829 54.4432L147.3 60.9331L142.216 50.1166Z" fill="white"/>
</svg>
