<svg width="304" height="392" viewBox="0 0 304 392" fill="none" xmlns="http://www.w3.org/2000/svg">
<path d="M129.854 97.1897C128.225 96.0457 126.691 94.8064 125.253 93.4241C119.165 99.8113 115.378 108.343 115.138 117.781H123.671C123.862 110.298 126.067 103.243 129.854 97.1897Z" fill="#070707"/>
<path d="M132.347 96.6654C137.955 100.193 144.378 102.147 151.137 102.29V82.1751C143.324 85.035 136.853 90.1829 132.347 96.6654Z" fill="#070707"/>
<path d="M146.008 82.4611C138.53 83.7004 131.82 87.18 126.547 92.1848C127.889 93.4718 129.327 94.6634 130.861 95.7121C134.648 90.1352 139.825 85.5593 146.008 82.4611Z" fill="#070707"/>
<path d="M152.959 82.2228V102.338C159.717 102.195 166.141 100.24 171.749 96.713C167.243 90.1829 160.772 85.035 152.959 82.2228Z" fill="#070707"/>
<path d="M160.436 119.831C160.341 119.688 160.245 119.545 160.101 119.449C160.005 119.354 159.861 119.259 159.765 119.163C159.669 119.068 159.526 119.02 159.382 118.973C159.142 118.877 158.903 118.83 158.615 118.83C158.184 118.83 157.752 118.973 157.417 119.211C157.369 119.211 157.369 119.259 157.369 119.259L157.321 119.306C157.273 119.354 157.225 119.402 157.177 119.449C157.129 119.497 157.081 119.545 157.033 119.592C156.985 119.64 156.985 119.688 156.937 119.735L153.869 122.786H159.67L159.622 122.834C159.67 122.834 159.67 122.786 159.717 122.786C159.909 122.691 160.053 122.548 160.197 122.452C160.341 122.309 160.484 122.119 160.58 121.928C160.724 121.642 160.82 121.308 160.82 120.975C160.82 120.927 160.82 120.832 160.82 120.784C160.724 120.45 160.58 120.117 160.436 119.831Z" fill="#070707"/>
<path d="M180.425 117.781H189.005C188.766 108.391 184.979 99.8113 178.891 93.4241C177.453 94.8064 175.919 96.0457 174.29 97.1897C178.076 103.243 180.281 110.298 180.425 117.781Z" fill="#070707"/>
<path d="M178.604 118.687C178.604 111.251 176.494 104.196 172.756 98.1907C166.62 102.052 159.478 104.149 152.048 104.149C144.618 104.149 137.476 102.099 131.34 98.1907C127.601 104.196 125.492 111.251 125.492 118.687C125.492 126.123 127.601 133.177 131.34 139.183C137.476 135.322 144.618 133.225 152.048 133.225C159.478 133.225 166.62 135.274 172.756 139.183C176.494 133.177 178.604 126.123 178.604 118.687ZM162.594 122.023C162.498 122.309 162.402 122.548 162.306 122.834C162.162 123.072 162.018 123.31 161.827 123.549C161.731 123.644 161.635 123.787 161.539 123.882C161.491 123.93 161.491 123.93 161.443 123.978C161.347 124.073 161.251 124.121 161.203 124.216C160.82 124.502 160.389 124.74 159.909 124.931H148.884L156.074 117.781C156.266 117.495 156.362 117.114 156.41 116.732C156.41 116.685 156.41 116.685 156.41 116.637C156.41 116.256 156.314 115.875 156.122 115.541C156.027 115.398 155.931 115.255 155.787 115.112C155.643 114.969 155.499 114.874 155.355 114.778C155.355 114.778 155.307 114.778 155.307 114.731C155.212 114.683 155.116 114.635 155.068 114.588C154.828 114.492 154.588 114.445 154.301 114.445C154.013 114.445 153.774 114.492 153.534 114.588C153.438 114.635 153.342 114.683 153.294 114.683L143.18 124.74H140.256L151.329 113.73C151.377 113.682 151.425 113.634 151.473 113.587C151.952 113.11 152.575 112.729 153.294 112.538H153.342C153.438 112.538 153.534 112.49 153.582 112.49C153.822 112.443 154.061 112.443 154.349 112.443C154.636 112.443 154.876 112.49 155.116 112.49C155.212 112.49 155.307 112.538 155.403 112.538C155.403 112.538 155.403 112.538 155.451 112.538C156.17 112.729 156.793 113.11 157.273 113.587C157.321 113.634 157.417 113.73 157.465 113.777C157.656 114.016 157.848 114.254 157.992 114.492C158.136 114.778 158.279 115.112 158.375 115.398C158.471 115.732 158.519 116.065 158.519 116.446C158.519 116.494 158.519 116.494 158.519 116.542C158.519 116.637 158.519 116.685 158.519 116.78C158.615 116.78 158.711 116.78 158.807 116.78C159.046 116.78 159.334 116.828 159.574 116.828C159.67 116.828 159.765 116.875 159.813 116.875C160.484 117.066 161.108 117.4 161.587 117.876L161.635 117.924C161.827 118.115 162.018 118.353 162.162 118.591C162.402 118.925 162.594 119.354 162.689 119.735C162.785 120.021 162.833 120.307 162.833 120.641C162.833 120.689 162.833 120.784 162.833 120.832C162.737 121.308 162.689 121.69 162.594 122.023Z" fill="#070707"/>
<path d="M123.671 119.592H115.091C115.33 128.982 119.117 137.562 125.205 143.949C126.643 142.567 128.177 141.328 129.806 140.184C126.067 134.13 123.862 127.076 123.671 119.592Z" fill="#070707"/>
<path d="M130.813 141.709C129.327 142.758 127.889 143.949 126.499 145.236C131.772 150.241 138.482 153.721 145.96 154.96C139.825 151.814 134.648 147.238 130.813 141.709Z" fill="#070707"/>
<path d="M151.137 155.151V135.036C144.378 135.179 137.955 137.133 132.347 140.661C136.853 147.191 143.324 152.339 151.137 155.151Z" fill="#070707"/>
<path d="M86.8092 173.216C87.0009 172.978 87.1447 172.739 87.3365 172.549C87.5282 172.31 87.5762 172.024 87.4803 171.643C87.0009 171.881 86.6175 172.215 86.4257 172.596C86.1861 172.978 85.9943 173.597 85.8505 174.455C86.0423 174.265 86.1861 174.074 86.3778 173.836C86.4737 173.693 86.6654 173.454 86.8092 173.216Z" fill="#070707"/>
<path d="M116.193 173.931C116.241 173.836 116.337 173.645 116.481 173.407C117.919 171.166 119.309 168.974 120.699 166.781C122.089 164.589 123.479 162.348 124.869 160.108C125.205 159.536 125.54 158.964 125.828 158.392C126.115 157.82 126.355 157.2 126.643 156.581C126.739 156.342 126.834 156.152 126.834 155.913C126.834 155.675 126.739 155.484 126.499 155.294C126.403 155.151 126.211 155.103 126.02 155.151C125.876 155.151 125.732 155.198 125.588 155.294C125.444 155.389 125.301 155.484 125.205 155.532C125.061 155.675 124.917 155.77 124.773 155.866C124.629 155.961 124.486 156.104 124.342 156.247C124.006 156.676 123.671 157.105 123.287 157.534C122.952 157.963 122.616 158.392 122.281 158.821C121.178 160.489 120.219 162.253 119.405 164.017C118.59 165.78 117.823 167.639 117.152 169.546C116.912 170.261 116.672 170.976 116.481 171.691C116.289 172.406 116.049 173.121 115.81 173.836C115.857 173.836 115.905 173.883 115.953 173.883C116.049 173.883 116.145 173.883 116.193 173.931Z" fill="#070707"/>
<path d="M104.161 205.438H100.71C99.1763 205.438 98.3135 206.248 98.3135 207.821V235.086C98.3135 236.659 99.1283 237.469 100.71 237.469H104.161C105.695 237.469 106.558 236.706 106.558 235.086V207.821C106.51 206.296 105.695 205.438 104.161 205.438Z" fill="#070707"/>
<path d="M104.785 272.36C104.257 272.265 103.73 272.169 103.203 272.074C102.675 275.029 102.196 278.032 101.669 280.987C102.196 281.083 102.771 281.178 103.299 281.273C103.778 281.369 104.018 281.178 104.114 280.701C104.545 278.175 104.928 275.649 105.36 273.123C105.408 272.741 105.216 272.455 104.785 272.36Z" fill="#070707"/>
<path d="M65.9577 205.628H60.4932V237.278H65.9577C67.4916 237.278 68.3545 236.516 68.3545 234.895V208.012C68.3545 206.439 67.4916 205.628 65.9577 205.628Z" fill="#070707"/>
<path d="M50.7625 165.447L50.6667 165.542H50.7146C50.7625 165.494 50.7625 165.494 50.7625 165.447Z" fill="#070707"/>
<path d="M171.749 140.708C166.141 137.181 159.717 135.227 152.959 135.084V155.198C160.772 152.339 167.243 147.191 171.749 140.708Z" fill="#070707"/>
<path d="M51.1939 187.373C51.2419 187.325 51.2419 187.325 51.2419 187.277C51.2419 187.23 51.2898 187.23 51.2898 187.182C51.2419 187.23 51.2419 187.23 51.1939 187.23C51.2419 187.325 51.1939 187.373 51.1939 187.373Z" fill="#070707"/>
<path d="M99.2722 180.223C99.7994 179.555 100.231 178.697 100.518 177.744C100.614 177.506 100.662 177.267 100.614 176.934C100.566 176.41 100.375 176.171 100.039 176.219C99.8953 176.219 99.7515 176.314 99.5598 176.457C98.0259 177.839 97.211 179.651 97.1151 181.796C97.9779 181.462 98.697 180.89 99.2722 180.223Z" fill="#070707"/>
<path d="M174.29 140.184C175.919 141.328 177.453 142.567 178.891 143.949C184.979 137.562 188.766 129.03 189.005 119.592H180.425C180.281 127.076 178.076 134.13 174.29 140.184Z" fill="#070707"/>
<path d="M88.8225 169.784C89.0142 169.593 89.158 169.403 89.3497 169.117C90.1646 167.448 91.0274 165.78 91.8423 164.16C92.6572 162.539 93.4721 160.871 94.287 159.202C94.3828 159.012 94.4787 158.821 94.5266 158.583C94.5746 158.344 94.6225 158.154 94.6704 157.915C94.239 158.154 93.9035 158.487 93.6159 158.821C93.3283 159.202 93.1366 159.584 92.8969 159.965C92.0341 161.49 91.1712 163.063 90.4043 164.589C89.5894 166.114 88.7745 167.687 87.9117 169.212C87.8638 169.355 87.8158 169.498 87.8158 169.593C87.8158 169.736 87.7679 169.832 87.72 169.927C87.9117 170.022 88.1034 170.07 88.2952 170.022C88.5348 170.07 88.6787 169.975 88.8225 169.784Z" fill="#070707"/>
<path d="M85.7546 174.551C85.7067 174.598 85.7067 174.598 85.6588 174.598V174.694C85.6588 174.694 85.7067 174.646 85.7546 174.551Z" fill="#070707"/>
<path d="M173.283 95.6644C174.769 94.6158 176.207 93.4241 177.597 92.1372C172.324 87.1323 165.613 83.6527 158.136 82.4134C164.319 85.5593 169.496 90.1352 173.283 95.6644Z" fill="#070707"/>
<path d="M214.411 177.744C212.973 179.126 211.63 180.509 210.336 181.939C209.042 183.369 207.796 184.894 206.645 186.515C205.83 187.754 204.968 188.993 204.201 190.28C203.386 191.519 202.715 192.854 202.091 194.236C201.9 194.665 201.708 195.142 201.564 195.619C201.42 196.095 201.324 196.572 201.277 197.049C201.229 197.335 201.277 197.573 201.325 197.811H205.207C205.255 197.811 205.351 197.811 205.399 197.811C205.878 197.43 206.358 197.001 206.741 196.524C207.22 195.952 207.652 195.333 208.035 194.713C211.055 189.613 213.404 184.227 214.938 178.65C214.986 178.459 214.986 178.268 215.034 178.078C215.034 177.887 215.13 177.601 215.178 177.268C214.938 177.41 214.794 177.554 214.698 177.601C214.602 177.649 214.506 177.696 214.411 177.744Z" fill="#070707"/>
<path d="M181.815 274.696C181.24 274.743 180.665 274.791 180.09 274.886C180.233 276.364 180.377 277.889 180.521 279.367C181.096 279.319 181.671 279.271 182.247 279.176C182.678 279.128 182.918 278.89 182.87 278.413C182.774 277.365 182.63 276.316 182.534 275.268C182.534 274.886 182.295 274.648 181.815 274.696Z" fill="#070707"/>
<path d="M159.765 154.436C160.053 154.388 160.293 154.388 160.532 154.483C167.051 152.958 172.899 149.717 177.597 145.284C176.255 143.997 174.817 142.805 173.283 141.757C169.496 147.286 164.319 151.862 158.136 154.96C158.519 154.912 158.855 154.817 159.238 154.769C159.334 154.579 159.526 154.483 159.765 154.436Z" fill="#070707"/>
<path d="M164.319 205.628H158.855V237.278H164.319C165.853 237.278 166.716 236.516 166.716 234.895V208.012C166.716 206.439 165.853 205.628 164.319 205.628Z" fill="#070707"/>
<path d="M213.308 168.783C212.589 169.069 211.918 169.546 211.199 170.213C210.48 170.88 209.857 171.643 209.282 172.406C208.706 173.216 208.275 174.026 207.939 174.932C207.604 175.79 207.46 176.6 207.508 177.315C207.844 177.029 208.131 176.791 208.419 176.553C208.706 176.362 208.946 176.124 209.138 175.838C210.624 174.026 212.11 172.167 213.548 170.261C213.692 170.07 213.74 169.975 213.835 169.879C213.883 169.784 213.931 169.689 213.931 169.593C213.931 169.498 213.883 169.355 213.787 169.26C213.644 169.117 213.5 168.974 213.308 168.783Z" fill="#070707"/>
<path d="M191.594 175.933C191.642 175.885 191.642 175.885 191.642 175.838C191.642 175.79 191.69 175.79 191.69 175.742C191.642 175.79 191.642 175.79 191.594 175.79C191.642 175.885 191.642 175.933 191.594 175.933Z" fill="#070707"/>
<path d="M235.646 164.207C235.693 164.112 235.789 163.921 235.933 163.683C237.371 161.443 238.761 159.25 240.151 157.057C241.541 154.865 242.932 152.625 244.322 150.384C244.657 149.812 244.993 149.24 245.28 148.668C245.568 148.049 245.808 147.477 246.095 146.857C246.191 146.619 246.287 146.428 246.287 146.19C246.287 145.951 246.191 145.761 245.951 145.57C245.856 145.427 245.664 145.379 245.472 145.427C245.328 145.427 245.184 145.475 245.041 145.57C244.897 145.665 244.753 145.761 244.657 145.808C244.513 145.951 244.37 146.047 244.226 146.142C244.082 146.237 243.938 146.38 243.794 146.523C243.459 146.952 243.123 147.381 242.74 147.81C242.404 148.239 242.069 148.668 241.733 149.097C240.631 150.766 239.672 152.529 238.857 154.293C238.042 156.056 237.275 157.915 236.604 159.822C236.365 160.537 236.125 161.252 235.933 161.967C235.741 162.682 235.502 163.397 235.262 164.112C235.31 164.112 235.358 164.16 235.406 164.16C235.55 164.16 235.598 164.16 235.646 164.207Z" fill="#070707"/>
<path d="M293.119 0H10.8811C4.88931 0 0 4.86187 0 10.82V284.276C0 292.046 2.54052 299.625 7.2381 305.869C22.2416 325.745 62.1709 368.215 142.221 390.665C148.597 392.477 155.355 392.477 161.731 390.665C241.781 368.167 281.711 325.745 296.714 305.821C301.412 299.577 303.952 291.998 303.952 284.229V10.82C304 4.86187 299.111 0 293.119 0ZM237.323 86.7986L240.343 102.624L249.355 88.7053L237.659 116.732L234.783 104.673L216.28 131.366L237.323 86.7986ZM115.378 46.8074C115.378 46.8074 117.248 56.4358 121.37 55.6731C124.965 55.0058 129.375 55.1488 130.19 52.2412C130.334 51.6216 130.382 50.3823 128.896 49.2383C128.752 49.143 128.608 49.0477 128.464 48.9523C128.416 48.9523 128.416 48.9047 128.368 48.9047C127.458 48.1897 126.834 47.1887 126.739 46.0447C126.451 43.5661 128.56 41.2782 131.436 40.9922C134.312 40.7539 136.805 42.6128 136.949 45.1391C137.044 46.2831 136.565 47.3794 135.846 48.2374C135.846 48.2374 135.846 48.2374 135.798 48.2374C135.606 48.428 135.415 48.6187 135.223 48.8093C134.887 49.286 134.6 50.001 134.887 51.0019C135.846 52.1936 138.003 54.2909 141.311 54.1479C145.864 53.9572 148.405 50.8589 148.309 45.9971C148.309 45.9971 148.165 42.8988 144.378 41.3735C146.823 38.7519 149.412 36.1303 152.048 33.5564C154.684 36.1303 157.225 38.7043 159.717 41.3735C155.883 42.8988 155.787 45.9971 155.787 45.9971C155.739 50.8589 158.279 53.9572 162.785 54.1479C166.093 54.2909 168.25 52.1936 169.208 51.0019C169.544 49.9533 169.208 49.2383 168.873 48.8093C168.681 48.6187 168.442 48.4757 168.298 48.2374H168.25C167.483 47.3794 167.051 46.2831 167.147 45.1391C167.291 42.6128 169.784 40.7539 172.66 40.9922C175.536 41.2305 177.645 43.5185 177.357 46.0447C177.214 47.1887 176.59 48.1897 175.728 48.9047C175.68 48.9047 175.68 48.9523 175.632 48.9523C175.488 49.0477 175.344 49.143 175.2 49.2383C173.666 50.3823 173.762 51.6216 173.906 52.2412C174.769 55.1488 179.131 55.0535 182.726 55.6731C186.848 56.4358 188.718 46.8074 188.718 46.8074C191.69 47.6654 199.12 46.8551 199.167 46.8551C194.614 51.7646 190.348 56.7694 186.273 61.9173C174.913 60.106 163.504 59.2004 152.048 59.2004C140.592 59.2004 129.135 60.106 117.823 61.9173C113.796 56.7694 109.482 51.7646 104.928 46.8551C104.976 46.8551 112.406 47.6654 115.378 46.8074ZM184.164 65.3492C182.966 66.8745 181.815 68.4475 180.665 70.0204C171.174 68.6858 161.635 68.0185 152.048 68.0185C142.509 68.0185 132.922 68.6858 123.431 70.0204C122.281 68.4475 121.13 66.9222 119.932 65.3492C119.884 64.6342 151.617 62.2033 152.048 62.9183C152.527 62.2033 184.212 64.6342 184.164 65.3492ZM63.7528 102.624L66.7726 86.7986L87.8158 131.318L69.3132 104.625L66.4371 116.685L54.7411 88.6576L63.7528 102.624ZM74.9215 171.977C74.6818 172.31 74.4421 172.644 74.1545 172.978C73.8669 173.311 73.6272 173.597 73.2917 173.883C73.1958 173.979 73.1 174.026 72.9082 174.074C72.7165 174.122 72.5727 174.074 72.4289 174.074C72.2851 174.026 72.1892 173.931 72.0933 173.788C71.9975 173.645 71.9016 173.55 71.8057 173.407C71.8537 173.168 71.9016 172.882 72.0454 172.549C72.1413 172.215 72.333 171.834 72.4768 171.5C72.6686 171.166 72.8603 170.88 73.052 170.594C73.2917 170.356 73.5314 170.213 73.771 170.165C74.0587 170.165 74.2983 170.213 74.4901 170.404C74.7297 170.594 74.8735 170.833 74.9694 171.119C75.1132 171.452 75.0653 171.738 74.9215 171.977ZM43.4286 194.808C43.4765 196.048 43.7162 197.192 44.0997 198.336C44.5311 199.432 45.1542 200.481 46.065 201.434C46.2088 201.577 46.3526 201.672 46.4964 201.815C46.6402 201.958 46.6402 202.196 46.4964 202.435C46.3046 202.721 45.9212 202.625 45.298 202.053C44.3393 201.1 43.6682 199.956 43.141 198.574C42.8054 197.573 42.5658 196.572 42.4699 195.571C42.374 194.57 42.374 193.569 42.422 192.52C42.5178 190.232 42.8534 187.992 43.3806 185.8C43.9079 183.607 44.579 181.462 45.3459 179.317C46.1129 177.268 46.8798 175.266 47.6947 173.264C48.5096 171.262 49.3245 169.26 50.0915 167.258C50.1873 166.972 50.2832 166.733 50.3311 166.447C50.3791 166.209 50.4749 165.923 50.5708 165.637C50.1394 166.304 49.708 166.972 49.2286 167.639C48.7493 168.306 48.3658 168.974 47.9344 169.689C46.5443 172.215 45.1542 174.789 43.7162 177.315C42.2781 179.841 40.936 182.415 39.498 184.942C38.5393 186.753 37.5326 188.517 36.4781 190.28C35.4715 191.996 34.369 193.712 33.1706 195.428C32.5954 196.238 32.0202 197.049 31.397 197.811C30.7739 198.574 30.1028 199.337 29.3838 200.004C29.0483 200.338 28.6648 200.624 28.2813 200.91C27.8978 201.196 27.5144 201.434 27.035 201.624C26.2681 201.958 25.549 202.006 24.878 201.624C24.2069 201.291 23.7755 200.671 23.5837 199.813C23.392 198.955 23.3441 198.145 23.392 197.335C23.4399 196.524 23.5358 195.714 23.6796 194.856C24.1589 192.33 24.7342 189.803 25.4532 187.373C26.1722 184.894 26.9391 182.463 27.754 179.984C28.2813 178.507 28.8086 177.029 29.3359 175.552C29.8631 174.074 30.4383 172.596 31.0136 171.071C31.1094 170.785 31.2532 170.499 31.3491 170.213C31.445 169.927 31.5888 169.641 31.7805 169.355C32.2119 168.64 32.7871 168.497 33.4582 168.926C33.7458 169.069 33.9376 169.355 33.9855 169.641C34.0334 169.975 33.9376 170.308 33.7458 170.642C33.5541 170.976 33.3144 171.309 33.0747 171.595C32.8351 171.929 32.5954 172.263 32.4516 172.596C31.6367 174.026 30.9177 175.456 30.3425 176.934C29.7673 178.411 29.1921 179.937 28.6648 181.462C28.0896 183.178 27.5144 184.894 27.035 186.61C26.5557 188.326 26.0284 190.042 25.549 191.758C25.3094 192.663 25.1176 193.617 24.9738 194.522C24.83 195.476 24.7342 196.381 24.5904 197.335C24.5424 197.716 24.5424 198.097 24.5904 198.479C24.6383 198.86 24.7342 199.194 24.83 199.575C25.0697 200.433 25.597 200.719 26.4598 200.433C26.7953 200.338 27.0829 200.195 27.3705 200.052C27.6582 199.909 27.9458 199.718 28.1375 199.48C28.7606 198.812 29.4317 198.145 30.0549 197.478C30.678 196.81 31.3012 196.095 31.8284 195.333C33.4582 193.14 34.9442 190.852 36.2863 188.517C37.6285 186.181 38.9707 183.798 40.3128 181.414C41.8467 178.65 43.3806 175.885 44.9625 173.168C46.4964 170.451 48.0303 167.687 49.6121 164.97C49.8038 164.589 50.0435 164.207 50.3311 163.826C50.6187 163.445 50.8584 163.111 51.146 162.73C51.3857 162.396 51.6733 162.11 51.9609 161.919C52.1526 161.776 52.3444 161.824 52.5361 161.919C52.7278 162.062 52.7758 162.253 52.7758 162.491C52.7278 162.73 52.6799 162.968 52.632 163.206C52.5361 163.445 52.4882 163.635 52.3923 163.874C51.6733 165.542 50.9543 167.21 50.2832 168.831C49.6121 170.499 48.8931 172.12 48.222 173.788C47.4551 175.695 46.736 177.601 46.065 179.508C45.3939 181.414 44.8666 183.369 44.3873 185.323C44.0038 186.896 43.7162 188.421 43.5244 189.946C43.4286 191.662 43.3806 193.235 43.4286 194.808ZM69.5049 262.255C68.2586 266.402 67.0123 270.549 65.766 274.648C65.7181 274.791 65.5743 274.886 65.4305 274.839C64.8073 274.648 64.2321 274.457 63.609 274.314C63.4172 274.267 63.3693 274.124 63.4172 273.981C64.7114 269.834 65.9577 265.734 67.252 261.588C67.2999 261.445 67.3958 261.349 67.5875 261.397C68.1627 261.588 68.7379 261.731 69.3132 261.921C69.457 261.969 69.5528 262.112 69.5049 262.255ZM76.1678 236.563C76.1678 242.092 73.1958 245.048 67.6355 245.048H53.3989C52.7278 245.048 52.4402 244.762 52.4402 244.094V198.765C52.4402 198.193 52.7278 197.811 53.3989 197.811H67.6355C73.1958 197.811 76.1678 200.814 76.1678 206.391V236.563ZM78.5166 278.175C79.5711 273.981 80.6257 269.786 81.6802 265.591C81.7282 265.448 81.824 265.353 82.0158 265.401C82.591 265.544 83.1183 265.687 83.6935 265.83C83.8373 265.877 83.9332 265.973 83.9332 266.116C84.2208 268.642 84.5084 271.168 84.8439 273.695C84.8918 273.695 84.8918 273.695 84.9398 273.695C85.467 271.407 86.0423 269.071 86.5695 266.783C86.6175 266.64 86.7133 266.545 86.9051 266.592C87.4803 266.735 88.0555 266.878 88.6786 266.974C88.8704 267.021 88.9183 267.117 88.8704 267.307C87.9117 271.502 86.953 275.744 85.9943 279.939C85.9464 280.082 85.8505 280.177 85.6588 280.129C85.0836 279.986 84.5084 279.843 83.9332 279.748C83.7893 279.7 83.6935 279.605 83.6455 279.462C83.31 276.936 82.9745 274.362 82.6389 271.836C82.591 271.836 82.591 271.836 82.543 271.836C81.9678 274.171 81.3926 276.459 80.8653 278.795C80.8174 278.938 80.7215 279.033 80.5298 278.985C79.9067 278.842 79.3314 278.699 78.7083 278.556C78.5645 278.461 78.4686 278.318 78.5166 278.175ZM88.9183 332.466L86.6654 320.74L79.9546 331.084L88.6307 310.349L90.7398 319.263L104.449 299.482L88.9183 332.466ZM107.661 273.075C107.229 275.935 106.798 278.747 106.319 281.607C106.079 283.18 105.072 283.895 103.395 283.609C101.956 283.371 100.566 283.132 99.1284 282.894C98.9366 282.846 98.8408 282.751 98.8887 282.56C99.6556 278.318 100.423 274.076 101.19 269.786C101.237 269.643 101.333 269.548 101.525 269.548C102.867 269.786 104.257 270.024 105.6 270.263C107.229 270.501 107.9 271.502 107.661 273.075ZM114.18 236.563C114.18 242.092 111.208 245.048 105.647 245.048H98.9846C93.4242 245.048 90.4522 242.092 90.4522 236.563V206.343C90.4522 200.814 93.4242 197.859 98.9846 197.859H105.647C111.208 197.859 114.18 200.814 114.18 206.343V236.563ZM126.403 283.99C126.259 285.563 125.301 286.326 123.623 286.183C122.952 286.135 122.281 286.04 121.61 285.992C119.932 285.802 119.117 284.896 119.309 283.323C119.692 279.748 120.076 276.221 120.507 272.646C120.507 272.455 120.699 272.312 120.891 272.36C121.418 272.408 121.993 272.455 122.52 272.551C122.712 272.551 122.856 272.741 122.808 272.932C122.472 276.316 122.089 279.748 121.753 283.132C121.705 283.561 121.945 283.847 122.377 283.895C122.664 283.943 123 283.943 123.287 283.99C123.767 284.038 124.006 283.847 124.054 283.371C124.39 279.986 124.677 276.554 125.013 273.17C125.013 272.98 125.205 272.837 125.396 272.884C125.924 272.932 126.451 272.98 126.978 273.027C127.17 273.027 127.314 273.218 127.314 273.409C127.026 276.84 126.691 280.415 126.403 283.99ZM126.02 182.415C125.396 183.13 124.773 183.845 124.15 184.465C123.527 185.132 123 185.704 122.52 186.181C122.281 186.419 121.945 186.705 121.61 187.039C121.226 187.325 120.843 187.611 120.459 187.849C120.028 188.088 119.644 188.278 119.165 188.469C118.734 188.66 118.302 188.755 117.967 188.803C117.152 188.85 116.433 188.66 115.81 188.231C115.138 187.754 114.659 187.087 114.371 186.133C114.084 185.418 113.94 184.656 113.844 183.941C113.796 183.178 113.748 182.463 113.796 181.653C113.796 181.224 113.844 180.795 113.892 180.366C113.94 179.937 113.988 179.508 113.988 179.079C113.988 179.031 113.988 178.983 113.988 178.888C113.94 178.84 113.892 178.745 113.844 178.602C113.7 178.745 113.605 178.888 113.509 178.983C113.413 179.079 113.317 179.222 113.221 179.365C112.358 180.413 111.495 181.462 110.633 182.511C109.77 183.559 108.907 184.608 107.996 185.609C107.804 185.8 107.613 186.038 107.325 186.324C107.038 186.61 106.75 186.896 106.366 187.182C106.031 187.468 105.695 187.706 105.36 187.945C105.024 188.183 104.737 188.326 104.449 188.374C103.826 188.517 103.395 188.469 103.059 188.183C102.723 187.897 102.628 187.468 102.771 186.848C102.867 186.324 103.059 185.752 103.347 185.132C102.915 185.514 102.436 185.895 102.004 186.229C101.285 186.753 100.566 187.182 99.8474 187.42C98.4093 187.897 97.2589 187.468 96.5399 186.086C96.3002 185.752 96.1564 185.371 96.0126 184.989C95.8688 184.608 95.6291 184.322 95.3415 184.036C95.2936 183.988 95.2457 183.941 95.2457 183.893C95.1019 184.131 95.006 184.322 94.8622 184.56C94.239 185.561 93.568 186.467 92.801 187.373C92.0341 188.278 91.2192 189.041 90.3564 189.756C89.4935 190.471 88.5828 190.947 87.6241 191.281C86.0902 191.71 84.796 191.329 83.7893 190.137C82.9745 189.136 82.4951 188.04 82.3513 186.801C82.1596 185.609 82.1596 184.465 82.3513 183.321C81.9678 183.655 81.5364 184.036 81.105 184.417C80.4819 184.989 79.8108 185.514 79.1397 186.086C78.4686 186.658 77.7496 187.182 77.0785 187.659C76.4074 188.135 75.7843 188.517 75.257 188.755C74.6818 189.041 74.0587 189.279 73.4834 189.518C72.9082 189.756 72.2851 189.899 71.614 189.994C70.5115 190.232 69.6487 190.042 68.9776 189.518C68.3065 188.993 67.923 188.231 67.923 187.325L67.8751 186.61L67.7793 186.562C67.8272 185.847 67.923 185.132 68.0189 184.465C67.8751 184.608 67.7313 184.799 67.5875 184.942C67.1561 185.466 66.6288 185.943 66.1495 186.419C65.6222 186.896 65.0949 187.277 64.5197 187.563C63.9445 187.897 63.3693 188.04 62.7461 188.088C61.9313 188.135 61.1164 187.992 60.3974 187.611C59.6304 187.23 59.0552 186.658 58.6238 185.943C58.48 185.657 58.2882 185.323 58.1444 184.989C58.0006 184.656 57.8568 184.322 57.6651 183.988C57.2816 183.988 56.9461 184.036 56.7064 184.227C56.4188 184.417 56.1791 184.608 55.9395 184.846C55.0766 185.514 54.3097 186.276 53.5427 187.039C52.8237 187.849 52.1047 188.66 51.4336 189.565C51.2898 189.756 51.1939 189.899 51.0501 190.089C50.9063 190.28 50.7625 190.423 50.6187 190.566C50.4749 190.661 50.2832 190.709 50.0915 190.757C49.8997 190.804 49.708 190.804 49.5642 190.709C49.4204 190.661 49.3245 190.566 49.1807 190.375C49.0848 190.185 48.989 190.042 48.941 189.899C48.8931 189.756 48.8452 189.613 48.8931 189.422C48.941 189.232 48.989 189.089 48.989 188.898C49.0848 188.421 49.2286 187.849 49.3724 187.134C49.5642 186.419 49.7559 185.704 49.9477 184.989C50.1873 184.274 50.427 183.559 50.7146 182.892C51.0022 182.225 51.2898 181.748 51.6733 181.414C51.865 181.224 52.0568 181.081 52.3444 181.081C52.5361 181.081 52.7278 181.081 52.8717 181.176C53.1113 181.271 53.2551 181.462 53.3989 181.653C53.5427 181.843 53.5427 182.082 53.4948 182.32C53.4469 182.558 53.351 182.749 53.2072 182.94C53.1113 183.13 52.9675 183.369 52.8717 183.559C52.584 184.179 52.3444 184.656 52.1526 185.037C51.9609 185.418 51.7212 185.895 51.4336 186.467C51.3857 186.562 51.3857 186.658 51.3857 186.753C51.3857 186.848 51.4336 186.944 51.4336 187.039C51.6254 186.896 51.8171 186.753 52.0088 186.562C52.2006 186.419 52.3923 186.229 52.584 186.086C53.1113 185.609 53.6865 185.085 54.2138 184.608C54.7411 184.131 55.3163 183.655 55.8915 183.178C56.1312 182.987 56.3709 182.844 56.7064 182.797C56.994 182.701 57.2816 182.606 57.5692 182.558C58.0965 182.415 58.48 182.654 58.7676 183.178C58.8635 183.416 58.9593 183.702 59.0552 183.941C59.1511 184.179 59.2469 184.465 59.3428 184.703C59.6304 185.466 60.0618 185.99 60.7329 186.324C61.404 186.658 62.0271 186.801 62.6982 186.705C63.0817 186.658 63.4172 186.61 63.7048 186.467C63.9924 186.324 64.28 186.133 64.6635 185.895C64.9991 185.657 65.3346 185.371 65.6701 185.037C66.0057 184.751 66.2933 184.417 66.5809 184.131C66.8685 183.845 67.1082 183.559 67.3478 183.321C67.4916 183.178 67.6354 183.035 67.7793 182.844C67.923 182.701 68.0669 182.558 68.2586 182.368C68.3545 181.653 68.4983 180.938 68.6421 180.175C68.69 179.937 68.7379 179.698 68.8338 179.508C68.9297 179.317 69.1214 179.174 69.3611 179.031C69.6966 178.888 70.0322 178.84 70.3198 178.983C70.6553 179.126 70.8471 179.317 70.9429 179.651C71.0388 179.889 71.0388 180.127 70.9429 180.366C70.8471 180.604 70.7512 180.795 70.6553 181.033C70.2239 181.843 69.8884 182.701 69.6966 183.559C69.5049 184.465 69.3611 185.371 69.3132 186.276C69.2652 187.134 69.457 187.754 69.8884 188.135C70.3677 188.517 71.0388 188.612 71.9016 188.469C72.6206 188.278 73.3396 188.088 74.0107 187.802C74.6818 187.516 75.3529 187.23 75.976 186.848C76.4074 186.61 76.9347 186.229 77.5579 185.8C78.181 185.323 78.7562 184.846 79.3794 184.322C80.0025 183.798 80.5777 183.273 81.153 182.797C81.7282 182.32 82.1596 181.891 82.543 181.51C82.591 181.462 82.591 181.462 82.6389 181.414C82.7827 180.795 82.9265 180.223 83.1183 179.603C83.4538 178.554 83.8373 177.458 84.2207 176.41C84.6522 175.361 85.0356 174.265 85.3712 173.216C85.467 172.978 85.5629 172.787 85.6109 172.549C85.7067 172.31 85.7547 172.072 85.8985 171.786C85.3232 171.881 84.796 171.977 84.2687 172.072C83.7893 172.167 83.2621 172.263 82.7827 172.358C82.1116 172.501 81.4885 172.692 80.8653 172.835C80.2422 173.025 79.5711 173.168 78.948 173.359C78.5166 173.454 78.1331 173.454 77.7975 173.359C77.462 173.216 77.2703 173.025 77.1744 172.692C77.0785 172.31 77.1744 171.977 77.4141 171.643C77.6537 171.309 77.9893 171.119 78.4686 171.023C78.7562 170.976 79.0438 170.928 79.3314 170.976C79.619 170.976 79.8587 170.976 80.1943 170.928C81.2009 170.833 82.1596 170.737 83.1183 170.594C84.077 170.499 85.0356 170.356 85.9943 170.261C86.2819 170.261 86.5216 170.118 86.6654 169.927C86.8092 169.736 86.953 169.546 87.0968 169.26C87.672 168.068 88.2472 166.876 88.7745 165.732C89.3018 164.589 89.877 163.397 90.5002 162.253C90.8836 161.538 91.315 160.823 91.6985 160.108C92.1299 159.393 92.5134 158.678 92.9448 157.963C93.0407 157.772 93.1845 157.582 93.3283 157.391C93.4721 157.2 93.6638 156.962 93.8556 156.771C94.0473 156.581 94.239 156.39 94.4308 156.199C94.6225 156.009 94.8143 155.866 95.006 155.77C95.1977 155.627 95.4374 155.532 95.6771 155.532C95.8688 155.532 96.0126 155.58 96.1564 155.723C96.2523 155.866 96.3482 156.009 96.3961 156.199C96.444 156.39 96.444 156.581 96.444 156.724C96.3961 157.153 96.2523 157.582 96.0126 158.058C95.1498 159.965 94.287 161.824 93.3762 163.683C92.4655 165.542 91.5547 167.401 90.6919 169.26C91.1233 169.212 91.5068 169.212 91.8903 169.164C92.2737 169.164 92.6093 169.117 92.9448 169.069C93.7597 168.974 94.5266 168.831 95.3415 168.735C96.1564 168.64 96.9713 168.545 97.7383 168.402C97.93 168.402 98.1697 168.402 98.3614 168.402C98.5531 168.402 98.6969 168.545 98.7449 168.831C98.7928 169.117 98.6969 169.307 98.4573 169.355C98.2655 169.403 98.0259 169.45 97.8341 169.498C96.6837 169.689 95.5333 169.879 94.3828 170.07C93.2803 170.261 92.1299 170.451 90.9316 170.642C90.5002 170.69 90.1167 170.833 89.877 171.023C89.5894 171.214 89.3977 171.5 89.2059 171.881C88.6307 173.025 88.0076 174.169 87.3844 175.313C86.7613 176.41 86.234 177.601 85.8505 178.84C85.6109 179.555 85.1315 179.841 84.4604 179.746C84.1728 179.698 83.9811 179.746 83.8852 179.841C83.7893 179.937 83.6935 180.08 83.6455 180.318C83.5976 180.509 83.5497 180.699 83.5017 180.89C83.5497 180.938 83.5976 180.938 83.5976 180.985C83.6455 181.081 83.6935 181.224 83.6455 181.367C83.6455 181.51 83.5976 181.653 83.5497 181.748C83.4538 181.939 83.31 182.082 83.1662 182.225C83.0703 182.654 83.0224 183.083 82.9745 183.512C82.8307 184.56 82.8786 185.657 83.0703 186.753C83.2621 187.849 83.6935 188.755 84.4125 189.518C85.1794 190.328 86.0902 190.566 87.1448 190.28C88.1514 189.994 89.0621 189.47 89.9249 188.803C90.7878 188.088 91.6027 187.325 92.3217 186.419C93.0407 185.514 93.7118 184.56 94.287 183.559C94.8622 182.558 95.3895 181.605 95.8209 180.747C96.0126 179.603 96.3482 178.65 96.7796 177.887C97.211 177.125 97.8341 176.314 98.5531 175.456C98.9846 174.98 99.4639 174.741 100.039 174.694C100.375 174.646 100.662 174.694 100.902 174.837C101.333 175.027 101.621 175.361 101.765 175.742C101.909 176.124 101.956 176.553 101.909 177.029C101.861 178.411 101.429 179.603 100.662 180.652C99.8953 181.7 98.9846 182.654 98.0259 183.512C97.8341 183.655 97.6424 183.798 97.4986 183.893C97.3548 183.988 97.2589 184.131 97.211 184.227C97.163 184.322 97.163 184.465 97.163 184.608C97.211 184.751 97.2589 184.942 97.4027 185.18C97.93 186.133 98.649 186.467 99.5118 186.181C100.039 185.99 100.518 185.704 100.902 185.418C102.244 184.56 103.347 183.559 104.305 182.511C104.88 181.891 105.408 181.224 105.983 180.556C106.271 180.127 106.606 179.698 106.894 179.317C107.517 178.554 107.996 177.887 108.428 177.411C108.571 177.315 108.715 177.125 109.003 176.886C109.243 176.648 109.53 176.41 109.818 176.219C110.105 176.028 110.393 175.838 110.681 175.647C110.968 175.456 111.208 175.361 111.4 175.361C111.783 175.313 112.167 175.456 112.502 175.647C112.694 175.742 112.838 175.933 112.981 176.076C113.125 176.267 113.125 176.457 113.125 176.696C113.029 177.22 112.742 177.553 112.262 177.696C112.119 177.744 112.023 177.744 111.879 177.744C111.735 177.744 111.639 177.744 111.543 177.792C111.256 177.887 110.968 177.982 110.681 178.078C110.393 178.173 110.153 178.268 109.962 178.459C108.715 179.508 107.661 180.699 106.75 181.939C105.839 183.178 105.024 184.56 104.353 186.038C104.305 186.133 104.257 186.229 104.257 186.372C104.209 186.515 104.161 186.705 104.114 186.896C104.401 186.753 104.641 186.658 104.833 186.61C105.024 186.562 105.168 186.467 105.312 186.372C105.647 186.086 106.031 185.8 106.366 185.514C106.702 185.228 107.038 184.942 107.373 184.608C108.571 183.416 109.674 182.177 110.728 180.938C111.783 179.651 112.79 178.364 113.844 177.077C114.132 176.743 114.324 176.362 114.467 175.981C114.611 175.599 114.707 175.17 114.851 174.741C116.145 169.26 118.206 164.017 120.939 159.059C121.178 158.63 121.514 158.106 121.801 157.629C122.137 157.105 122.52 156.628 122.904 156.152C123.287 155.675 123.719 155.246 124.198 154.865C124.677 154.483 125.157 154.197 125.684 154.007C126.259 153.768 126.787 153.816 127.266 154.15C127.697 154.483 127.889 154.96 127.841 155.58C127.841 156.056 127.697 156.485 127.506 156.914C127.17 157.582 126.786 158.249 126.451 158.916C126.067 159.584 125.732 160.251 125.301 160.871C123.767 163.254 122.233 165.637 120.699 168.02C119.165 170.404 117.631 172.787 116.097 175.17C115.714 175.838 115.426 176.553 115.282 177.268C114.995 178.507 114.851 179.698 114.851 180.938C114.851 182.177 114.899 183.369 115.091 184.608C115.186 185.085 115.33 185.514 115.522 185.943C115.714 186.372 116.001 186.753 116.385 187.087C117.056 187.563 117.727 187.706 118.494 187.563C118.973 187.42 119.405 187.277 119.836 187.039C120.267 186.801 120.651 186.562 121.034 186.276C121.61 185.847 122.233 185.275 122.952 184.608C123.623 183.941 124.294 183.226 124.965 182.511C125.636 181.796 126.259 181.081 126.882 180.366C127.506 179.651 128.033 179.031 128.56 178.507C128.752 178.316 128.896 178.125 129.087 177.935C129.279 177.744 129.423 177.553 129.663 177.363C129.711 177.315 129.758 177.315 129.806 177.315C129.902 177.315 129.95 177.315 129.998 177.363C130.046 177.41 130.094 177.458 130.094 177.553C130.094 177.649 130.094 177.696 130.046 177.744C129.902 178.03 129.758 178.268 129.567 178.411C129.135 178.888 128.608 179.46 128.033 180.175C127.266 180.985 126.643 181.7 126.02 182.415ZM136.517 244.142C136.517 244.714 136.182 245.095 135.559 245.095H129.423C128.752 245.095 128.464 244.762 128.464 244.142V198.765C128.464 198.193 128.752 197.811 129.423 197.811H135.606C136.182 197.811 136.565 198.145 136.565 198.765V244.142H136.517ZM146.631 278.175C146.631 278.366 146.535 278.461 146.344 278.461C145.721 278.461 145.145 278.413 144.522 278.413C144.331 278.413 144.235 278.318 144.235 278.127C144.235 277.698 144.235 277.269 144.283 276.793C144.283 276.364 144.091 276.125 143.611 276.078C143.324 276.078 143.036 276.078 142.797 276.03C142.365 276.03 142.078 276.221 142.078 276.697C142.03 277.46 142.03 278.27 141.982 279.033C143.372 279.51 144.714 279.986 146.104 280.463C146.392 280.606 146.535 280.797 146.535 281.083C146.488 282.37 146.488 283.657 146.44 284.991C146.392 286.564 145.481 287.422 143.803 287.375C143.132 287.375 142.461 287.327 141.79 287.327C140.112 287.279 139.249 286.374 139.297 284.801C139.345 284.229 139.345 283.609 139.393 283.037C139.393 282.846 139.489 282.751 139.681 282.799C140.304 282.846 140.927 282.846 141.502 282.846C141.694 282.846 141.79 282.942 141.79 283.132C141.79 283.561 141.742 283.99 141.742 284.419C141.742 284.896 141.982 285.087 142.413 285.134C142.701 285.134 142.988 285.134 143.276 285.182C143.755 285.182 143.995 284.991 143.995 284.515C143.995 283.752 144.043 283.037 144.043 282.274C142.653 281.798 141.263 281.321 139.921 280.797C139.633 280.701 139.441 280.463 139.489 280.177C139.537 278.842 139.585 277.508 139.681 276.221C139.729 274.648 140.64 273.838 142.269 273.885C142.892 273.885 143.564 273.933 144.187 273.933C145.816 273.981 146.631 274.839 146.631 276.411C146.679 276.983 146.631 277.555 146.631 278.175ZM149.316 181.605C148.836 182.797 148.357 184.036 147.926 185.18C147.494 186.372 147.159 187.611 146.919 188.85C146.871 189.089 146.823 189.327 146.871 189.565C146.871 189.803 146.871 190.042 146.871 190.28C146.871 190.375 146.775 190.471 146.679 190.566C146.583 190.661 146.44 190.757 146.344 190.852C146.248 190.757 146.152 190.661 146.056 190.614C145.96 190.518 145.912 190.471 145.912 190.375C145.864 189.708 145.864 189.089 145.912 188.517C146.056 187.516 146.296 186.515 146.631 185.561C146.967 184.608 147.302 183.655 147.686 182.701C147.782 182.463 147.926 182.177 148.021 181.939C148.117 181.653 148.213 181.367 148.309 181.081C147.878 180.938 147.542 180.842 147.302 180.795C146.871 180.699 146.488 180.652 146.104 180.604C145.721 180.556 145.289 180.461 144.906 180.366C144.426 180.223 143.947 180.032 143.468 179.698C143.036 179.412 142.749 179.031 142.605 178.602C142.509 178.173 142.557 177.744 142.845 177.268C143.42 176.362 144.091 175.504 144.906 174.741C145.912 173.788 147.015 172.882 148.117 172.12C149.22 171.309 150.37 170.547 151.521 169.832C152.24 169.355 152.767 169.021 153.102 168.831C153.438 168.64 153.726 168.402 153.917 168.211C154.109 167.973 154.301 167.687 154.445 167.305C154.588 166.924 154.876 166.304 155.26 165.446C155.835 164.112 156.362 162.777 156.841 161.443C157.369 160.108 157.848 158.726 158.375 157.343C158.471 157.153 158.519 156.914 158.567 156.724C156.65 157.057 154.636 157.248 152.623 157.248C152.575 157.248 152.479 157.296 152.431 157.296V157.248C152.336 157.248 152.24 157.248 152.144 157.248C152.048 157.248 151.952 157.248 151.856 157.248V157.296C151.808 157.296 151.712 157.248 151.664 157.248C130.525 156.962 113.413 139.803 113.413 118.687C113.413 97.6187 130.525 80.4115 151.664 80.1255C151.712 80.1255 151.808 80.0778 151.856 80.0778V80.1255C151.952 80.1255 152.048 80.1255 152.144 80.1255C152.24 80.1255 152.336 80.1255 152.431 80.1255V80.0778C152.479 80.0778 152.575 80.1255 152.623 80.1255C173.762 80.4115 190.875 97.571 190.875 118.687C190.875 136.847 178.172 152.1 161.203 156.152C161.203 156.199 161.203 156.199 161.155 156.247C160.82 156.867 160.532 157.534 160.197 158.154C159.909 158.773 159.574 159.441 159.286 160.06C158.807 161.014 158.375 162.015 157.944 162.968C157.512 163.921 157.033 164.874 156.602 165.875C156.554 166.018 156.458 166.161 156.41 166.304C156.362 166.447 156.266 166.638 156.17 166.876C156.41 166.781 156.602 166.686 156.746 166.638C156.889 166.59 157.033 166.543 157.177 166.447C159.142 165.446 161.06 164.446 163.025 163.492C164.942 162.491 166.908 161.538 168.921 160.585C170.934 159.631 172.947 158.726 175.009 157.868C177.022 157.01 179.083 156.152 181.096 155.294C181.815 155.008 182.582 154.769 183.397 154.626C183.972 154.531 184.452 154.626 184.835 154.865C185.219 155.151 185.41 155.484 185.458 155.961C185.458 156.199 185.458 156.438 185.314 156.628C185.219 156.867 185.075 157.01 184.883 157.153C184.691 157.296 184.5 157.343 184.308 157.343C184.116 157.343 183.876 157.248 183.637 157.105C183.301 156.819 183.014 156.724 182.678 156.724C182.342 156.771 182.007 156.819 181.623 156.867C180.042 157.296 178.508 157.772 177.022 158.344C175.536 158.916 174.05 159.536 172.564 160.156C170.503 161.109 168.489 162.062 166.476 163.016C164.463 163.969 162.45 164.922 160.436 165.875C159.67 166.209 158.951 166.59 158.231 167.019C157.512 167.448 156.793 167.83 156.026 168.259C155.835 168.402 155.643 168.592 155.403 168.735C155.164 168.878 155.068 169.117 154.924 169.355C154.109 171.023 153.342 172.644 152.575 174.265C151.808 175.885 151.041 177.553 150.274 179.174C150.226 179.222 150.226 179.317 150.226 179.412C150.226 179.508 150.226 179.603 150.178 179.746C150.754 179.794 151.281 179.794 151.808 179.841C152.336 179.889 152.815 179.889 153.294 179.841C157.273 179.651 161.203 179.412 165.134 179.126C166.045 179.079 167.003 178.983 167.866 178.84C168.777 178.697 169.688 178.602 170.599 178.507C170.79 178.507 171.03 178.459 171.27 178.411C171.509 178.364 171.749 178.507 171.989 178.793C171.893 178.888 171.845 178.936 171.749 179.031C171.653 179.126 171.605 179.174 171.509 179.222C171.03 179.365 170.599 179.46 170.263 179.508C167.675 179.698 165.134 179.937 162.594 180.175C160.053 180.413 157.512 180.604 154.924 180.795C154.157 180.842 153.39 180.89 152.623 180.89C151.856 180.89 151.089 180.89 150.322 180.89C149.843 180.938 149.507 181.128 149.316 181.605ZM183.061 163.159C182.822 163.492 182.582 163.826 182.295 164.16C182.007 164.493 181.767 164.779 181.432 165.113C181.336 165.208 181.24 165.256 181.048 165.303C180.857 165.351 180.713 165.303 180.569 165.303C180.425 165.256 180.329 165.161 180.233 165.018C180.137 164.875 180.042 164.779 179.946 164.636C179.994 164.398 180.042 164.112 180.185 163.778C180.281 163.445 180.473 163.063 180.617 162.73C180.809 162.396 181 162.11 181.192 161.824C181.432 161.586 181.671 161.443 181.911 161.395C182.199 161.395 182.438 161.443 182.63 161.633C182.87 161.824 183.014 162.062 183.109 162.348C183.253 162.634 183.205 162.92 183.061 163.159ZM165.23 275.935C164.559 275.982 163.888 275.982 163.217 276.03C163.36 279.7 163.504 283.371 163.648 287.041C163.648 287.232 163.552 287.327 163.36 287.327C162.737 287.327 162.114 287.375 161.491 287.375C161.299 287.375 161.203 287.279 161.203 287.136C161.108 283.466 160.964 279.796 160.868 276.125C160.197 276.125 159.526 276.173 158.855 276.173C158.663 276.173 158.567 276.078 158.567 275.887C158.567 275.315 158.519 274.743 158.519 274.219C158.519 274.028 158.615 273.933 158.807 273.933C160.916 273.885 163.025 273.79 165.134 273.695C165.326 273.695 165.422 273.79 165.422 273.933C165.47 274.505 165.47 275.077 165.518 275.601C165.518 275.839 165.422 275.935 165.23 275.935ZM174.529 236.563C174.529 242.092 171.557 245.048 165.997 245.048H151.76C151.089 245.048 150.802 244.762 150.802 244.094V198.765C150.802 198.193 151.089 197.811 151.76 197.811H165.997C171.557 197.811 174.529 200.814 174.529 206.391V236.563ZM185.794 285.611C185.171 285.659 184.547 285.754 183.924 285.802C183.733 285.802 183.637 285.754 183.589 285.611C183.061 284.229 182.486 282.846 181.959 281.464C181.576 281.512 181.144 281.559 180.761 281.607C180.904 283.037 181.048 284.419 181.192 285.849C181.192 286.04 181.096 286.135 180.952 286.135C180.329 286.183 179.706 286.231 179.083 286.326C178.891 286.326 178.795 286.231 178.795 286.088C178.412 281.798 178.028 277.46 177.645 273.17C177.645 272.98 177.741 272.884 177.885 272.884C179.323 272.741 180.761 272.598 182.199 272.455C183.781 272.265 184.739 273.027 184.931 274.6C185.075 275.982 185.266 277.317 185.41 278.699C185.554 279.843 185.171 280.606 184.356 281.035C184.931 282.465 185.506 283.895 186.081 285.277C186.129 285.468 186.033 285.611 185.794 285.611ZM199.12 283.561C198.448 279.271 197.777 275.029 197.106 270.739C197.058 270.549 197.154 270.453 197.346 270.453C197.921 270.358 198.544 270.263 199.12 270.167C199.311 270.12 199.407 270.215 199.455 270.406C200.174 274.648 200.893 278.938 201.612 283.18C201.66 283.323 201.564 283.466 201.372 283.514C200.749 283.609 200.126 283.704 199.503 283.8C199.263 283.8 199.167 283.704 199.12 283.561ZM217.478 320.74L215.225 332.466L199.647 299.482L213.356 319.263L215.465 310.349L224.141 331.084L217.478 320.74ZM215.178 272.789C216.28 272.551 217.383 272.312 218.437 272.074C218.629 272.026 218.725 272.122 218.773 272.312C218.916 272.837 219.012 273.409 219.156 273.933C219.204 274.124 219.108 274.219 218.964 274.267C217.862 274.505 216.759 274.791 215.657 275.029C215.897 276.125 216.136 277.269 216.376 278.366C217.814 278.032 219.3 277.698 220.738 277.365C220.93 277.317 221.026 277.365 221.073 277.555C221.217 278.08 221.313 278.652 221.457 279.176C221.505 279.319 221.457 279.462 221.217 279.51C219.06 280.034 216.903 280.511 214.746 280.94C214.602 280.987 214.459 280.892 214.411 280.749C213.5 276.507 212.589 272.312 211.726 268.07C211.678 267.927 211.774 267.784 211.918 267.736C213.979 267.307 216.04 266.831 218.102 266.354C218.293 266.306 218.389 266.402 218.437 266.545C218.581 267.069 218.677 267.641 218.821 268.165C218.868 268.308 218.821 268.451 218.629 268.499C217.239 268.833 215.801 269.166 214.411 269.452C214.698 270.596 214.938 271.693 215.178 272.789ZM238.282 274.982C237.611 275.172 236.988 275.363 236.317 275.553C234.687 276.03 233.584 275.458 233.153 273.933C233.009 273.361 232.817 272.789 232.674 272.217C232.626 272.026 232.722 271.931 232.865 271.883C233.441 271.693 234.064 271.55 234.639 271.359C234.831 271.311 234.927 271.359 234.974 271.55C235.118 271.979 235.214 272.36 235.358 272.789C235.502 273.218 235.789 273.361 236.221 273.218C236.508 273.123 236.796 273.075 237.036 272.98C237.467 272.837 237.659 272.551 237.515 272.122C237.323 271.407 237.084 270.692 236.892 269.977C235.406 269.977 233.92 269.929 232.482 269.881C232.146 269.881 231.955 269.738 231.859 269.405C231.475 268.118 231.14 266.831 230.756 265.591C230.325 264.066 230.948 263.018 232.482 262.589C233.105 262.398 233.728 262.207 234.351 262.064C235.933 261.588 236.988 262.16 237.467 263.685C237.659 264.257 237.803 264.829 237.994 265.401C238.042 265.544 237.994 265.687 237.803 265.734C237.227 265.925 236.652 266.068 236.029 266.259C235.837 266.306 235.741 266.259 235.693 266.068C235.55 265.639 235.454 265.21 235.31 264.829C235.166 264.4 234.879 264.257 234.447 264.4C234.16 264.495 233.92 264.543 233.632 264.638C233.201 264.781 233.009 265.067 233.153 265.496C233.393 266.259 233.584 266.974 233.824 267.736C235.31 267.784 236.748 267.784 238.234 267.784C238.57 267.832 238.761 267.927 238.857 268.261C239.241 269.5 239.624 270.739 240.008 271.979C240.535 273.409 239.96 274.505 238.282 274.982ZM251.704 204.675C251.704 205.247 251.464 205.676 250.745 205.676H235.885V217.497H247.246C247.821 217.497 248.204 217.831 248.204 218.498V224.361C248.204 225.028 247.869 225.362 247.246 225.362H235.885V237.278H250.745C251.464 237.278 251.704 237.564 251.704 238.231V244.142C251.704 244.714 251.464 245.095 250.745 245.095H228.887C228.36 245.095 227.976 244.762 227.976 244.142V198.765C227.976 198.193 228.312 197.811 228.887 197.811H250.745C251.464 197.811 251.704 198.145 251.704 198.765V204.675ZM280.368 165.971C280.225 166.161 280.033 166.304 279.889 166.495C279.601 166.829 279.218 167.162 278.834 167.544C278.403 167.925 277.972 168.306 277.54 168.64C277.061 168.974 276.582 169.307 276.102 169.546C275.623 169.784 275.143 169.975 274.712 169.975C273.849 170.07 272.939 169.593 272.028 168.64C271.644 168.211 271.309 168.02 271.069 168.02C270.877 168.02 270.638 168.116 270.35 168.306C269.919 168.545 269.535 168.831 269.2 169.117C268.816 169.403 268.433 169.689 268.049 169.975C267.81 170.165 267.57 170.356 267.33 170.499C267.091 170.69 266.851 170.833 266.563 171.023C266.371 171.166 266.18 171.214 265.892 171.214C265.557 171.262 265.269 171.166 264.981 170.928C264.694 170.69 264.55 170.356 264.454 169.927C264.358 169.641 264.358 169.355 264.358 169.021C264.358 168.735 264.358 168.402 264.31 168.068C264.31 167.925 264.262 167.782 264.262 167.687C264.214 167.544 264.214 167.353 264.167 167.115C263.879 167.353 263.639 167.544 263.447 167.687C263.208 167.83 263.016 168.02 262.872 168.211C261.962 169.26 261.099 170.356 260.188 171.452C259.325 172.549 258.462 173.645 257.6 174.741C257.552 174.789 257.504 174.789 257.504 174.837C257.504 174.884 257.456 174.884 257.408 174.932C257.12 175.266 256.833 175.456 256.545 175.504C256.401 175.504 256.209 175.504 256.066 175.409C255.778 175.313 255.634 175.123 255.538 174.884C255.442 174.646 255.49 174.36 255.538 174.074C255.73 173.502 255.874 172.93 256.018 172.358C256.161 171.786 256.353 171.214 256.497 170.69C256.689 170.022 256.928 169.355 257.168 168.688C257.264 168.497 257.312 168.259 257.408 168.02C256.737 168.116 256.066 168.163 255.347 168.211C254.58 168.211 253.765 168.116 252.95 167.782C252.854 168.068 252.758 168.354 252.71 168.64C252.662 168.878 252.566 169.117 252.471 169.355C252.231 170.165 251.991 170.928 251.752 171.738C251.512 172.549 251.176 173.264 250.697 173.979C250.553 174.217 250.409 174.408 250.218 174.598C250.026 174.789 249.882 174.98 249.642 175.123C249.355 175.313 249.067 175.456 248.827 175.456C248.3 175.504 247.821 175.266 247.437 174.694C247.054 174.169 246.91 173.597 247.006 172.93C247.054 172.596 247.102 172.215 247.15 171.881C247.198 171.548 247.294 171.166 247.437 170.88C247.533 170.642 247.629 170.404 247.725 170.213C247.629 170.308 247.533 170.404 247.437 170.499C246.862 171.166 246.239 171.881 245.616 172.596C244.993 173.311 244.37 174.026 243.746 174.646C243.123 175.313 242.596 175.885 242.117 176.362C241.877 176.6 241.541 176.886 241.206 177.22C240.822 177.506 240.439 177.792 240.056 178.03C239.624 178.268 239.241 178.459 238.761 178.65C238.33 178.84 237.898 178.936 237.563 178.983C236.748 179.031 236.029 178.84 235.406 178.411C234.735 177.935 234.255 177.268 233.968 176.314C233.68 175.599 233.536 174.837 233.488 174.122C233.441 173.407 233.393 172.644 233.441 171.834C233.441 171.405 233.488 170.976 233.536 170.547C233.584 170.118 233.632 169.689 233.632 169.26C233.632 169.212 233.632 169.164 233.632 169.069C233.584 169.021 233.536 168.926 233.488 168.783C233.345 168.926 233.249 169.069 233.153 169.164C233.057 169.26 232.961 169.403 232.865 169.546C232.003 170.594 231.14 171.643 230.277 172.692C229.414 173.74 228.551 174.789 227.641 175.79C227.449 175.981 227.257 176.219 226.969 176.505C226.682 176.791 226.394 177.077 226.011 177.363C225.675 177.649 225.34 177.887 225.004 178.125C224.669 178.364 224.381 178.507 224.093 178.554C223.47 178.697 223.039 178.65 222.703 178.364C222.368 178.078 222.272 177.649 222.416 177.029C222.512 176.362 222.799 175.647 223.278 174.789C223.71 173.931 224.237 173.073 224.812 172.215C225.388 171.357 226.011 170.499 226.586 169.736C226.586 169.736 226.586 169.736 226.586 169.689C225.196 170.165 223.854 170.737 222.655 171.548C221.121 172.549 219.588 173.55 218.149 174.598C217.478 175.123 217.047 175.79 216.855 176.696C216.568 178.221 216.136 179.746 215.657 181.224C215.13 182.701 214.554 184.131 213.931 185.561C213.356 186.896 212.781 188.183 212.158 189.47C211.535 190.757 210.911 192.044 210.288 193.378C209.857 194.236 209.378 195.047 208.85 195.809C208.323 196.524 207.796 197.192 207.173 197.811C211.535 198.383 213.931 201.291 213.931 206.2V212.349C213.931 212.921 213.596 213.303 212.973 213.303H207.029C206.358 213.303 206.07 212.969 206.07 212.349V207.869C206.07 206.343 205.255 205.485 203.673 205.485H199.407C197.825 205.485 197.01 206.296 197.01 207.869V234.8C197.01 236.373 197.825 237.183 199.407 237.183H203.673C205.207 237.183 206.07 236.42 206.07 234.8V226.887H203.002C202.331 226.887 202.044 226.553 202.044 225.934V220.023C202.044 219.356 202.331 219.07 203.002 219.07H212.973C213.548 219.07 213.931 219.356 213.931 220.023V236.42C213.931 241.949 210.911 244.905 205.399 244.905H197.538C191.977 244.905 189.005 241.949 189.005 236.42V206.2C189.005 200.671 191.977 197.716 197.538 197.716H200.126C200.078 197.335 200.078 196.953 200.222 196.477C200.462 195.38 200.893 194.284 201.468 193.188C202.091 191.853 202.858 190.566 203.625 189.374C204.44 188.183 205.255 186.944 206.118 185.752C207.364 184.036 208.658 182.415 210.049 180.89C211.439 179.365 212.925 177.887 214.506 176.505C214.986 176.028 215.369 175.552 215.561 175.027C215.753 174.503 215.897 173.931 215.897 173.264C215.897 172.739 215.897 172.263 215.897 171.786C215.897 171.309 215.897 170.785 215.897 170.308C215.897 170.213 215.897 170.07 215.849 169.975C215.801 169.879 215.753 169.689 215.705 169.498C215.225 169.975 214.842 170.499 214.459 170.976C214.075 171.452 213.74 171.929 213.404 172.406C212.685 173.311 212.014 174.217 211.343 175.123C210.672 176.028 209.905 176.886 209.042 177.649C208.802 177.887 208.515 178.078 208.275 178.268C207.987 178.459 207.7 178.507 207.316 178.507C206.981 178.507 206.741 178.459 206.549 178.316C206.358 178.221 206.262 177.982 206.214 177.649C206.166 177.363 206.166 177.077 206.166 176.743C206.166 176.457 206.214 176.124 206.31 175.838C206.406 175.552 206.501 175.218 206.645 174.932C206.118 175.409 205.591 175.79 205.015 176.076C204.44 176.41 203.865 176.553 203.242 176.6C202.427 176.648 201.612 176.505 200.893 176.124C200.126 175.742 199.551 175.17 199.12 174.455C198.976 174.169 198.784 173.836 198.64 173.502C198.496 173.168 198.353 172.835 198.161 172.501C197.777 172.501 197.442 172.549 197.202 172.739C196.915 172.93 196.675 173.121 196.435 173.359C195.572 174.026 194.805 174.789 194.038 175.552C193.319 176.362 192.6 177.172 191.929 178.078C191.786 178.268 191.69 178.411 191.546 178.602C191.402 178.793 191.258 178.936 191.114 179.079C190.971 179.174 190.779 179.222 190.587 179.269C190.395 179.317 190.204 179.317 190.06 179.222C189.916 179.174 189.82 179.079 189.676 178.888C189.581 178.697 189.485 178.554 189.437 178.411C189.389 178.268 189.341 178.125 189.389 177.935C189.437 177.744 189.485 177.601 189.485 177.411C189.581 176.934 189.724 176.362 189.868 175.647C189.964 175.313 190.012 174.98 190.108 174.646C189.82 174.884 189.581 175.123 189.245 175.409C188.622 175.981 187.951 176.505 187.28 177.077C186.609 177.649 185.89 178.173 185.219 178.65C184.547 179.126 183.924 179.508 183.397 179.746C182.822 180.032 182.199 180.27 181.623 180.509C181.048 180.747 180.425 180.89 179.754 180.985C178.652 181.224 177.789 181.033 177.118 180.509C176.447 179.984 176.063 179.222 176.063 178.316L176.015 177.601L175.919 177.553C176.015 176.457 176.159 175.409 176.303 174.408C176.447 173.407 176.638 172.358 176.83 171.262C176.878 171.023 176.926 170.785 177.022 170.594C177.118 170.404 177.309 170.261 177.549 170.118C177.885 169.975 178.22 169.927 178.508 170.07C178.843 170.213 179.035 170.404 179.131 170.737C179.227 170.976 179.227 171.262 179.131 171.452C179.035 171.691 178.939 171.881 178.843 172.12C178.412 172.93 178.076 173.788 177.885 174.646C177.693 175.552 177.549 176.457 177.501 177.363C177.453 178.221 177.645 178.84 178.076 179.222C178.556 179.603 179.227 179.698 180.09 179.555C180.809 179.412 181.528 179.174 182.199 178.888C182.87 178.602 183.541 178.316 184.164 177.935C184.595 177.696 185.123 177.315 185.746 176.886C186.369 176.41 186.944 175.933 187.567 175.409C188.19 174.884 188.766 174.36 189.341 173.883C189.868 173.407 190.348 172.978 190.731 172.644C190.875 172.167 191.067 171.738 191.258 171.309C191.546 170.642 191.833 170.165 192.217 169.832C192.409 169.641 192.6 169.498 192.888 169.498C193.08 169.498 193.272 169.498 193.415 169.593C193.655 169.689 193.799 169.879 193.943 170.07C194.086 170.261 194.086 170.499 194.038 170.737C193.991 170.976 193.895 171.166 193.751 171.357C193.655 171.548 193.511 171.786 193.415 171.977C193.128 172.596 192.888 173.073 192.696 173.454C192.505 173.836 192.265 174.312 191.977 174.884C191.929 174.98 191.929 175.075 191.929 175.17C191.929 175.266 191.977 175.361 191.977 175.456C192.169 175.313 192.361 175.17 192.553 174.98C192.744 174.837 192.936 174.646 193.128 174.503C193.655 174.026 194.23 173.502 194.757 173.025C195.285 172.549 195.86 172.072 196.435 171.595C196.675 171.405 196.915 171.262 197.25 171.214C197.538 171.119 197.825 171.023 198.113 170.976C198.64 170.833 199.024 171.071 199.311 171.595C199.407 171.834 199.503 172.12 199.599 172.358C199.695 172.596 199.791 172.882 199.886 173.121C200.174 173.883 200.605 174.408 201.277 174.741C201.948 175.075 202.571 175.218 203.242 175.123C203.625 175.075 203.961 175.027 204.249 174.884C204.536 174.741 204.824 174.551 205.207 174.312C205.543 174.074 205.878 173.788 206.214 173.454C206.549 173.168 206.837 172.835 207.125 172.549C207.412 172.263 207.652 171.977 207.892 171.738C208.035 171.595 208.179 171.452 208.323 171.262C208.371 171.214 208.419 171.166 208.467 171.119C209.473 169.546 210.768 168.163 212.254 166.924C212.685 166.59 213.116 166.352 213.596 166.114C214.027 165.923 214.554 165.923 215.13 166.066C215.273 166.114 215.417 166.114 215.561 166.066C215.705 166.018 215.849 165.971 215.992 165.971C217.095 165.78 217.622 166.161 217.718 167.21C217.718 167.83 217.718 168.497 217.718 169.117C217.718 169.736 217.67 170.404 217.67 171.023C217.67 171.405 217.622 171.786 217.574 172.215C217.526 172.644 217.526 173.073 217.478 173.597C217.67 173.454 217.862 173.359 218.006 173.311C218.149 173.216 218.293 173.121 218.437 173.025C219.396 172.358 220.307 171.691 221.313 171.023C222.272 170.404 223.278 169.832 224.333 169.307C224.764 169.117 225.148 168.926 225.579 168.783C226.011 168.592 226.394 168.449 226.826 168.259C227.113 168.163 227.401 168.163 227.736 168.211C227.928 167.973 228.12 167.782 228.264 167.591C228.407 167.496 228.551 167.305 228.839 167.067C229.079 166.829 229.366 166.59 229.654 166.4C229.941 166.209 230.229 166.018 230.517 165.828C230.804 165.637 231.044 165.542 231.236 165.542C231.619 165.494 232.003 165.637 232.338 165.828C232.53 165.923 232.674 166.114 232.817 166.257C232.961 166.447 232.961 166.638 232.961 166.876C232.865 167.401 232.578 167.734 232.098 167.877C231.955 167.925 231.859 167.925 231.715 167.925C231.571 167.925 231.475 167.925 231.379 167.973C231.092 168.068 230.804 168.163 230.517 168.259C230.229 168.354 229.989 168.449 229.798 168.64C228.551 169.689 227.497 170.88 226.586 172.12C225.675 173.359 224.86 174.741 224.189 176.219C224.141 176.314 224.093 176.41 224.093 176.553C224.045 176.696 223.997 176.886 223.95 177.077C224.237 176.934 224.477 176.839 224.669 176.791C224.86 176.743 225.004 176.648 225.148 176.553C225.483 176.267 225.867 175.981 226.202 175.695C226.538 175.409 226.874 175.123 227.209 174.789C228.407 173.597 229.51 172.358 230.564 171.119C231.619 169.832 232.626 168.545 233.68 167.258C233.968 166.924 234.16 166.543 234.303 166.161C234.447 165.78 234.543 165.351 234.639 164.922C235.933 159.441 237.994 154.197 240.727 149.24C240.966 148.811 241.302 148.287 241.589 147.81C241.925 147.286 242.308 146.809 242.692 146.333C243.075 145.856 243.507 145.427 243.986 145.046C244.465 144.664 244.945 144.378 245.472 144.188C246.047 143.949 246.575 143.997 247.054 144.331C247.485 144.664 247.677 145.141 247.629 145.761C247.629 146.237 247.485 146.666 247.294 147.095C246.958 147.763 246.575 148.43 246.239 149.097C245.856 149.765 245.52 150.432 245.089 151.052C243.555 153.435 242.021 155.818 240.487 158.201C238.953 160.585 237.419 162.968 235.885 165.351C235.502 166.018 235.214 166.733 235.07 167.448C234.783 168.688 234.639 169.879 234.639 171.119C234.639 172.358 234.687 173.55 234.879 174.789C234.974 175.266 235.118 175.695 235.31 176.124C235.502 176.553 235.789 176.934 236.173 177.268C236.844 177.744 237.563 177.887 238.282 177.744C238.761 177.649 239.193 177.458 239.624 177.22C240.056 176.982 240.439 176.743 240.822 176.457C241.398 176.028 242.021 175.456 242.692 174.789C243.363 174.122 244.034 173.407 244.705 172.692C245.376 171.977 245.999 171.262 246.623 170.547C247.246 169.832 247.773 169.212 248.3 168.688C248.492 168.497 248.636 168.306 248.827 168.116C248.875 168.068 248.923 168.02 248.971 167.973C249.259 167.353 249.547 166.686 249.786 166.066C249.93 165.78 250.17 165.446 250.409 165.16C250.649 164.874 250.985 164.732 251.32 164.684C251.608 164.636 251.895 164.732 252.231 164.97C252.375 165.113 252.518 165.208 252.614 165.303C252.71 165.399 252.854 165.494 252.95 165.637C253.573 166.257 254.292 166.638 255.059 166.781C255.826 166.876 256.641 166.876 257.456 166.733C257.695 166.686 257.935 166.638 258.175 166.59C258.366 166.161 258.51 165.732 258.654 165.256C258.798 164.827 258.846 164.35 258.846 163.826C258.846 163.683 258.846 163.54 258.942 163.397C258.99 163.254 259.085 163.111 259.181 162.968C259.373 162.73 259.613 162.539 259.852 162.444C260.092 162.348 260.332 162.348 260.571 162.444C260.811 162.539 261.003 162.682 261.147 162.873C261.29 163.111 261.338 163.349 261.29 163.683C261.242 163.921 261.195 164.112 261.147 164.35C261.051 164.589 261.003 164.827 260.907 165.018C260.523 165.923 260.14 166.781 259.757 167.687C259.373 168.592 258.99 169.498 258.606 170.356C258.51 170.594 258.462 170.785 258.414 171.071C258.366 171.309 258.319 171.548 258.271 171.786C259.038 170.88 259.852 169.975 260.619 169.069C261.386 168.163 262.201 167.305 263.064 166.447C263.208 166.257 263.448 166.114 263.783 165.923C264.119 165.732 264.406 165.637 264.646 165.637C265.317 165.589 265.7 166.018 265.844 166.924C265.844 167.21 265.892 167.448 265.892 167.687C265.892 167.925 265.892 168.211 265.94 168.449C265.94 168.64 265.988 168.831 265.988 169.021C266.036 169.212 266.036 169.45 266.084 169.689C266.276 169.593 266.467 169.498 266.611 169.45C266.755 169.403 266.899 169.307 266.995 169.212C267.378 168.926 267.762 168.64 268.145 168.354C268.529 168.068 268.912 167.782 269.296 167.496C269.535 167.305 269.823 167.162 270.062 167.019C270.35 166.876 270.59 166.733 270.877 166.59C271.261 166.447 271.596 166.4 271.932 166.495C272.267 166.59 272.555 166.733 272.843 167.019C272.891 167.067 272.939 167.115 272.939 167.115C272.939 167.162 272.986 167.162 273.034 167.21C273.37 167.639 273.658 167.973 273.945 168.163C274.233 168.354 274.52 168.449 274.904 168.402C275.143 168.402 275.383 168.306 275.671 168.163C275.958 168.02 276.294 167.83 276.677 167.591C277.205 167.258 277.636 166.876 278.067 166.495C278.499 166.066 278.93 165.685 279.362 165.256C279.697 164.922 280.033 164.779 280.272 164.732C280.416 164.732 280.56 164.779 280.656 164.922C280.512 165.589 280.512 165.828 280.368 165.971Z" fill="#070707"/>
<path d="M151.664 173.502C151.856 173.025 152.048 172.501 152.288 171.977C152.479 171.452 152.719 170.928 152.959 170.308C152.767 170.356 152.623 170.404 152.527 170.404C152.479 170.404 152.383 170.404 152.336 170.451C151.089 171.214 149.891 172.024 148.693 172.882C147.542 173.74 146.44 174.646 145.385 175.695C145.097 175.981 144.858 176.219 144.618 176.505C144.378 176.791 144.187 177.077 143.947 177.411C143.516 178.03 143.611 178.554 144.283 178.936C144.57 179.126 144.906 179.269 145.193 179.317C145.577 179.412 145.96 179.46 146.296 179.508C146.679 179.555 147.015 179.651 147.398 179.698C147.734 179.746 147.974 179.794 148.165 179.794C148.357 179.794 148.501 179.746 148.597 179.698C148.693 179.651 148.788 179.508 148.884 179.365C148.98 179.222 149.076 178.983 149.22 178.697C149.603 177.792 149.987 176.934 150.37 176.124C150.898 175.218 151.281 174.36 151.664 173.502Z" fill="#070707"/>
<path d="M250.457 167.639C250.17 168.02 249.882 168.402 249.594 168.926C249.307 169.403 249.067 169.927 248.827 170.547C248.588 171.119 248.444 171.643 248.348 172.167C248.252 172.692 248.252 173.073 248.3 173.454C248.348 173.788 248.54 174.026 248.875 174.122C249.403 173.693 249.786 173.216 250.074 172.644C250.361 172.072 250.553 171.5 250.697 170.833C250.841 170.213 250.937 169.546 250.985 168.926C251.032 168.259 251.128 167.639 251.224 167.067C250.985 167.067 250.745 167.305 250.457 167.639Z" fill="#070707"/>
</svg>
