<svg width="32" height="32" viewBox="0 0 32 32" fill="none" xmlns="http://www.w3.org/2000/svg">
<path d="M27.75 13C27.75 13.1989 27.671 13.3897 27.5303 13.5303C27.3897 13.671 27.1989 13.75 27 13.75C26.8011 13.75 26.6103 13.671 26.4697 13.5303C26.329 13.3897 26.25 13.1989 26.25 13V6.81125L17.5312 15.53C17.3891 15.6625 17.201 15.7346 17.0067 15.7312C16.8124 15.7277 16.627 15.649 16.4896 15.5116C16.3522 15.3742 16.2735 15.1888 16.2701 14.9945C16.2666 14.8002 16.3388 14.6122 16.4713 14.47L25.1887 5.75H19C18.8011 5.75 18.6103 5.67098 18.4697 5.53033C18.329 5.38968 18.25 5.19891 18.25 5C18.25 4.80109 18.329 4.61032 18.4697 4.46967C18.6103 4.32902 18.8011 4.25 19 4.25H27C27.1989 4.25 27.3897 4.32902 27.5303 4.46967C27.671 4.61032 27.75 4.80109 27.75 5V13ZM23 16.25C22.8011 16.25 22.6103 16.329 22.4697 16.4697C22.329 16.6103 22.25 16.8011 22.25 17V26C22.25 26.0663 22.2237 26.1299 22.1768 26.1768C22.1299 26.2237 22.0663 26.25 22 26.25H6C5.9337 26.25 5.87011 26.2237 5.82322 26.1768C5.77634 26.1299 5.75 26.0663 5.75 26V10C5.75 9.9337 5.77634 9.87011 5.82322 9.82322C5.87011 9.77634 5.9337 9.75 6 9.75H15C15.1989 9.75 15.3897 9.67098 15.5303 9.53033C15.671 9.38968 15.75 9.19891 15.75 9C15.75 8.80109 15.671 8.61032 15.5303 8.46967C15.3897 8.32902 15.1989 8.25 15 8.25H6C5.53587 8.25 5.09075 8.43437 4.76256 8.76256C4.43437 9.09075 4.25 9.53587 4.25 10V26C4.25 26.4641 4.43437 26.9092 4.76256 27.2374C5.09075 27.5656 5.53587 27.75 6 27.75H22C22.4641 27.75 22.9092 27.5656 23.2374 27.2374C23.5656 26.9092 23.75 26.4641 23.75 26V17C23.75 16.8011 23.671 16.6103 23.5303 16.4697C23.3897 16.329 23.1989 16.25 23 16.25Z" />
</svg>
