<svg width="1072" height="845" viewBox="0 0 1072 845" fill="none" xmlns="http://www.w3.org/2000/svg">
<path d="M718.08 187.459C662.141 70.4731 539.958 -7.51771 402.319 0.575676C315.466 5.72601 238.182 43.2499 182.979 102.111L-754 1038H-442.655L216.101 379.493V378.757L332.395 262.507C351.532 238.963 380.973 222.776 414.095 220.568C475.922 216.89 528.181 263.243 531.862 322.104C533.334 344.176 527.445 365.514 516.405 383.172C509.78 393.473 494.324 409.659 481.075 423.639L439.857 464.841L-132.782 1037.26H178.562H488.435H799.044L956.557 879.811C956.557 879.811 956.557 879.811 956.557 879.075C965.389 870.246 977.166 857.738 987.47 846.702C988.206 845.966 988.206 845.23 988.942 844.495C994.095 838.609 998.511 833.458 1001.45 829.044L1002.19 828.308C1049.3 767.975 1076.53 689.985 1071.38 607.579C1071.38 606.844 1071.38 606.844 1071.38 606.108C1061.07 433.204 918.282 299.295 747.521 297.088C744.577 258.828 734.273 222.04 718.08 187.459ZM839.526 681.891C831.43 693.663 811.557 715 796.836 729.716L779.171 747.374L709.247 817.271H399.374L434.704 781.955L527.445 689.249L539.222 677.477V676.741L655.516 560.49C674.653 536.946 704.095 520.759 737.217 518.552C799.044 515.609 851.303 561.226 854.983 620.087C856.455 643.632 850.567 664.233 839.526 681.891Z" fill="#053E3B"/>
</svg>
