<svg width="70" height="40" viewBox="0 0 70 40" fill="none" xmlns="http://www.w3.org/2000/svg">
<path d="M69.9417 26.4945C69.8835 25.5605 69.7378 24.6264 69.5048 23.7508C69.1552 22.4373 68.5726 21.2113 67.8444 20.1314C67.3491 19.4016 66.7957 18.7011 66.1548 18.0881C66.0965 18.0298 66.0383 17.9714 65.98 17.913C64.4361 16.4536 62.5427 15.3736 60.4161 14.819C60.154 14.7606 59.8918 14.7022 59.6296 14.6439C58.8722 14.4979 58.0857 14.4103 57.2701 14.4103C56.9788 14.4103 56.6583 14.4104 56.367 14.4395C56.3962 14.206 56.3962 13.9725 56.3962 13.739C56.3962 13.6514 56.3962 13.5639 56.3962 13.5055C56.3962 12.3671 56.2505 11.2872 55.9883 10.2364C55.7262 9.21475 55.3475 8.25152 54.8523 7.34666C54.4153 6.52938 53.891 5.79966 53.2792 5.09913C53.1045 4.89481 52.9005 4.69049 52.7258 4.48616C51.1819 2.93916 49.2301 1.77161 47.0162 1.15864C46.9871 1.15864 46.958 1.12945 46.8997 1.12945C46.6375 1.07108 46.3462 1.0127 46.0549 0.954321C45.2975 0.837566 44.4819 0.75 43.6954 0.75C42.9089 0.75 42.0932 0.837566 41.3358 0.98351C41.0737 1.04189 40.8115 1.10027 40.5493 1.15864C40.5202 1.15864 40.4619 1.18783 40.4328 1.18783C38.2772 1.77161 36.3254 2.90997 34.7815 4.42779C34.7524 4.45698 34.7233 4.45698 34.7233 4.48616C34.6941 4.51535 34.665 4.54454 34.665 4.54454C34.4902 4.71967 34.3446 4.89481 34.1698 5.06994V5.04075L31.8685 7.37585L30.2372 9.01042L27.8194 11.4331L25.722 13.5347L25.489 13.7682L21.4107 17.7962L21.1777 18.0298L19.0803 20.1314L16.6625 22.554L12.1764 27.0491L8.68082 30.5517L7.69039 31.5442L0 39.25H9.00125L27.7903 20.4232L28.1107 20.1022L30.2081 18.0006L31.4315 16.7746L34.1698 14.0309L34.4902 13.7098L34.7233 13.4763L37.9858 10.2072L39.2093 8.98124L40.4328 7.75531L40.5202 7.63855V7.69693C40.7532 7.55099 41.0154 7.43423 41.2776 7.34666C42.035 7.05478 42.8215 6.90883 43.6662 6.90883C44.511 6.90883 45.3267 7.05478 46.0549 7.34666C46.3462 7.46342 46.6084 7.58017 46.8706 7.72612C46.9288 7.75531 46.9871 7.7845 47.0162 7.81369C47.5114 8.10557 47.9484 8.45584 48.3271 8.83529C48.7058 9.21475 49.0262 9.65258 49.3175 10.1196C49.9001 11.112 50.2206 12.2504 50.2206 13.4763C50.2206 13.5639 50.2206 13.6514 50.2206 13.7098C50.1914 14.8774 49.8419 15.9865 49.2593 16.9206L47.1328 19.0806L46.8706 19.3433L46.1132 20.1022L43.6954 22.5248L40.5202 25.7064L40.4328 25.794L39.7337 26.4945L39.1802 27.0491L27.0037 39.25H53.2501V39.2208C53.2792 39.2208 53.2792 39.25 53.3084 39.25H61.2027C62.6592 38.783 64.0283 38.0241 65.1935 37.09C65.4557 36.8565 65.747 36.623 66.0092 36.3895C66.0965 36.3019 66.2131 36.2144 66.3005 36.0976C66.6209 35.7765 66.9413 35.4263 67.2326 35.0468C67.7861 34.3755 68.2522 33.6166 68.66 32.8285C69.0678 32.0404 69.3591 31.2231 69.5922 30.3474C69.8543 29.3258 70 28.2166 70 27.1075C69.9709 26.9323 69.9709 26.6988 69.9417 26.4945ZM63.0961 30.1723C62.8048 30.7561 62.397 31.3107 61.9309 31.7777C61.494 32.2155 61.0279 32.5658 60.5035 32.8868C60.4161 32.9452 60.3579 32.9744 60.2705 33.0036L60.387 32.8868H54.0075L54.0366 32.916C54.0366 32.916 54.0075 32.916 54.0075 32.8868H42.3845L44.948 30.3182L46.8997 28.3626L48.2106 27.0491L48.764 26.4945L51.9101 23.3421C51.9975 23.1962 52.114 23.0502 52.2305 22.9335C52.3762 22.7583 52.5218 22.6124 52.6675 22.4665C52.8131 22.3205 52.9588 22.2038 53.1045 22.0578C53.1627 21.9994 53.221 21.9411 53.2792 21.8535V21.9119C53.3375 21.8535 53.4249 21.7951 53.5123 21.7659C54.5901 21.007 55.8718 20.5692 57.2992 20.5692C58.144 20.5692 58.9305 20.7151 59.6588 21.007C60.0666 21.153 60.4453 21.3573 60.7948 21.5908C61.1735 21.8243 61.5522 22.1162 61.8727 22.4373C62.2514 22.7875 62.5718 23.1962 62.8631 23.6632C63.3874 24.5097 63.737 25.4729 63.8535 26.5237C63.8826 26.728 63.8826 26.9615 63.8826 27.1658C63.8244 28.2458 63.5622 29.2674 63.0961 30.1723Z"/>
</svg>
