<?xml version="1.0" encoding="utf-8"?>
<svg class="icon-globe" version="1.1" id="Layer_1" xmlns="http://www.w3.org/2000/svg" xmlns:xlink="http://www.w3.org/1999/xlink" x="0px" y="0px"
	 viewBox="0 0 336.1 319.6" style="enable-background:new 0 0 336.1 319.6;" xml:space="preserve">
<g class="rotatingRev">
	<path class="st0" d="M169.7,286.9c69.3-0.9,125.3-57.5,125.3-127c0-69.5-56.1-126.1-125.3-127c-0.2-0.1-0.4-0.1-0.6-0.2l-0.1,0.2
		c-0.3,0-0.7,0-1,0c-0.3,0-0.7,0-1,0l-0.1-0.2c-0.2,0.1-0.4,0.1-0.6,0.2C97.1,33.8,41,90.4,41,159.9c0,69.5,56.1,126.1,125.3,127
		c0.2,0.1,0.4,0.2,0.6,0.2l0.1-0.2c0.3,0,0.7,0,1,0c0.3,0,0.7,0,1,0l0.1,0.2C169.3,287,169.5,287,169.7,286.9z M80.2,243
		c-19.9-21-32.4-49.2-33.1-80.2h28.1c0.5,24.6,7.7,47.9,20.1,67.8C90,234.4,84.9,238.5,80.2,243z M95.2,89.1
		c-12.4,19.9-19.6,43.2-20.1,67.8H47.1c0.8-31,13.2-59.1,33.2-80.2C84.9,81.2,90,85.4,95.2,89.1z M81,159.9
		c0-24.5,6.9-47.7,19.2-67.5c20.1,12.7,43.4,19.6,67.8,19.6c24.4,0,47.7-6.8,67.8-19.6c12.3,19.8,19.2,43,19.2,67.5
		c0,24.5-6.9,47.7-19.2,67.5c-20.1-12.7-43.4-19.6-67.8-19.6c-24.4,0-47.7,6.8-67.8,19.6C88,207.6,81,184.4,81,159.9z M171,39.7
		c25.6,9.3,46.8,26.2,61.5,47.7c-18.3,11.6-39.4,18-61.5,18.6V39.7z M165,105.9c-22.1-0.5-43.2-7-61.5-18.6
		c14.7-21.4,36-38.3,61.5-47.7V105.9z M255.9,76.7c19.9,21,32.4,49.2,33.1,80.2H261c-0.5-24.6-7.7-47.9-20.1-67.8
		C246.1,85.4,251.2,81.2,255.9,76.7z M240.9,230.7c12.4-19.9,19.6-43.2,20.1-67.8H289c-0.8,31-13.2,59.1-33.2,80.2
		C251.1,238.5,246.1,234.4,240.9,230.7z M171,213.8c22.1,0.5,43.2,7,61.5,18.6c-14.7,21.4-36,38.3-61.5,47.7V213.8z M165,213.8v66.2
		c-25.6-9.3-46.8-26.2-61.5-47.7C121.8,220.8,142.9,214.4,165,213.8z M237.6,235.7c4.9,3.5,9.6,7.4,14.1,11.6
		c-17.2,16.5-39.2,27.9-63.7,32C208.1,269,225.1,253.9,237.6,235.7z M251.7,72.5c-4.4,4.2-9.1,8.1-14.1,11.6
		c-12.5-18.2-29.4-33.3-49.7-43.6C212.4,44.6,234.4,56,251.7,72.5z M98.5,84.1c-4.9-3.5-9.6-7.4-14.1-11.6
		c17.2-16.5,39.2-27.9,63.8-32C128,50.8,111,65.8,98.5,84.1z M84.4,247.3c4.4-4.2,9.1-8.1,14.1-11.6c12.5,18.2,29.4,33.3,49.7,43.6
		C123.7,275.2,101.6,263.8,84.4,247.3z"/>
</g>
<g class="rotating">
	<polygon class="st0" points="305.6,211.2 307.8,211.9 309.7,206.1 312.7,207.1 310.9,212.4 313.1,213.2 314.9,207.8 317.8,208.9 
		315.9,214.6 318,215.3 320.9,207 308.5,202.8 	"/>
	<polygon class="st0" points="302.6,218.7 310.3,222.3 310.3,222.4 301.1,221.9 300.3,223.5 306.5,230.2 306.5,230.3 298.8,226.6 
		297.6,229.1 309.5,234.7 310.9,231.6 304.5,224.6 304.6,224.4 314.1,224.9 315.6,221.9 303.7,216.2 	"/>
	<path class="st0" d="M291.9,238.6c-0.5,0.8-0.8,1.6-0.9,2.3c-0.1,0.7,0,1.4,0.3,2c0.3,0.6,0.7,1.1,1.3,1.4c0.5,0.3,1.1,0.5,1.6,0.5
		c0.5,0,1-0.1,1.5-0.3c0.5-0.2,0.8-0.6,1.1-1l0.1,0.1c-0.2,0.4-0.2,0.9-0.2,1.3c0,0.4,0.1,0.8,0.4,1.2c0.2,0.4,0.5,0.7,1,1
		c0.6,0.4,1.1,0.5,1.7,0.5c0.6,0,1.2-0.2,1.8-0.6c0.6-0.4,1.1-1,1.6-1.8l2.8-4.4l-11.1-7L291.9,238.6z M298.4,243
		c0-0.3,0.2-0.6,0.4-1l1.1-1.7l2.7,1.7l-1.1,1.8c-0.3,0.5-0.7,0.8-1.1,1c-0.4,0.1-0.8,0.1-1.2-0.2c-0.3-0.2-0.5-0.4-0.6-0.7
		S298.3,243.3,298.4,243z M298.2,239.3l-1.2,2c-0.2,0.4-0.5,0.7-0.8,0.8c-0.3,0.2-0.6,0.3-0.9,0.3c-0.3,0-0.6-0.1-1-0.3
		c-0.4-0.3-0.7-0.6-0.7-1.1c-0.1-0.5,0.1-1,0.5-1.7l1.2-1.9L298.2,239.3z"/>
	<path class="st0" d="M285.1,248.3l1.7,2.6l-2.9,3.7l-2.9-1.1l-1.8,2.3l13.1,4.6l2.2-2.8L287,246L285.1,248.3z M291,257.3l-4.9-1.8
		l2.1-2.6L291,257.3L291,257.3z"/>
	<path class="st0" d="M273.9,261.4l3.3,3.3l-1.4,1.4l-5.1-1.5l-2.1,2.2l5.6,1.6c0,0,0,0.1-0.1,0.1c-0.3,0.7-0.3,1.5-0.1,2.2
		c0.2,0.7,0.6,1.4,1.2,2c0.6,0.6,1.3,1,2,1.2c0.7,0.2,1.4,0.2,2.2-0.1c0.7-0.3,1.5-0.7,2.2-1.4l3.6-3.7l-9.3-9.2L273.9,261.4z
		 M280.4,270.4c-0.4,0.4-0.7,0.6-1.1,0.8c-0.4,0.1-0.7,0.2-1,0.1c-0.3-0.1-0.7-0.3-1-0.6c-0.3-0.3-0.5-0.6-0.6-0.9
		c-0.1-0.3-0.1-0.7,0.1-1c0.1-0.4,0.4-0.7,0.8-1.1l1.3-1.3l2.8,2.8L280.4,270.4z"/>
	<polygon class="st0" points="262.9,271.8 265.3,274.7 265.3,276.8 259.1,274.9 256.6,277 265,279.5 264.9,287.1 267.5,285 
		267.5,277.6 267.6,277.4 271.3,281.9 273.4,280.1 265.1,270 	"/>
	
		<rect x="253.9" y="279.4" transform="matrix(0.8218 -0.5697 0.5697 0.8218 -117.4209 196.3805)" class="st0" width="2.8" height="13.1"/>
	<polygon class="st0" points="243.3,285.9 247.4,293 247.3,293.1 238.3,288.7 236.2,289.9 242.7,301.3 245.1,299.9 241,292.8 
		241.1,292.7 250.1,297.1 252.3,295.8 245.7,284.5 	"/>
	<path class="st0" d="M231.9,295.4c-0.9-0.7-1.8-1.1-2.9-1.3c-1.1-0.1-2.2,0-3.3,0.5c-1,0.4-1.8,1-2.4,1.8c-0.6,0.7-1,1.6-1.1,2.5
		s0,2,0.5,3l0.7,1.5l5-2.2l-0.8-1.9l-2.6,1.1c-0.2-0.5-0.3-0.9-0.2-1.4c0.1-0.5,0.2-0.9,0.6-1.3c0.3-0.4,0.8-0.7,1.3-0.9
		c0.6-0.3,1.3-0.4,1.9-0.3c0.6,0.1,1.2,0.4,1.7,0.9c0.5,0.5,0.9,1.1,1.3,2s0.5,1.6,0.5,2.3c0,0.7-0.2,1.3-0.5,1.8s-0.8,0.9-1.4,1.2
		c-0.3,0.1-0.6,0.2-1,0.3c-0.3,0-0.6,0-0.9,0c-0.3-0.1-0.5-0.2-0.8-0.3c-0.2-0.2-0.5-0.4-0.7-0.6l-2.6,1.1c0.3,0.6,0.8,1,1.3,1.4
		s1.1,0.6,1.7,0.8s1.3,0.2,1.9,0.2c0.7-0.1,1.4-0.2,2-0.5c1.1-0.5,1.9-1.1,2.6-2c0.6-0.9,1-1.9,1.1-3s-0.1-2.4-0.7-3.7
		C233.5,297.1,232.8,296.1,231.9,295.4z"/>
	<path class="st0" d="M208.4,304.1c-0.8-0.8-1.6-1.4-2.7-1.7c-1-0.3-2.1-0.3-3.2,0c-1.1,0.3-2.1,0.8-2.9,1.5
		c-0.8,0.7-1.3,1.6-1.6,2.7s-0.3,2.3,0.1,3.7c0.3,1.4,0.9,2.5,1.6,3.4c0.8,0.8,1.7,1.4,2.7,1.7c1,0.3,2.1,0.3,3.2,0
		c1.1-0.3,2.1-0.8,2.9-1.5c0.8-0.7,1.3-1.6,1.6-2.7s0.3-2.3-0.1-3.7C209.7,306.1,209.2,304.9,208.4,304.1z M207.5,310.5
		c-0.1,0.7-0.4,1.2-0.8,1.7c-0.4,0.4-0.9,0.7-1.6,0.9c-0.7,0.2-1.3,0.1-1.8-0.1c-0.6-0.2-1.1-0.6-1.5-1.1s-0.7-1.3-1-2.2
		s-0.3-1.7-0.1-2.4c0.1-0.7,0.4-1.2,0.8-1.7s0.9-0.7,1.6-0.9c0.7-0.2,1.3-0.1,1.8,0.1s1.1,0.6,1.5,1.1c0.4,0.6,0.7,1.3,1,2.2
		C207.5,309,207.6,309.8,207.5,310.5z"/>
	<polygon class="st0" points="188.6,305.2 189.6,313.4 189.5,313.4 182.9,305.9 180.5,306.2 182.1,319.2 184.8,318.9 183.8,310.7 
		183.9,310.7 190.5,318.2 193,317.9 191.4,304.8 	"/>
	<path class="st0" d="M164,309.5l-4.7-0.2l-0.8-3l-3-0.1l4,13.3l3.6,0.2l5.1-12.9l-3-0.1L164,309.5z M161.3,316.6l-0.1,0l-1.4-5
		l3.3,0.1L161.3,316.6z"/>
	<polygon class="st0" points="138.6,312.1 138.6,312.1 134.7,302.8 132.3,302.3 129.6,315.2 132.3,315.7 134,307.6 134.1,307.7 
		138,316.9 140.4,317.4 143.1,304.6 140.3,304 	"/>
	<polygon class="st0" points="117.8,300.3 123.6,302.2 122.7,305.1 117.3,303.4 116.6,305.6 122,307.3 121,310.3 115.2,308.4 
		114.5,310.6 122.9,313.3 127,300.8 118.5,298.1 	"/>
	<polygon class="st0" points="102.4,300.7 102.3,300.6 103.7,291.8 101.2,290.6 92.3,300.9 95,302.2 100.9,294.9 101,294.9 
		99.3,304.2 101.6,305.3 107.6,298 107.7,298.1 105.9,307.3 108.6,308.6 110.7,295.1 108.3,293.9 	"/>
	<path class="st0" d="M84.6,280.3c-0.7-0.5-1.5-0.8-2.2-0.9s-1.4,0-2.1,0.3c-0.7,0.3-1.2,0.8-1.7,1.5l-5.2,7.5l2.2,1.6l5.2-7.5
		c0.2-0.3,0.5-0.6,0.8-0.8c0.3-0.2,0.5-0.2,0.8-0.2s0.6,0.1,0.8,0.3c0.3,0.2,0.5,0.4,0.6,0.6c0.1,0.2,0.2,0.5,0.1,0.8
		s-0.1,0.6-0.3,0.8l2.3,1.6c0.5-0.7,0.8-1.4,0.8-2.1c0-0.7-0.2-1.3-0.5-1.9C85.8,281.3,85.3,280.8,84.6,280.3z"/>
	<path class="st0" d="M73.9,273.2c-0.4-1-1-1.9-1.8-2.7c-0.9-0.8-1.8-1.2-2.9-1.5c-1-0.2-2.1-0.1-3.2,0.3s-2.1,1.1-3,2.2
		s-1.5,2.2-1.8,3.3s-0.2,2.2,0.2,3.2s1,1.9,1.8,2.6c0.9,0.8,1.8,1.3,2.9,1.5s2.1,0.1,3.2-0.3c1.1-0.4,2.1-1.1,3-2.2
		c0.9-1.1,1.5-2.2,1.8-3.3C74.3,275.3,74.2,274.2,73.9,273.2z M71.3,275.8c-0.2,0.7-0.6,1.3-1.2,2c-0.6,0.7-1.2,1.2-1.8,1.5
		c-0.6,0.3-1.2,0.4-1.8,0.3c-0.6-0.1-1.1-0.3-1.6-0.8c-0.5-0.4-0.8-0.9-1-1.5c-0.2-0.6-0.1-1.2,0.1-1.9c0.2-0.7,0.6-1.3,1.2-2
		s1.2-1.2,1.8-1.5s1.2-0.4,1.8-0.3s1.1,0.3,1.6,0.8c0.5,0.4,0.8,0.9,1,1.5C71.6,274.5,71.6,275.1,71.3,275.8z"/>
	<path class="st0" d="M61.5,261.3c-0.3-0.9-0.8-1.7-1.5-2.5c-0.7-0.8-1.5-1.4-2.4-1.7c-0.8-0.3-1.7-0.4-2.5-0.3s-1.6,0.5-2.3,1.2
		l-6.3,5.8l1.9,2l6.1-5.6c0.4-0.3,0.8-0.6,1.2-0.7c0.4-0.1,0.9-0.1,1.3,0.1c0.4,0.1,0.8,0.4,1.2,0.8c0.4,0.4,0.6,0.8,0.7,1.3
		c0.1,0.4,0.1,0.9,0,1.3c-0.1,0.4-0.4,0.8-0.8,1.1l-6.1,5.6l1.9,2l6.3-5.8c0.7-0.6,1.2-1.4,1.4-2.2
		C61.7,263.1,61.7,262.2,61.5,261.3z"/>
	<path class="st0" d="M51,248.4l-3.7,2.8l-1.2-1.6l2.3-4.8l-1.8-2.5l-2.5,5.3c0,0-0.1-0.1-0.1-0.1c-0.7-0.4-1.4-0.5-2.1-0.5
		c-0.7,0.1-1.4,0.4-2.1,0.9c-0.7,0.5-1.2,1.1-1.5,1.8c-0.3,0.7-0.4,1.4-0.2,2.2s0.5,1.6,1.1,2.4l3.1,4.2l10.6-7.8L51,248.4z
		 M41.2,253.3c-0.3-0.4-0.5-0.8-0.6-1.2c-0.1-0.4-0.1-0.7,0.1-1c0.1-0.3,0.4-0.6,0.7-0.9c0.3-0.3,0.7-0.4,1-0.4c0.3,0,0.7,0,1,0.2
		c0.3,0.2,0.6,0.5,1,0.9l1.1,1.5l-3.2,2.4L41.2,253.3z"/>
	<polygon class="st0" points="42.5,235.9 35.4,240.1 35.3,240 39.6,230.9 38.4,228.8 27.1,235.4 28.5,237.8 35.6,233.7 35.6,233.8 
		31.4,242.8 32.6,244.9 43.9,238.3 	"/>
	<polygon class="st0" points="32.3,215.8 30.2,216.7 32.7,222.3 29.8,223.6 27.5,218.4 25.5,219.4 27.8,224.5 24.9,225.8 
		22.4,220.2 20.3,221.2 24,229.2 35.9,223.9 	"/>
	<polygon class="st0" points="29,206.9 28.2,204.3 23.8,205.7 14.2,203.8 15.2,206.8 21.5,207.8 21.5,208 17.1,212.6 18,215.5 
		24.6,208.3 	"/>
	<path class="st0" d="M27.9,97.5c1.2,0.6,2.4,0.9,3.6,0.9c1.1,0,2.1-0.3,3-0.9s1.6-1.4,2.2-2.5c0.5-1,0.7-2,0.7-2.9
		c0-1-0.3-1.8-0.8-2.6s-1.3-1.5-2.3-2l-1.5-0.7l-2.4,4.9l1.9,0.9l1.2-2.5c0.5,0.2,0.8,0.5,1.1,0.9c0.3,0.4,0.4,0.8,0.4,1.3
		c0,0.5-0.1,1-0.4,1.6c-0.3,0.6-0.7,1.1-1.2,1.4c-0.5,0.3-1.1,0.4-1.8,0.4c-0.7,0-1.5-0.3-2.3-0.7c-0.8-0.4-1.5-0.9-1.9-1.4
		c-0.4-0.5-0.7-1.1-0.8-1.7c-0.1-0.6,0-1.2,0.3-1.8c0.2-0.3,0.3-0.6,0.6-0.8c0.2-0.2,0.4-0.4,0.7-0.5s0.5-0.2,0.8-0.3
		c0.3,0,0.6,0,0.9,0l1.2-2.5c-0.6-0.2-1.2-0.3-1.9-0.2s-1.2,0.2-1.8,0.5c-0.6,0.3-1.1,0.6-1.6,1.1s-0.9,1.1-1.2,1.7
		c-0.5,1-0.7,2.1-0.7,3.2s0.4,2.1,1.1,3C25.7,96.1,26.6,96.8,27.9,97.5z"/>
	<polygon class="st0" points="46.2,78 44.3,76.8 41.3,81.5 32.1,75.8 30.6,78.1 41.7,85.1 	"/>
	<path class="st0" d="M43.5,70.3c1.1,0.9,2.2,1.4,3.4,1.6C48,72.1,49,72,50,71.6s1.8-1.1,2.6-2c0.7-0.9,1.1-1.9,1.3-3
		c0.2-1.1,0-2.1-0.5-3.1c-0.5-1-1.2-2-2.4-2.9c-1.1-0.9-2.2-1.4-3.4-1.6s-2.2-0.1-3.2,0.3c-1,0.4-1.8,1.1-2.6,2
		c-0.7,0.9-1.2,1.9-1.3,3c-0.2,1.1,0,2.1,0.5,3.1S42.4,69.4,43.5,70.3z M43.2,64.5c0-0.6,0.3-1.2,0.7-1.7c0.4-0.5,0.9-0.9,1.5-1.1
		c0.6-0.2,1.2-0.2,1.9,0c0.7,0.2,1.4,0.5,2.1,1.1c0.7,0.6,1.3,1.2,1.6,1.8c0.3,0.6,0.5,1.2,0.4,1.8c0,0.6-0.3,1.2-0.7,1.7
		c-0.4,0.5-0.9,0.9-1.5,1.1c-0.6,0.2-1.2,0.2-1.9,0c-0.7-0.2-1.4-0.5-2.1-1.1s-1.3-1.2-1.6-1.8C43.3,65.7,43.2,65.1,43.2,64.5z"/>
	<path class="st0" d="M63.7,56.7c0.7-0.7,1.2-1.4,1.4-2.1s0.3-1.4,0.1-2c-0.1-0.6-0.5-1.2-1-1.7c-0.5-0.5-1-0.7-1.5-0.9
		c-0.5-0.1-1-0.1-1.5,0c-0.5,0.1-0.9,0.4-1.3,0.7l-0.1-0.1c0.2-0.4,0.4-0.8,0.5-1.2c0.1-0.4,0-0.8-0.1-1.3c-0.1-0.4-0.4-0.8-0.7-1.2
		c-0.5-0.5-1-0.8-1.6-0.9c-0.6-0.1-1.2-0.1-1.9,0.2s-1.3,0.7-2,1.4l-3.7,3.8l9.4,9.2L63.7,56.7z M54,51.2l1.5-1.5
		c0.4-0.4,0.9-0.7,1.3-0.7c0.4,0,0.8,0.1,1.2,0.4c0.2,0.2,0.4,0.5,0.5,0.8s0,0.6-0.1,0.9c-0.1,0.3-0.3,0.6-0.6,0.9l-1.4,1.5L54,51.2
		z M59.2,53.1c0.3-0.3,0.6-0.5,1-0.7c0.3-0.1,0.7-0.1,1-0.1c0.3,0.1,0.6,0.2,0.9,0.5c0.4,0.3,0.5,0.8,0.5,1.2c0,0.5-0.3,1-0.9,1.5
		l-1.6,1.6l-2.5-2.4L59.2,53.1z"/>
	<path class="st0" d="M72.3,48.6l-1.1-2.9l3.7-3l2.6,1.7l2.3-1.9L68,35.3l-2.8,2.3l4.8,13L72.3,48.6z M68.5,38.7l4.4,2.8l-2.6,2.1
		L68.5,38.7L68.5,38.7z"/>
	<polygon class="st0" points="90.8,35.1 89.5,33.2 84.8,36.3 78.8,27.3 76.5,28.8 83.8,39.7 	"/>
	<path class="st0" d="M106.1,26.9c1.2-0.6,2.1-1.3,2.8-2.2c0.7-0.9,1-1.9,1.1-3c0.1-1.1-0.2-2.3-0.8-3.5c-0.6-1.2-1.3-2.2-2.2-2.9
		c-0.9-0.7-1.9-1-2.9-1.1c-1.1-0.1-2.2,0.2-3.4,0.7l-4.3,2l5.5,11.9L106.1,26.9z M101.5,17.1c0.7-0.3,1.4-0.5,2.1-0.5
		c0.6,0,1.2,0.3,1.7,0.7c0.5,0.4,1,1.1,1.4,2c0.4,0.9,0.6,1.7,0.6,2.4s-0.2,1.3-0.6,1.8c-0.4,0.5-1,0.9-1.7,1.3l-1.6,0.7l-3.5-7.6
		L101.5,17.1z"/>
	<polygon class="st0" points="125.3,19.4 124.6,17.3 118.8,19.2 117.8,16.2 123.1,14.5 122.4,12.3 117,14.1 116,11.1 121.8,9.2 
		121.1,7 112.7,9.8 116.9,22.3 	"/>
	<path class="st0" d="M129.8,10.9c0.8,0.4,1.7,0.6,2.8,0.6l1.5,0c0.5,0,0.9,0,1.3,0.1s0.6,0.2,0.9,0.3c0.2,0.2,0.4,0.4,0.4,0.7
		c0.1,0.3,0,0.6-0.1,0.9c-0.1,0.3-0.4,0.5-0.7,0.7c-0.3,0.2-0.7,0.4-1.1,0.5c-0.5,0.1-0.9,0.1-1.3,0.1s-0.7-0.2-1-0.4
		c-0.3-0.2-0.5-0.6-0.6-1l-2.6,0.6c0.2,0.9,0.6,1.6,1.2,2.2c0.6,0.5,1.3,0.9,2.1,1s1.8,0.1,2.8-0.1c1-0.2,1.9-0.6,2.6-1.1
		c0.7-0.5,1.1-1.1,1.4-1.7c0.3-0.7,0.3-1.4,0.1-2.2c-0.1-0.5-0.3-1-0.6-1.4c-0.3-0.4-0.6-0.7-1-0.9c-0.4-0.2-0.9-0.4-1.4-0.5
		s-1.1-0.2-1.6-0.1l-1.2,0c-0.4,0-0.8,0-1.1-0.1c-0.3-0.1-0.6-0.2-0.9-0.3c-0.2-0.2-0.4-0.4-0.4-0.7c-0.1-0.3,0-0.5,0.1-0.8
		s0.3-0.5,0.6-0.7c0.3-0.2,0.6-0.3,1.1-0.4c0.6-0.1,1.2-0.1,1.6,0.1c0.4,0.2,0.7,0.5,0.9,1l2.6-0.6c-0.2-0.8-0.5-1.4-1.1-1.9
		c-0.5-0.5-1.2-0.8-2-1c-0.8-0.2-1.7-0.1-2.6,0.1c-0.9,0.2-1.7,0.6-2.4,1.1s-1.1,1.1-1.4,1.7c-0.3,0.7-0.3,1.4-0.2,2.2
		C128.6,9.8,129.1,10.5,129.8,10.9z"/>
	<rect x="144.4" y="1.7" transform="matrix(0.9896 -0.1439 0.1439 0.9896 0.3344 21.061)" class="st0" width="2.8" height="13.1"/>
	<path class="st0" d="M154.1,10.8c0.6,1,1.3,1.7,2.3,2.2c1,0.5,2.1,0.7,3.3,0.6c1.1-0.1,2.1-0.3,2.9-0.8c0.8-0.5,1.5-1.2,1.9-2
		c0.4-0.9,0.6-1.9,0.6-3l-0.1-1.6l-5.5,0.3l0.1,2.1l2.8-0.2c0,0.5-0.1,1-0.3,1.4c-0.2,0.4-0.5,0.8-1,1c-0.4,0.2-1,0.4-1.6,0.4
		c-0.7,0-1.3-0.1-1.8-0.4c-0.5-0.3-0.9-0.8-1.3-1.4c-0.3-0.6-0.5-1.4-0.5-2.3c-0.1-0.9,0-1.7,0.3-2.3c0.2-0.6,0.6-1.2,1.1-1.5
		c0.5-0.4,1.1-0.6,1.7-0.6c0.4,0,0.7,0,1,0.1c0.3,0.1,0.6,0.2,0.8,0.3c0.2,0.2,0.5,0.3,0.6,0.6s0.3,0.5,0.4,0.8l2.8-0.2
		c-0.1-0.6-0.4-1.2-0.7-1.7c-0.3-0.5-0.8-1-1.3-1.3s-1.1-0.6-1.8-0.8c-0.7-0.2-1.3-0.2-2.1-0.2c-1.2,0.1-2.2,0.4-3.1,1
		c-0.9,0.6-1.6,1.4-2.1,2.4c-0.5,1-0.7,2.3-0.6,3.7C153.2,8.6,153.5,9.8,154.1,10.8z"/>
	<polygon class="st0" points="173.9,5 174,5 179.2,13.6 181.6,13.7 182.3,0.6 179.6,0.4 179.1,8.7 179,8.7 173.8,0.1 171.4,0 
		170.7,13.1 173.4,13.2 	"/>
	<path class="st0" d="M198.3,11.9l2.3,0.5c1,0.2,1.9,0.2,2.6,0c0.8-0.2,1.4-0.6,1.9-1.2s0.9-1.3,1-2.1c0.2-0.9,0.2-1.6-0.1-2.4
		s-0.6-1.4-1.2-1.9s-1.4-0.9-2.4-1.1l-5.1-1.1l-2.8,12.8l2.7,0.6L198.3,11.9z M201.5,5.9c0.5,0.1,0.9,0.3,1.2,0.5
		c0.3,0.3,0.5,0.6,0.6,0.9c0.1,0.4,0.1,0.7,0,1.2c-0.1,0.4-0.3,0.8-0.5,1.1c-0.2,0.3-0.5,0.5-0.9,0.6c-0.4,0.1-0.8,0.1-1.4,0
		l-1.8-0.4l0.9-4.3L201.5,5.9z"/>
	
		<rect x="205.9" y="11.8" transform="matrix(0.2895 -0.9572 0.9572 0.2895 138.3776 212.737)" class="st0" width="13.1" height="2.8"/>
	<path class="st0" d="M220.1,22c0.7,0.8,1.5,1.5,2.6,1.9c1.1,0.4,2.1,0.6,3.2,0.4c1.1-0.1,2-0.6,2.9-1.3c0.9-0.7,1.6-1.8,2.1-3.1
		c0.5-1.3,0.7-2.6,0.6-3.7c-0.1-1.1-0.5-2.1-1.2-3c-0.7-0.8-1.5-1.5-2.6-1.9c-1.1-0.4-2.2-0.6-3.2-0.4c-1.1,0.1-2,0.6-2.9,1.3
		c-0.9,0.7-1.6,1.8-2.1,3.1c-0.5,1.3-0.7,2.5-0.6,3.7C219,20.2,219.4,21.1,220.1,22z M222.1,16.4c0.3-0.9,0.8-1.5,1.3-2
		c0.5-0.5,1-0.8,1.6-0.9c0.6-0.1,1.2-0.1,1.8,0.2c0.6,0.2,1.1,0.6,1.4,1.1c0.3,0.5,0.5,1.1,0.5,1.8c0,0.7-0.1,1.5-0.5,2.3
		s-0.8,1.5-1.3,2s-1,0.8-1.6,0.9c-0.6,0.1-1.2,0.1-1.8-0.2c-0.6-0.2-1.1-0.6-1.4-1.1s-0.5-1.1-0.5-1.8
		C221.6,18,221.8,17.3,222.1,16.4z"/>
	<polygon class="st0" points="239.6,22.4 239.7,22.4 240.8,32.4 242.9,33.6 249.2,22 246.7,20.7 242.8,28 242.7,27.9 241.7,18 
		239.5,16.8 233.2,28.3 235.7,29.6 	"/>
	<polygon class="st0" points="254.9,41.5 256.2,39.6 251.2,36.2 252.9,33.6 257.6,36.8 258.8,34.9 254.2,31.7 256,29.2 261,32.6 
		262.3,30.7 255,25.7 247.6,36.5 	"/>
	<polygon class="st0" points="266,50.6 267.5,48.8 262.8,44.9 264.8,42.5 269.1,46.1 270.6,44.4 266.3,40.8 268.3,38.4 273,42.3 
		274.4,40.5 267.7,34.8 259.2,44.9 	"/>
	<path class="st0" d="M271.9,56.3l3.3-3.2l1.4,1.5l-1.6,5l2.1,2.2l1.7-5.6c0,0,0.1,0,0.1,0.1c0.7,0.3,1.5,0.3,2.2,0.2
		c0.7-0.2,1.4-0.6,2-1.2c0.6-0.6,1-1.3,1.2-2c0.2-0.7,0.2-1.4,0-2.2c-0.2-0.7-0.7-1.5-1.4-2.2l-3.6-3.7l-9.4,9.1L271.9,56.3z
		 M279.7,48.7l1.3,1.3c0.4,0.4,0.6,0.8,0.8,1.1s0.2,0.7,0.1,1c-0.1,0.3-0.3,0.6-0.6,1c-0.3,0.3-0.6,0.5-1,0.6c-0.3,0.1-0.7,0-1-0.1
		c-0.3-0.2-0.7-0.4-1.1-0.8l-1.3-1.4L279.7,48.7z"/>
	<path class="st0" d="M288.3,76.2c0.5,0.7,1,1.2,1.6,1.6c0.6,0.4,1.2,0.7,1.8,0.8c0.6,0.1,1.3,0.2,1.9,0.1c0.6-0.1,1.2-0.3,1.7-0.6
		l-1.6-2.3c-0.3,0.1-0.6,0.2-1,0.3c-0.3,0-0.6,0-0.9-0.1c-0.3-0.1-0.6-0.2-0.8-0.4c-0.3-0.2-0.5-0.5-0.7-0.8
		c-0.4-0.5-0.6-1.1-0.6-1.7s0.1-1.2,0.5-1.8c0.4-0.6,0.9-1.2,1.7-1.7c0.7-0.5,1.5-0.9,2.1-1s1.3-0.1,1.9,0.1s1,0.6,1.4,1.2
		c0.2,0.3,0.4,0.6,0.5,0.9c0.1,0.3,0.1,0.6,0.1,1c0,0.3-0.1,0.6-0.2,0.9c-0.1,0.3-0.3,0.6-0.6,0.8l1.6,2.3c0.6-0.5,1-1.1,1.3-1.7
		c0.3-0.6,0.5-1.2,0.5-1.9c0-0.6,0-1.3-0.2-2c-0.2-0.7-0.5-1.3-1-1.9c-0.7-0.9-1.5-1.6-2.4-2.1c-1-0.5-2-0.6-3.1-0.5
		c-1.1,0.1-2.3,0.6-3.5,1.4c-1.2,0.8-2,1.7-2.5,2.7s-0.7,2-0.6,3.1C287.3,74.2,287.7,75.2,288.3,76.2z"/>
	<path class="st0" d="M297.3,84.3c-0.6,1-1,2-1,3s0.2,2.1,0.8,3.1c0.5,1,1.3,1.8,2.2,2.4c0.9,0.6,1.9,0.9,3.1,0.9
		c1.1,0,2.3-0.3,3.6-1c1.3-0.7,2.2-1.5,2.8-2.4c0.6-1,1-2,1-3c0-1.1-0.2-2.1-0.8-3.1c-0.6-1-1.3-1.8-2.2-2.4s-1.9-0.8-3.1-0.8
		c-1.1,0-2.3,0.3-3.6,1C298.9,82.6,298,83.4,297.3,84.3z M303.7,83.6c0.7-0.1,1.3,0.1,1.8,0.3c0.5,0.3,0.9,0.7,1.3,1.3
		c0.3,0.6,0.5,1.2,0.4,1.8s-0.3,1.2-0.7,1.7c-0.4,0.5-1.1,1-1.9,1.5s-1.6,0.7-2.3,0.7c-0.7,0.1-1.3-0.1-1.8-0.3s-0.9-0.7-1.3-1.3
		c-0.3-0.6-0.5-1.2-0.4-1.8c0.1-0.6,0.3-1.2,0.7-1.7s1.1-1,1.9-1.5S303.1,83.7,303.7,83.6z"/>
	<path class="st0" d="M304.5,99.5c-0.4-0.2-0.8-0.2-1.2,0c-0.4,0.2-0.7,0.5-0.8,0.8c-0.2,0.4-0.1,0.8,0,1.2c0.2,0.4,0.4,0.6,0.8,0.8
		c0.4,0.2,0.8,0.2,1.2,0c0.4-0.2,0.7-0.5,0.8-0.9c0.2-0.4,0.1-0.8,0-1.2C305.1,99.9,304.9,99.6,304.5,99.5z"/>
</g>
<path class="st0" d="M181.2,156.6C181.2,156.6,181.2,156.7,181.2,156.6l-2.3,2.3c0,0,0,0,0,0l-0.3,0.3l-0.8,0.8l-2.5,2.5l-3.4,3.4
	l-0.1,0.1l-0.7,0.7l-0.6,0.6l-12.9,12.9h27.7v0c0,0,0,0,0.1,0h8.3c1.5-0.5,3-1.3,4.2-2.3c0.3-0.2,0.6-0.5,0.8-0.7
	c0.1-0.1,0.2-0.2,0.3-0.3c0.3-0.3,0.7-0.7,1-1.1c0.6-0.7,1.1-1.5,1.5-2.3c0.4-0.8,0.8-1.7,1-2.6c0.3-1.1,0.4-2.2,0.4-3.4
	c0-0.2,0-0.5,0-0.7c0-1-0.2-2-0.5-2.9c-0.4-1.4-1-2.7-1.7-3.8c-0.5-0.8-1.1-1.5-1.8-2.2c-0.1-0.1-0.1-0.1-0.2-0.2
	c-1.6-1.5-3.6-2.7-5.9-3.3c-0.3-0.1-0.6-0.1-0.8-0.2c-0.8-0.2-1.6-0.2-2.5-0.2c-0.3,0-0.6,0-0.9,0c0-0.2,0-0.5,0-0.7
	c0-0.1,0-0.2,0-0.3c0-1.2-0.2-2.3-0.4-3.4c-0.3-1.1-0.7-2.1-1.2-3c-0.5-0.8-1-1.6-1.7-2.4c-0.2-0.2-0.4-0.4-0.6-0.6
	c-1.6-1.6-3.7-2.9-6-3.5c0,0-0.1,0-0.1,0c-0.3-0.1-0.6-0.1-0.9-0.2c-0.8-0.2-1.6-0.2-2.5-0.2s-1.7,0.1-2.5,0.2
	c-0.3,0.1-0.6,0.1-0.8,0.2c0,0-0.1,0-0.1,0c-2.3,0.6-4.3,1.8-6,3.4c0,0,0,0-0.1,0.1c0,0,0,0-0.1,0.1c-0.2,0.2-0.3,0.4-0.5,0.5v0
	l-2.4,2.4l-1.7,1.7l-2.5,2.6l-2.2,2.2l-0.2,0.2l-4.3,4.3l-0.2,0.2l-2.2,2.2l-2.5,2.5l-4.8,4.8l-3.7,3.7l-1.1,1.1l-8.1,8.1h9.5
	l19.8-19.8l0.3-0.3l2.2-2.2l1.3-1.3l2.9-2.9l0.3-0.3l0.2-0.2l3.5-3.5l1.3-1.3l1.3-1.3l0.1-0.1v0c0.3-0.1,0.5-0.3,0.8-0.4
	c0.8-0.3,1.6-0.5,2.5-0.5s1.7,0.2,2.5,0.5c0.3,0.1,0.6,0.2,0.9,0.4c0.1,0,0.1,0.1,0.2,0.1c0.5,0.3,1,0.7,1.4,1.1
	c0.4,0.4,0.8,0.9,1,1.4c0.6,1,1,2.2,1,3.5c0,0.1,0,0.2,0,0.3C182.1,154.5,181.8,155.7,181.2,156.6z M183.9,163.4
	c0.1-0.2,0.2-0.3,0.3-0.4c0.1-0.2,0.3-0.3,0.5-0.5c0.1-0.1,0.3-0.3,0.5-0.4c0,0,0,0,0,0c0.1-0.1,0.1-0.1,0.2-0.2v0.1
	c0.1-0.1,0.2-0.1,0.2-0.2c1.1-0.8,2.5-1.3,4-1.3c0.9,0,1.7,0.2,2.5,0.5c0.4,0.2,0.8,0.4,1.2,0.6c0.4,0.3,0.8,0.6,1.1,0.9
	c0.4,0.4,0.7,0.8,1,1.3c0.6,0.9,0.9,1.9,1,3c0,0.2,0,0.5,0,0.7c0,1.2-0.3,2.2-0.8,3.2c-0.3,0.6-0.7,1.2-1.2,1.7
	c-0.4,0.5-1,0.8-1.5,1.2c-0.1,0-0.2,0.1-0.2,0.1l0.1-0.1h-6.7l0,0c0,0,0,0,0,0h-12.3l2.7-2.7l2.1-2.1l1.4-1.4l0.6-0.6L183.9,163.4z"
	/>
</svg>
