<svg fill="none" viewBox="0 0 69 80" xmlns="http://www.w3.org/2000/svg"><g clip-path="url(#a)"><path d="M51.4 68.2c.8-.7 1.8-.8 1.8-.8s-1-.2-1.8-.9c-.7-.8-.9-1.8-.9-1.8s-.1 1-.8 1.8c-.8.7-1.9.9-1.9.9s1 .1 1.9.8c.7.8.8 1.9.8 1.9s.2-1.1.9-1.9zM61.6 73l.5-.2s-.3 0-.5-.2l-.2-.4-.2.4-.4.2.4.2c.2.2.2.5.2.5l.2-.5zM54.1 75.6c.4-.3 1-.4 1-.4s-.6 0-1-.4c-.3-.4-.4-1-.4-1s0 .6-.4 1c-.4.3-1 .4-1 .4s.6 0 1 .4c.3.4.4 1 .4 1s0-.6.4-1zM63 64.7c.4-.4 1-.5 1-.5s-.6 0-1-.4c-.3-.4-.4-.9-.4-.9s0 .5-.4 1c-.4.3-1 .3-1 .3s.6.1 1 .5c.3.4.4.9.4.9s0-.6.4-1zM57.7 66.8l.6-.3s-.4 0-.6-.3c-.3-.2-.3-.6-.3-.6s0 .4-.3.6c-.3.3-.6.3-.6.3s.3 0 .6.3l.3.6s0-.3.3-.6zM44.3 75.4l.6-.2s-.3 0-.6-.3l-.3-.6-.2.6-.7.3s.4 0 .7.2c.2.3.2.7.2.7s0-.4.3-.7zM25.3 28l-5.8 10 .4.3 5.8-10-.4-.2zM17.3 53.8h-6.8l9-15.7.4.2-8.7 15h6.1v.5zM58.5 53.8H28.8v-.5h29L54.7 48l.3-.2 3.5 6zM43.7 28l-.4.3 5.8 10 .3-.2-5.7-10zM38 19.1 34.5 13 31 19l-.4-.2 3.9-6.8 3.9 6.8-.4.2zM18.5 27.8l-2.7 4.7.3.2 2.7-4.7-.3-.2z"/><path d="M20.4 59.8H0l15.8-27.3.3.2L.7 59.4h19.7v.4zM69 59.8H32.3v-.4h36L58.2 41.9l.4-.2L69 59.8zM50.6 27.9l-.4.2 2.7 4.6.3-.2-2.6-4.6zM44.8 18.8 34.5.8l-10.3 18-.4-.3L34.5 0l10.7 18.6-.4.2z"/><path d="M38 19.1 34.5 13l-3.3 5.8-.4-.2 3.7-6.5 3.9 6.8-.4.2z"/><path d="M34.7.4h-.4v12.2h.4V.4zM10.8 53.3.3 59.4l.2.4 10.5-6-.2-.5zM58.2 53.4l-.2.3 10.5 6 .2-.3-10.5-6zM10.4 38.3 0 20.2h30v.4H.7l10.1 17.5-.4.2zM34.5 80 16 48l.4-.2L34.5 79l10.2-17.7.4.2L34.5 80zM50.8 51.7l-.3-.2 17.8-30.9H39v-.4h30L50.8 51.7ZM39 20.2h-9v.4h9v-.4z"/><path d="m34.5 67.9-15-26 .4-.2L34.5 67l3.2-5.6.4.2-3.6 6.3zM43.8 51.7l-.3-.2 14.3-24.8H11.2l3 5.1-.4.2-3.3-5.8h48L43.8 51.7z"/><path d="M34.7 67.4h-.4v12.2h.4V67.4zM68.5 20.2l-10.5 6 .2.4 10.5-6-.2-.4zM.5 20.2l-.2.4 10.5 6 .2-.3-10.5-6zM17.6 11.8c-.8.7-1.8.8-1.8.8s1 .2 1.8.9c.7.8.9 1.8.9 1.8s.1-1 .8-1.8c.8-.7 1.9-.9 1.9-.9s-1-.1-1.9-.8c-.7-.8-.8-1.9-.8-1.9s-.2 1.1-.9 1.9zM7.4 7l-.5.2s.3 0 .5.2l.2.4.2-.4.4-.2-.4-.2c-.2-.2-.2-.5-.2-.5l-.2.5zM14.9 4.4c-.4.3-1 .4-1 .4s.6 0 1 .4c.3.4.4 1 .4 1s0-.6.4-1c.4-.3 1-.4 1-.4s-.6 0-1-.4c-.3-.4-.4-1-.4-1s0 .6-.4 1zM6 15.3c-.4.4-1 .5-1 .5s.6 0 1 .4c.3.4.4.9.4.9s0-.5.4-1c.4-.3 1-.3 1-.3s-.6-.1-1-.5c-.3-.4-.4-.9-.4-.9s0 .5-.4 1zM11.3 13.2l-.6.3s.4 0 .6.3c.3.2.3.6.3.6s0-.4.3-.6c.3-.3.6-.3.6-.3s-.3 0-.6-.3l-.3-.6s0 .3-.3.6zM24.7 4.6l-.6.2s.3 0 .6.3l.3.6.2-.6.7-.3s-.4 0-.7-.2c-.2-.3-.2-.7-.2-.7s0 .4-.3.7zM51.2 11.8c.8.7 1.8.8 1.8.8s-1 .2-1.8.9c-.7.8-.9 1.8-.9 1.8s-.1-1-.8-1.8c-.8-.7-1.9-.9-1.9-.9s1.1-.1 2-.8c.6-.8.7-1.9.7-1.9s.2 1.1.9 1.9zM61.4 7l.5.2s-.3 0-.5.2l-.2.4-.2-.4-.4-.2.4-.2c.2-.2.2-.5.2-.5l.2.5zM54 4.4c.4.3.9.4.9.4s-.5 0-1 .4c-.3.4-.4 1-.4 1s0-.6-.4-1c-.4-.3-1-.4-1-.4s.6 0 1-.4.4-1 .4-1 .1.6.5 1zM62.8 15.3c.4.4 1 .5 1 .5s-.6 0-1 .4c-.3.4-.4.9-.4.9s0-.5-.4-1c-.4-.3-1-.3-1-.3s.6-.1 1-.5c.3-.4.4-.9.4-.9s0 .5.4 1zM57.5 13.2l.6.3s-.4 0-.6.3c-.3.2-.3.6-.3.6s0-.4-.3-.6c-.2-.3-.6-.3-.6-.3s.4 0 .6-.3c.3-.3.3-.6.3-.6s0 .3.3.6zM44.1 4.6l.6.2s-.3 0-.6.3l-.3.6-.2-.6-.6-.3.6-.2c.2-.3.2-.7.2-.7s.1.4.3.7zM17.8 68.2c-.8-.7-1.8-.8-1.8-.8s1-.2 1.8-.9c.7-.8.9-1.8.9-1.8s.1 1 .8 1.8c.8.7 1.9.9 1.9.9s-1.1.1-2 .8c-.6.8-.7 1.9-.7 1.9s-.2-1.1-.9-1.9zM7.6 73l-.5-.2s.3 0 .5-.2l.2-.4.2.4.4.2-.4.2c-.2.2-.2.5-.2.5l-.2-.5zM15 75.6c-.4-.3-.9-.4-.9-.4s.5 0 1-.4c.3-.4.4-1 .4-1s0 .6.4 1c.4.3 1 .4 1 .4s-.6 0-1 .4-.4 1-.4 1-.1-.6-.5-1zM6.2 64.7c-.4-.4-1-.5-1-.5s.6 0 1-.4c.3-.4.4-.9.4-.9s0 .5.4 1c.4.3 1 .3 1 .3s-.6.1-1 .5c-.3.4-.4.9-.4.9s0-.6-.4-1zM11.5 66.8l-.6-.3s.4 0 .6-.3c.3-.2.3-.6.3-.6s0 .4.3.6c.2.3.6.3.6.3s-.4 0-.6.3c-.3.3-.3.6-.3.6s0-.3-.3-.6zM24.9 75.4l-.6-.2s.3 0 .6-.3l.3-.6.2.6.6.3-.6.2c-.2.3-.2.7-.2.7s-.1-.4-.3-.7zM40.3 30H28.7L23 40l5.7 10H40.5l5.7-10-5.7-10h-.2zm.1 14.9c-.1 0-.3-.1-.2-.3a6.6 6.6 0 0 0 .7-4.6c0-.2-.4-.2-.4 0a6 6 0 0 1-5.9 6 6 6 0 0 1-6-6c0-.2-.2-.2-.3 0a6.9 6.9 0 0 0 .7 4.6c.1.2 0 .4-.2.3a5.7 5.7 0 0 1-2.5-4.5c0-3.5 3.7-6.3 8.3-6.3 4.6 0 8.3 2.8 8.3 6.3 0 1.7-1 3.3-2.5 4.5z"/><path d="M39 39c.4-1 0-2.3-1.2-2.8-1.2-.6-2.6-.3-3 .8-.6 1 0 2.3 1.1 2.9s2.5.2 3-.8zM34.8 40.5c.2-.3 0-.7-.3-1-.4-.1-.9 0-1 .3-.2.4 0 .8.4 1 .3.2.8 0 1-.3zM20.9 27.7l-17.2 30h-.2l17.4-30zM34.6 4l-8.9 15.2L34.4 4l.2.1zM22.4 27.7 6 56.4h-.2l16.6-28.7zM34.7 6.5l-7.5 12.8 7.3-13 .2.2zM23.7 27.8 8.2 55h-.3l15.8-27.3zM34.7 9l-6 10.3 5.8-10.5.2.1zM57.2 43.4l8.3 14.2-.2.2-8-14.4zM48.3 27.6l3.8 6.9-4-6.8.2-.1z"/><path d="m34.6 3.9 8.7 15.4L34.4 4l.2-.1zM56.3 44.5l7 11.8-.3.1-6.7-11.9zM46.8 27.6l4.4 8-4.7-7.9.3-.1zM34.5 6.3l7.3 13-7.5-12.8.2-.2zM55.7 45.9l5.4 9.1-.2.1-5.2-9.2zM45.3 27.6l5 9-5.2-8.9.2-.1zM34.5 8.8l5.9 10.5-6-10.4h.1zM20 57.9H3.4v-.2L20 58zM65.5 58 31 57.9l34.4-.2v.3zM19.3 56.6H5.8v-.2l13.5.2zM63.4 56.7 30 56.6l33.4-.2v.3zM18.7 55.3 8 55.5v-.3l10.7.1zM61.2 55.4H29.5l31.7-.2v.2zM48 52.4l17.2-30.1h.3L48 52.4zM34.4 76l8.9-15.2L34.6 76l-.2-.1zM46.6 52.4 63 23.6l.2.1-16.6 28.7zM34.3 73.5l7.5-12.8-7.3 13-.2-.2zM45.2 52.2 60.8 25l.2.1-15.8 27.2zM34.3 71l6-10.3-5.8 10.5-.2-.1zM11.8 36.6 3.5 22.4l.2-.1 8 14.3z"/><path d="M17 45.6 34.5 76l-.2.1-17.5-30.5zM12.7 35.5l-7-11.8.2-.1 6.8 11.9zM17.8 44.4l16.9 29.1-.3.2-16.6-29.3zM13.3 34.1 7.9 25l.2-.1 5.2 9.2zM18.6 43.4l16 27.7-.2.1-15.8-27.8zM3.5 22.2l62-.2v.3l-62-.1zM5.6 23.5l57.6-.2v.3l-57.6-.1zM61 24.8l-53.3-.1 53.3-.1v.2z"/></g><defs><clipPath id="a"><path fill="#fff" d="M0 0H69V80H0z"/></clipPath></defs></svg>