<svg width="32" height="32" viewBox="0 0 32 32" fill="none" xmlns="http://www.w3.org/2000/svg">
<path d="M8.48 11.5762L3.17125 16L8.48 20.4237C8.55657 20.4865 8.61996 20.5638 8.66651 20.6512C8.71306 20.7385 8.74186 20.8342 8.75123 20.9328C8.76061 21.0313 8.75039 21.1308 8.72115 21.2254C8.69191 21.3199 8.64423 21.4078 8.58088 21.4839C8.51752 21.5599 8.43972 21.6227 8.35199 21.6685C8.26425 21.7144 8.16831 21.7424 8.06968 21.751C7.97106 21.7596 7.87171 21.7486 7.77737 21.7186C7.68303 21.6886 7.59556 21.6402 7.52 21.5762L1.52 16.5762C1.43551 16.5059 1.36753 16.4178 1.32087 16.3182C1.27422 16.2186 1.25004 16.11 1.25004 16C1.25004 15.89 1.27422 15.7814 1.32087 15.6818C1.36753 15.5822 1.43551 15.4941 1.52 15.4237L7.52 10.4237C7.67305 10.2983 7.86946 10.2385 8.06644 10.2572C8.26342 10.276 8.44502 10.3718 8.57166 10.5238C8.69831 10.6759 8.75974 10.8718 8.74257 11.0689C8.7254 11.266 8.63102 11.4484 8.48 11.5762ZM30.48 15.4237L24.48 10.4237C24.4044 10.3598 24.317 10.3114 24.2226 10.2814C24.1283 10.2514 24.0289 10.2404 23.9303 10.249C23.8317 10.2576 23.7357 10.2856 23.648 10.3315C23.5603 10.3773 23.4825 10.4401 23.4191 10.5161C23.3558 10.5922 23.3081 10.6801 23.2789 10.7746C23.2496 10.8692 23.2394 10.9687 23.2488 11.0672C23.2581 11.1658 23.2869 11.2615 23.3335 11.3488C23.38 11.4362 23.4434 11.5135 23.52 11.5762L28.8288 16L23.52 20.4237C23.4434 20.4865 23.38 20.5638 23.3335 20.6512C23.2869 20.7385 23.2581 20.8342 23.2488 20.9328C23.2394 21.0313 23.2496 21.1308 23.2789 21.2254C23.3081 21.3199 23.3558 21.4078 23.4191 21.4839C23.4825 21.5599 23.5603 21.6227 23.648 21.6685C23.7357 21.7144 23.8317 21.7424 23.9303 21.751C24.0289 21.7596 24.1283 21.7486 24.2226 21.7186C24.317 21.6886 24.4044 21.6402 24.48 21.5762L30.48 16.5762C30.5645 16.5059 30.6325 16.4178 30.6791 16.3182C30.7258 16.2186 30.75 16.11 30.75 16C30.75 15.89 30.7258 15.7814 30.6791 15.6818C30.6325 15.5822 30.5645 15.4941 30.48 15.4237ZM20.2563 4.29875C20.1635 4.26514 20.0651 4.25016 19.9665 4.25466C19.868 4.25915 19.7713 4.28305 19.682 4.32496C19.5927 4.36688 19.5126 4.426 19.4462 4.49893C19.3798 4.57186 19.3284 4.65718 19.295 4.75L11.295 26.75C11.2292 26.937 11.2402 27.1424 11.3255 27.3214C11.4107 27.5003 11.5634 27.6383 11.75 27.705C11.8303 27.7338 11.9147 27.749 12 27.75C12.154 27.75 12.3042 27.7027 12.4304 27.6143C12.5565 27.526 12.6524 27.401 12.705 27.2562L20.705 5.25625C20.7387 5.16367 20.7538 5.06536 20.7494 4.96694C20.7451 4.86853 20.7214 4.77193 20.6798 4.68266C20.6381 4.5934 20.5792 4.51322 20.5066 4.4467C20.4339 4.38018 20.3488 4.32863 20.2563 4.295V4.29875Z" fill="#B56E46"/>
</svg>
