<svg width="69" height="80" viewBox="0 0 69 80" fill="none" xmlns="http://www.w3.org/2000/svg">
<g clip-path="url(#clip0_93_2274)">
<path d="M51.362 68.1948C52.153 67.5056 53.2263 67.3558 53.2263 67.3558C53.2263 67.3558 52.1573 67.2103 51.362 66.5169C50.6735 65.725 50.5239 64.6506 50.5239 64.6506C50.5239 64.6506 50.3785 65.7207 49.6858 66.5169C48.8948 67.206 47.8215 67.3558 47.8215 67.3558C47.8215 67.3558 48.8905 67.5014 49.6858 68.1948C50.3742 68.9866 50.5239 70.061 50.5239 70.061C50.5239 70.061 50.6735 68.9909 51.362 68.1948Z" fill="#B56E46"/>
<path d="M61.607 73.0273C61.7994 72.8604 62.056 72.8261 62.056 72.8261C62.056 72.8261 61.7994 72.7919 61.607 72.6249C61.4402 72.4323 61.406 72.1755 61.406 72.1755C61.406 72.1755 61.3718 72.4323 61.2051 72.6249C61.0126 72.7919 60.7561 72.8261 60.7561 72.8261C60.7561 72.8261 61.0126 72.8604 61.2051 73.0273C61.3718 73.2199 61.406 73.4767 61.406 73.4767C61.406 73.4767 61.4402 73.2199 61.607 73.0273Z" fill="#B56E46"/>
<path d="M54.137 75.634C54.5347 75.2873 55.0692 75.2146 55.0692 75.2146C55.0692 75.2146 54.5347 75.1418 54.137 74.7951C53.7907 74.397 53.718 73.862 53.718 73.862C53.718 73.862 53.6453 74.397 53.2989 74.7951C52.9013 75.1418 52.3668 75.2146 52.3668 75.2146C52.3668 75.2146 52.9013 75.2873 53.2989 75.634C53.6453 76.0321 53.718 76.5672 53.718 76.5672C53.718 76.5672 53.7907 76.0321 54.137 75.634Z" fill="#B56E46"/>
<path d="M63.0009 64.6592C63.3943 64.3168 63.9245 64.244 63.9245 64.244C63.9245 64.244 63.3943 64.1712 63.0009 63.8288C62.6589 63.435 62.5862 62.9042 62.5862 62.9042C62.5862 62.9042 62.5135 63.435 62.1714 63.8288C61.778 64.1712 61.2478 64.244 61.2478 64.244C61.2478 64.244 61.778 64.3168 62.1714 64.6592C62.5135 65.053 62.5862 65.5837 62.5862 65.5837C62.5862 65.5837 62.6589 65.0487 63.0009 64.6592Z" fill="#B56E46"/>
<path d="M57.6518 66.7908C57.9126 66.5639 58.2632 66.5169 58.2632 66.5169C58.2632 66.5169 57.9126 66.4698 57.6518 66.2429C57.4252 65.9818 57.3781 65.6308 57.3781 65.6308C57.3781 65.6308 57.3311 65.9818 57.1045 66.2429C56.8437 66.4698 56.493 66.5169 56.493 66.5169C56.493 66.5169 56.8437 66.5639 57.1045 66.7908C57.3311 67.0519 57.3781 67.4029 57.3781 67.4029C57.3781 67.4029 57.4252 67.0519 57.6518 66.7908Z" fill="#B56E46"/>
<path d="M44.3025 75.4414C44.5633 75.2146 44.9139 75.1675 44.9139 75.1675C44.9139 75.1675 44.5633 75.1204 44.3025 74.8935C44.0758 74.6324 44.0288 74.2814 44.0288 74.2814C44.0288 74.2814 43.9818 74.6324 43.7552 74.8935C43.4943 75.1204 43.1437 75.1675 43.1437 75.1675C43.1437 75.1675 43.4943 75.2146 43.7552 75.4414C43.9818 75.7025 44.0288 76.0535 44.0288 76.0535C44.0288 76.0535 44.0758 75.6982 44.3025 75.4414Z" fill="#B56E46"/>
<path d="M25.3171 28.053L19.5468 38.0576L19.9171 38.2716L25.6874 28.267L25.3171 28.053Z" fill="#B56E46"/>
<path d="M17.3088 53.7528H10.4973L19.5494 38.0567L19.9171 38.2707L11.237 53.3248H17.3088V53.7528Z" fill="#B56E46"/>
<path d="M58.5027 53.7528H28.8195V53.3248H57.763L54.6801 47.9743L55.0478 47.7603L58.5027 53.7528Z" fill="#B56E46"/>
<path d="M43.678 28.0478L43.3078 28.2618L49.0781 38.2665L49.4484 38.0525L43.678 28.0478Z" fill="#B56E46"/>
<path d="M38.0255 19.099L34.4979 12.9909L30.9745 19.099L30.6068 18.885L34.4979 12.1348L38.3932 18.885L38.0255 19.099Z" fill="#B56E46"/>
<path d="M18.4768 27.7825L15.7702 32.4753L16.1405 32.6893L18.8471 27.9965L18.4768 27.7825Z" fill="#B56E46"/>
<path d="M20.4387 59.8181H0L15.7695 32.4751L16.1415 32.6891L0.739729 59.3901H20.4387V59.8181Z" fill="#B56E46"/>
<path d="M69 59.8181H32.2958V59.3901H68.2603L58.1948 41.9433L58.5668 41.7293L69 59.8181Z" fill="#B56E46"/>
<path d="M50.5894 27.8969L50.2191 28.1109L52.8595 32.6888L53.2298 32.4747L50.5894 27.8969Z" fill="#B56E46"/>
<path d="M44.8412 18.7822L34.4979 0.856073L24.1887 18.7309L23.821 18.5169L34.4979 0L45.209 18.5682L44.8412 18.7822Z" fill="#B56E46"/>
<path d="M38.0255 19.099L34.4979 12.9909L31.1584 18.7822L30.7864 18.5682L34.4979 12.1348L38.3932 18.885L38.0255 19.099Z" fill="#B56E46"/>
<path d="M34.7117 0.42804H34.2841V12.5629H34.7117V0.42804Z" fill="#B56E46"/>
<path d="M10.7614 53.3481L0.263611 59.4156L0.477405 59.7862L10.9752 53.7188L10.7614 53.3481Z" fill="#B56E46"/>
<path d="M58.2385 53.3528L58.0247 53.7235L68.5224 59.7909L68.7362 59.4202L58.2385 53.3528Z" fill="#B56E46"/>
<path d="M10.4332 38.2707L0 20.1819H29.9825V20.61H0.739729L10.8052 38.0567L10.4332 38.2707Z" fill="#B56E46"/>
<path d="M34.4979 80L16.0303 47.9743L16.4023 47.7603L34.4979 79.1439L44.7258 61.4104L45.0978 61.6244L34.4979 80Z" fill="#B56E46"/>
<path d="M50.836 51.6726L50.4683 51.4585L68.2603 20.61H39.0175V20.1819H69L50.836 51.6726Z" fill="#B56E46"/>
<path d="M39.0175 20.1819H29.9825V20.61H39.0175V20.1819Z" fill="#B56E46"/>
<path d="M34.4979 67.8652L19.5494 41.9433L19.9171 41.7293L34.4979 67.0091L37.7304 61.4104L38.0982 61.6244L34.4979 67.8652Z" fill="#B56E46"/>
<path d="M43.8407 51.6726L43.4687 51.4585L57.763 26.6752H11.237L14.2045 31.8245L13.8368 32.0385L10.4973 26.2472H58.5027L43.8407 51.6726Z" fill="#B56E46"/>
<path d="M34.7117 67.4371H34.2841V79.572H34.7117V67.4371Z" fill="#B56E46"/>
<path d="M68.5227 20.2055L58.0249 26.2729L58.2387 26.6436L68.7365 20.5762L68.5227 20.2055Z" fill="#B56E46"/>
<path d="M0.47623 20.2096L0.262436 20.5803L10.7602 26.6477L10.974 26.2771L0.47623 20.2096Z" fill="#B56E46"/>
<path d="M17.638 11.801C16.847 12.4901 15.7738 12.6399 15.7738 12.6399C15.7738 12.6399 16.8427 12.7854 17.638 13.4789C18.3265 14.2707 18.4761 15.3451 18.4761 15.3451C18.4761 15.3451 18.6215 14.275 19.3142 13.4789C20.1052 12.7897 21.1785 12.6399 21.1785 12.6399C21.1785 12.6399 20.1095 12.4944 19.3142 11.801C18.6258 11.0091 18.4761 9.93472 18.4761 9.93472C18.4761 9.93472 18.3265 11.0091 17.638 11.801Z" fill="#B56E46"/>
<path d="M7.39301 6.96845C7.2006 7.13538 6.94405 7.16963 6.94405 7.16963C6.94405 7.16963 7.2006 7.20387 7.39301 7.3708C7.55977 7.56342 7.59398 7.82024 7.59398 7.82024C7.59398 7.82024 7.62819 7.56342 7.79495 7.3708C7.98736 7.20387 8.24392 7.16963 8.24392 7.16963C8.24392 7.16963 7.98736 7.13538 7.79495 6.96845C7.62819 6.77583 7.59398 6.51901 7.59398 6.51901C7.59398 6.51901 7.55977 6.78011 7.39301 6.96845Z" fill="#B56E46"/>
<path d="M14.863 4.36598C14.4653 4.71269 13.9308 4.78546 13.9308 4.78546C13.9308 4.78546 14.4653 4.85822 14.863 5.20493C15.2093 5.60301 15.282 6.13805 15.282 6.13805C15.282 6.13805 15.3547 5.60301 15.7011 5.20493C16.0987 4.85822 16.6332 4.78546 16.6332 4.78546C16.6332 4.78546 16.0987 4.71269 15.7011 4.36598C15.3547 3.96791 15.282 3.43286 15.282 3.43286C15.282 3.43286 15.2093 3.96791 14.863 4.36598Z" fill="#B56E46"/>
<path d="M5.99908 15.3408C5.6057 15.6832 5.07549 15.756 5.07549 15.756C5.07549 15.756 5.6057 15.8288 5.99908 16.1712C6.34115 16.565 6.41384 17.0958 6.41384 17.0958C6.41384 17.0958 6.48653 16.565 6.8286 16.1712C7.22198 15.8288 7.75219 15.756 7.75219 15.756C7.75219 15.756 7.22198 15.6832 6.8286 15.3408C6.48653 14.947 6.41384 14.4163 6.41384 14.4163C6.41384 14.4163 6.34115 14.947 5.99908 15.3408Z" fill="#B56E46"/>
<path d="M11.3482 13.2049C11.0874 13.4318 10.7368 13.4789 10.7368 13.4789C10.7368 13.4789 11.0874 13.526 11.3482 13.7528C11.5748 14.0139 11.6219 14.3649 11.6219 14.3649C11.6219 14.3649 11.6689 14.0139 11.8955 13.7528C12.1564 13.526 12.507 13.4789 12.507 13.4789C12.507 13.4789 12.1564 13.4318 11.8955 13.2049C11.6689 12.9438 11.6219 12.5928 11.6219 12.5928C11.6219 12.5928 11.5748 12.9481 11.3482 13.2049Z" fill="#B56E46"/>
<path d="M24.6975 4.55859C24.4367 4.78545 24.0861 4.83254 24.0861 4.83254C24.0861 4.83254 24.4367 4.87962 24.6975 5.10648C24.9242 5.36758 24.9712 5.71857 24.9712 5.71857C24.9712 5.71857 25.0182 5.36758 25.2448 5.10648C25.5057 4.87962 25.8563 4.83254 25.8563 4.83254C25.8563 4.83254 25.5057 4.78545 25.2448 4.55859C25.0182 4.29749 24.9712 3.9465 24.9712 3.9465C24.9712 3.9465 24.9242 4.30177 24.6975 4.55859Z" fill="#B56E46"/>
<path d="M51.1824 11.801C51.9734 12.4901 53.0467 12.6399 53.0467 12.6399C53.0467 12.6399 51.9777 12.7854 51.1824 13.4789C50.494 14.2707 50.3443 15.3451 50.3443 15.3451C50.3443 15.3451 50.1989 14.275 49.5062 13.4789C48.7152 12.7897 47.6419 12.6399 47.6419 12.6399C47.6419 12.6399 48.7109 12.4944 49.5062 11.801C50.1946 11.0091 50.3443 9.93472 50.3443 9.93472C50.3443 9.93472 50.4897 11.0091 51.1824 11.801Z" fill="#B56E46"/>
<path d="M61.4231 6.96845C61.6155 7.13538 61.8721 7.16963 61.8721 7.16963C61.8721 7.16963 61.6155 7.20387 61.4231 7.3708C61.2564 7.56342 61.2222 7.82024 61.2222 7.82024C61.2222 7.82024 61.188 7.56342 61.0212 7.3708C60.8288 7.20387 60.5722 7.16963 60.5722 7.16963C60.5722 7.16963 60.8288 7.13538 61.0212 6.96845C61.188 6.77583 61.2222 6.51901 61.2222 6.51901C61.2222 6.51901 61.2564 6.78011 61.4231 6.96845Z" fill="#B56E46"/>
<path d="M53.9532 4.36598C54.3508 4.71269 54.8853 4.78546 54.8853 4.78546C54.8853 4.78546 54.3508 4.85822 53.9532 5.20493C53.6068 5.60301 53.5341 6.13805 53.5341 6.13805C53.5341 6.13805 53.4614 5.60301 53.1151 5.20493C52.7174 4.85822 52.1829 4.78546 52.1829 4.78546C52.1829 4.78546 52.7174 4.71269 53.1151 4.36598C53.4614 3.96791 53.5341 3.43286 53.5341 3.43286C53.5341 3.43286 53.6111 3.96791 53.9532 4.36598Z" fill="#B56E46"/>
<path d="M62.8213 15.3408C63.2147 15.6832 63.7449 15.756 63.7449 15.756C63.7449 15.756 63.2147 15.8288 62.8213 16.1712C62.4793 16.565 62.4066 17.0958 62.4066 17.0958C62.4066 17.0958 62.3339 16.565 61.9918 16.1712C61.5984 15.8288 61.0682 15.756 61.0682 15.756C61.0682 15.756 61.5984 15.6832 61.9918 15.3408C62.3339 14.947 62.4066 14.4163 62.4066 14.4163C62.4066 14.4163 62.4793 14.947 62.8213 15.3408Z" fill="#B56E46"/>
<path d="M57.4722 13.2049C57.733 13.4318 58.0837 13.4789 58.0837 13.4789C58.0837 13.4789 57.733 13.526 57.4722 13.7528C57.2456 14.0139 57.1986 14.3649 57.1986 14.3649C57.1986 14.3649 57.1515 14.0139 56.9249 13.7528C56.6641 13.526 56.3134 13.4789 56.3134 13.4789C56.3134 13.4789 56.6641 13.4318 56.9249 13.2049C57.1515 12.9438 57.1986 12.5928 57.1986 12.5928C57.1986 12.5928 57.2456 12.9481 57.4722 13.2049Z" fill="#B56E46"/>
<path d="M44.1229 4.55859C44.3837 4.78545 44.7343 4.83254 44.7343 4.83254C44.7343 4.83254 44.3837 4.87962 44.1229 5.10648C43.8963 5.36758 43.8492 5.71857 43.8492 5.71857C43.8492 5.71857 43.8022 5.36758 43.5756 5.10648C43.3147 4.87962 42.9641 4.83254 42.9641 4.83254C42.9641 4.83254 43.3147 4.78545 43.5756 4.55859C43.8022 4.29749 43.8492 3.9465 43.8492 3.9465C43.8492 3.9465 43.8963 4.30177 44.1229 4.55859Z" fill="#B56E46"/>
<path d="M17.8176 68.1948C17.0266 67.5056 15.9533 67.3558 15.9533 67.3558C15.9533 67.3558 17.0223 67.2103 17.8176 66.5169C18.506 65.725 18.6557 64.6506 18.6557 64.6506C18.6557 64.6506 18.8011 65.7207 19.4938 66.5169C20.2848 67.206 21.3581 67.3558 21.3581 67.3558C21.3581 67.3558 20.2891 67.5014 19.4938 68.1948C18.8054 68.9866 18.6557 70.061 18.6557 70.061C18.6557 70.061 18.5103 68.9909 17.8176 68.1948Z" fill="#B56E46"/>
<path d="M7.57687 73.0273C7.38445 72.8604 7.1279 72.8261 7.1279 72.8261C7.1279 72.8261 7.38445 72.7919 7.57687 72.6249C7.74363 72.4323 7.77783 72.1755 7.77783 72.1755C7.77783 72.1755 7.81204 72.4323 7.9788 72.6249C8.17122 72.7919 8.42777 72.8261 8.42777 72.8261C8.42777 72.8261 8.17122 72.8604 7.9788 73.0273C7.81204 73.2199 7.77783 73.4767 7.77783 73.4767C7.77783 73.4767 7.73935 73.2199 7.57687 73.0273Z" fill="#B56E46"/>
<path d="M15.0426 75.634C14.6449 75.2873 14.1104 75.2146 14.1104 75.2146C14.1104 75.2146 14.6449 75.1418 15.0426 74.7951C15.3889 74.397 15.4616 73.862 15.4616 73.862C15.4616 73.862 15.5343 74.397 15.8806 74.7951C16.2783 75.1418 16.8128 75.2146 16.8128 75.2146C16.8128 75.2146 16.2783 75.2873 15.8806 75.634C15.5343 76.0321 15.4616 76.5672 15.4616 76.5672C15.4616 76.5672 15.3889 76.0321 15.0426 75.634Z" fill="#B56E46"/>
<path d="M6.17866 64.6592C5.78528 64.3168 5.25507 64.244 5.25507 64.244C5.25507 64.244 5.78528 64.1712 6.17866 63.8288C6.52073 63.435 6.59342 62.9042 6.59342 62.9042C6.59342 62.9042 6.66611 63.435 7.00818 63.8288C7.40156 64.1712 7.93177 64.244 7.93177 64.244C7.93177 64.244 7.40156 64.3168 7.00818 64.6592C6.66611 65.053 6.59342 65.5837 6.59342 65.5837C6.59342 65.5837 6.52073 65.0487 6.17866 64.6592Z" fill="#B56E46"/>
<path d="M11.5278 66.7908C11.267 66.5639 10.9163 66.5169 10.9163 66.5169C10.9163 66.5169 11.267 66.4698 11.5278 66.2429C11.7544 65.9818 11.8014 65.6308 11.8014 65.6308C11.8014 65.6308 11.8485 65.9818 12.0751 66.2429C12.3359 66.4698 12.6866 66.5169 12.6866 66.5169C12.6866 66.5169 12.3359 66.5639 12.0751 66.7908C11.8485 67.0519 11.8014 67.4029 11.8014 67.4029C11.8014 67.4029 11.7544 67.0519 11.5278 66.7908Z" fill="#B56E46"/>
<path d="M24.8771 75.4414C24.6163 75.2146 24.2657 75.1675 24.2657 75.1675C24.2657 75.1675 24.6163 75.1204 24.8771 74.8935C25.1037 74.6324 25.1508 74.2814 25.1508 74.2814C25.1508 74.2814 25.1978 74.6324 25.4244 74.8935C25.6853 75.1204 26.0359 75.1675 26.0359 75.1675C26.0359 75.1675 25.6853 75.2146 25.4244 75.4414C25.1978 75.7025 25.1508 76.0535 25.1508 76.0535C25.1508 76.0535 25.1037 75.6982 24.8771 75.4414Z" fill="#B56E46"/>
<path d="M40.3227 29.9197H28.8804C28.8248 29.9197 28.7735 29.9497 28.7436 29.9968L23.0224 39.9187C22.9925 39.9658 22.9925 40.0257 23.0224 40.077L28.7436 49.9989C28.7735 50.046 28.8248 50.076 28.8804 50.076H40.3227C40.3783 50.076 40.4296 50.046 40.4595 49.9989L46.1807 40.077C46.2106 40.03 46.2106 39.97 46.1807 39.9187L40.4595 30.0011C40.4296 29.9497 40.3783 29.9197 40.3227 29.9197ZM40.4082 44.8496C40.2714 44.9524 40.0918 44.794 40.1773 44.6442C40.7203 43.6725 41.0111 42.5639 41.0111 41.4082C41.0111 40.9203 40.9598 40.4452 40.8615 39.9829C40.823 39.7988 40.5493 39.8288 40.5493 40.0171C40.5493 40.0214 40.5493 40.0257 40.5493 40.0342C40.5493 43.2959 37.8854 45.9369 34.6016 45.9369C31.3177 45.9369 28.6538 43.2916 28.6538 40.0342C28.6538 40.03 28.6538 40.0257 28.6538 40.0171C28.6538 39.8288 28.3801 39.7945 28.3417 39.9829C28.2433 40.4452 28.192 40.9246 28.192 41.4082C28.192 42.5639 28.4828 43.6683 29.0258 44.6442C29.1113 44.794 28.9317 44.9524 28.7949 44.8496C27.2599 43.7068 26.3106 42.1145 26.3106 40.3553C26.3106 36.8753 30.0221 34.0589 34.6016 34.0589C39.181 34.0589 42.8925 36.8796 42.8925 40.3553C42.8925 42.1188 41.9433 43.7068 40.4082 44.8496Z" fill="#B56E46"/>
<path d="M38.9316 39.0705C39.4442 38.0453 38.9183 36.7424 37.7569 36.1604C36.5955 35.5785 35.2384 35.9378 34.7257 36.963C34.2131 37.9883 34.739 39.2911 35.9004 39.8731C37.0618 40.4551 38.4189 40.0957 38.9316 39.0705Z" fill="#B56E46"/>
<path d="M34.8376 40.5208C35.0036 40.1889 34.8334 39.7672 34.4575 39.5789C34.0816 39.3905 33.6424 39.5069 33.4765 39.8387C33.3105 40.1706 33.4807 40.5924 33.8566 40.7807C34.2324 40.969 34.6717 40.8527 34.8376 40.5208Z" fill="#B56E46"/>
<path d="M20.892 27.6554L3.7414 57.7549L3.51906 57.6265L20.892 27.6554Z" fill="#B56E46"/>
<path d="M34.6261 4.01498L25.7237 19.2488L34.4038 3.88657L34.6261 4.01498Z" fill="#B56E46"/>
<path d="M22.3928 27.6554L5.99908 56.4409L5.77673 56.3167L22.3928 27.6554Z" fill="#B56E46"/>
<path d="M34.7159 6.47192L27.216 19.2702L34.4936 6.34351L34.7159 6.47192Z" fill="#B56E46"/>
<path d="M23.7397 27.7796L8.1584 55.1482L7.93605 55.0198L23.7397 27.7796Z" fill="#B56E46"/>
<path d="M34.7159 8.9374L28.6313 19.2702L34.4936 8.80899L34.7159 8.9374Z" fill="#B56E46"/>
<path d="M57.2114 43.4329L65.5152 57.6265L65.2928 57.755L57.2114 43.4329Z" fill="#B56E46"/>
<path d="M48.2577 27.5912L52.0504 34.4526L48.0353 27.7196L48.2577 27.5912Z" fill="#B56E46"/>
<path d="M34.6304 3.88657L43.3233 19.2702L34.4081 4.01498L34.6304 3.88657Z" fill="#B56E46"/>
<path d="M56.3263 44.5115L63.2575 56.3167L63.0351 56.4409L56.3263 44.5115Z" fill="#B56E46"/>
<path d="M46.7526 27.5912L51.1952 35.5827L46.5302 27.7196L46.7526 27.5912Z" fill="#B56E46"/>
<path d="M34.5406 6.34351L41.8225 19.2702L34.3183 6.47192L34.5406 6.34351Z" fill="#B56E46"/>
<path d="M55.7106 45.9026L61.0982 55.0198L60.8758 55.1482L55.7106 45.9026Z" fill="#B56E46"/>
<path d="M45.3372 27.5912L50.3614 36.5928L45.1149 27.7196L45.3372 27.5912Z" fill="#B56E46"/>
<path d="M34.5406 8.80899L40.4029 19.2702L34.3183 8.9374L34.5406 8.80899Z" fill="#B56E46"/>
<path d="M19.9342 57.862L3.51479 57.9946V57.7378L19.9342 57.862Z" fill="#B56E46"/>
<path d="M65.4553 57.9775L30.9617 57.862L65.451 57.7207L65.4553 57.9775Z" fill="#B56E46"/>
<path d="M19.2885 56.5564L5.78101 56.6891V56.4323L19.2885 56.5564Z" fill="#B56E46"/>
<path d="M63.3687 56.6763L29.9954 56.5564L63.3687 56.4195V56.6763Z" fill="#B56E46"/>
<path d="M18.6685 55.328L7.97882 55.4607V55.2039L18.6685 55.328Z" fill="#B56E46"/>
<path d="M61.235 55.4478L29.5079 55.328L61.235 55.191V55.4478Z" fill="#B56E46"/>
<path d="M48.0952 52.3574L65.2458 22.2579L65.4681 22.3863L48.0952 52.3574Z" fill="#B56E46"/>
<path d="M34.3568 76.0021L43.2634 60.764L34.5791 76.1305L34.3568 76.0021Z" fill="#B56E46"/>
<path d="M46.5901 52.3574L62.9838 23.572L63.2062 23.7004L46.5901 52.3574Z" fill="#B56E46"/>
<path d="M34.267 73.5409L41.7712 60.7469L34.4893 73.6693L34.267 73.5409Z" fill="#B56E46"/>
<path d="M45.2474 52.2333L60.8245 24.8689L61.0468 24.9973L45.2474 52.2333Z" fill="#B56E46"/>
<path d="M34.267 71.0797L40.3558 60.7469L34.4893 71.2081L34.267 71.0797Z" fill="#B56E46"/>
<path d="M11.7715 36.58L3.46774 22.3863L3.69009 22.2579L11.7715 36.58Z" fill="#B56E46"/>
<path d="M16.9368 45.5645L34.5748 76.0021L34.3525 76.1305L16.9368 45.5645Z" fill="#B56E46"/>
<path d="M12.6566 35.5013L5.72542 23.7004L5.94776 23.572L12.6566 35.5013Z" fill="#B56E46"/>
<path d="M17.7877 44.4344L34.6646 73.5409L34.4423 73.6693L17.7877 44.4344Z" fill="#B56E46"/>
<path d="M13.2724 34.1102L7.88474 24.9973L8.10708 24.8689L13.2724 34.1102Z" fill="#B56E46"/>
<path d="M18.6258 43.4243L34.6646 71.0797L34.4423 71.2081L18.6258 43.4243Z" fill="#B56E46"/>
<path d="M3.53189 22.1637L65.4681 22.0182V22.275L3.53189 22.1637Z" fill="#B56E46"/>
<path d="M5.61424 23.4692L63.2062 23.3237V23.5805L5.61424 23.4692Z" fill="#B56E46"/>
<path d="M61.0041 24.809L7.74791 24.6977L61.0041 24.5522V24.809Z" fill="#B56E46"/>
</g>
<defs>
<clipPath id="clip0_93_2274">
<rect width="69" height="80" fill="white"/>
</clipPath>
</defs>
</svg>
